<svg height="605.3324" viewBox="0 0 605.3324 605.3324" width="605.3324" xmlns="http://www.w3.org/2000/svg" xmlns:xlink="http://www.w3.org/1999/xlink"><clipPath id="a"><circle cx="915.61475" cy="233" r="302.6662"/></clipPath><circle cx="302.6662" cy="302.6662" fill="#4d4d4d" fill-rule="evenodd" r="302.6662"/><g clip-path="url(#a)" transform="translate(-612.94854 69.666199)"><g fill="none" stroke-linecap="round" stroke-width="5"><path d="m543-60 671 435" stroke="#eaa"/><path d="m1214 375h-20" stroke="#eaa"/><path d="m1194 375-81-12" stroke="#eaa"/><path d="m1113 363-37-37" stroke="#eaa"/><path d="m1076 326 43-10" stroke="#eaa"/><path d="m1119 316-54-20" stroke="#eaa"/><path d="m1065 296 7 84" stroke="#eaa"/><path d="m1072 380-83-32" stroke="#eaa"/><path d="m989 348-50-3" stroke="#eaa"/><path d="m939 345-16 50" stroke="#eaa"/><path d="m923 395 16-50" stroke="#eaa"/><path d="m939 345h51" stroke="#eaa"/><path d="m990 345 15 38" stroke="#eaa"/><path d="m1005 383-41-91" stroke="#eaa"/><path d="m964 292-43 103" stroke="#eaa"/><path d="m921 395-65 2" stroke="#eaa"/><path d="m856 397-53 2" stroke="#eaa"/><path d="m803 399 3-57" stroke="#eaa"/><path d="m806 342 54-7" stroke="#eaa"/><path d="m860 335h-65" stroke="#eaa"/><path d="m795 335-13-40" stroke="#eaa"/><path d="m782 295 68-8" stroke="#eaa"/><path d="m850 287-60 3" stroke="#eaa"/><path d="m790 290 8 105" stroke="#eaa"/><path d="m798 395-73-8" stroke="#eaa"/><path d="m725 387-83 7" stroke="#eaa"/><path d="m642 394 6-98" stroke="#eaa"/><path d="m648 296v95" stroke="#eaa"/><path d="m648 391-124 1" stroke="#eaa"/><path d="m524 392-51-49" stroke="#eaa"/><path d="m473 343 41-45" stroke="#eaa"/><path d="m514 298 905-211" stroke="#7ea"/><path d="m1419 87-80-48" stroke="#7ea"/><path d="m1339 39-478 230" stroke="#7ea"/><path d="m861 269 319-358" stroke="#889"/><path d="m1180-89 207 208" stroke="#889"/><path d="m1387 119-599 95" stroke="#7ea"/><path d="m788 214-42-63" stroke="#7ea"/><path d="m746 151h1" stroke="#7ea"/><path d="m747 151-6-64" stroke="#7ea"/><path d="m741 87 55-72" stroke="#7ea"/><path d="m796 15 474 117" stroke="#7ea"/><path d="m1270 132 295-97" stroke="#889"/><path d="m1565 35-42-27" stroke="#889"/><path d="m1523 8 44-78" stroke="#889"/><path d="m1567-70 7-80" stroke="#889"/><path d="m1574-150-679 190" stroke="#7ea"/><path d="m895 40 88 63" stroke="#7ea"/><path d="m983 103 95 98" stroke="#7ea"/><path d="m1078 201h1" stroke="#7ea"/><path d="m1079 201 354 376" stroke="#eaa"/><path d="m1433 577-387 11" stroke="#eaa"/><path d="m1046 588-18-139" stroke="#eaa"/><path d="m1028 449 86-3" stroke="#eaa"/><path d="m1114 446-146-7" stroke="#eaa"/><path d="m968 439h61" stroke="#eaa"/><path d="m1029 439 7 143" stroke="#eaa"/><path d="m1036 582-241-10" stroke="#eaa"/><path d="m795 572 89-46" stroke="#eaa"/><path d="m884 526-69-38" stroke="#eaa"/><path d="m815 488-48 41" stroke="#eaa"/><path d="m767 529 26 46" stroke="#eaa"/><path d="m793 575-139-14" stroke="#eaa"/><path d="m654 561 38-45" stroke="#eaa"/><path d="m692 516-40-39" stroke="#eaa"/><path d="m652 477-69 41" stroke="#eaa"/><path d="m583 518 62 56" stroke="#eaa"/><path d="m645 574-224 9" stroke="#eaa"/><path d="m421 583 87-71" stroke="#eaa"/><path d="m508 512-78-55" stroke="#eaa"/><path d="m430 457-4 122" stroke="#eaa"/><path d="m426 579-338-11" stroke="#889"/><path d="m88 568 54-80" stroke="#889"/><path d="m142 488-41-11" stroke="#889"/><path d="m101 477v-99" stroke="#889"/><path d="m101 378 19-132" stroke="#889"/><path d="m120 246 3-81" stroke="#889"/><path d="m123 165 1555 142" stroke="#eaa"/><path d="m1678 307-1536-221" stroke="#889"/><path d="m142 86 1539 117" stroke="#eaa"/><path d="m1681 203 71-24" stroke="#eaa"/><path d="m1752 179-86-56" stroke="#eaa"/><path d="m1666 123 11 178" stroke="#eaa"/><path d="m1677 301-125-11" stroke="#eaa"/><path d="m1552 290 10-16" stroke="#eaa"/><path d="m1562 274 28-48" stroke="#eaa"/><path d="m1590 226-52-40" stroke="#eaa"/><path d="m1538 186-42 48" stroke="#eaa"/><path d="m1496 234 49 62" stroke="#eaa"/><path d="m1545 296h-68" stroke="#eaa"/><path d="m1477 296-138-6" stroke="#eaa"/><path d="m1339 290 76-73" stroke="#eaa"/><path d="m1415 217-45-50" stroke="#eaa"/><path d="m1370 167-66 61" stroke="#eaa"/><path d="m1304 228 30 63" stroke="#eaa"/><path d="m1334 291-50-12" stroke="#eaa"/><path d="m1284 279-63-3" stroke="#eaa"/><path d="m1221 276 4-103" stroke="#eaa"/><path d="m1225 173 65-32" stroke="#eaa"/><path d="m1290 141-85-26" stroke="#eaa"/><path d="m1205 115 11 170" stroke="#eaa"/><path d="m1216 285-731-476" stroke="#889"/><path d="m485-191 348 419" stroke="#eaa"/><path d="m833 228-128-419" stroke="#889"/><path d="m705-191 231 241" stroke="#eaa"/><path d="m936 50-59-238" stroke="#889"/><path d="m877-188 61 8" stroke="#889"/><path d="m938-180 82 5" stroke="#889"/><path d="m1020-175 135 22" stroke="#889"/><path d="m1155-153-529 260" stroke="#8eb"/><path d="m626 107-1-13" stroke="#8eb"/><path d="m625 94-2-25" stroke="#8eb"/><path d="m623 69-1-24" stroke="#8eb"/><path d="m622 45v-21" stroke="#8eb"/><path d="m622 24-4-31" stroke="#8eb"/><path d="m618-7v-23" stroke="#8eb"/><path d="m618-30-1-15" stroke="#8eb"/><path d="m617-45-3-7" stroke="#8eb"/><path d="m614-52-14-7" stroke="#8eb"/><path d="m600-59 4-7" stroke="#8eb"/><path d="m604-66 204-92" stroke="#889"/><path d="m808-158-173 90" stroke="#8eb"/><path d="m635-68 38 3" stroke="#8eb"/><path d="m673-65 17 26" stroke="#8eb"/><path d="m690-39-10 12" stroke="#8eb"/><path d="m680-27-3 7" stroke="#8eb"/><path d="m677-20v16" stroke="#8eb"/><path d="m677-4 2 19" stroke="#8eb"/><path d="m679 15v15" stroke="#8eb"/><path d="m679 30v13" stroke="#8eb"/><path d="m679 43v12" stroke="#8eb"/><path d="m679 55v24" stroke="#8eb"/><path d="m679 79-2 45" stroke="#8eb"/><path d="m677 124 17-6" stroke="#8eb"/><path d="m694 118 19 14" stroke="#8eb"/><path d="m713 132v18" stroke="#8eb"/><path d="m713 150-4 19" stroke="#8eb"/><path d="m709 169-13 7" stroke="#8eb"/><path d="m696 176h-20" stroke="#8eb"/><path d="m676 176h-15" stroke="#8eb"/><path d="m661 176-19 3" stroke="#8eb"/><path d="m642 179h-26" stroke="#8eb"/><path d="m616 179h-13" stroke="#8eb"/><path d="m603 179-22-2" stroke="#8eb"/><path d="m581 177-13-9" stroke="#8eb"/><path d="m568 168 2-34" stroke="#8eb"/><path d="m570 134 23-9" stroke="#8eb"/><path d="m593 125 33 3" stroke="#8eb"/><path d="m626 128-245 238" stroke="#8eb"/><path d="m381 366 3-13" stroke="#8eb"/><path d="m384 353v-12" stroke="#8eb"/><path d="m384 341 1-22" stroke="#8eb"/><path d="m385 319v-16" stroke="#8eb"/><path d="m385 303 2-15" stroke="#8eb"/><path d="m387 288-1-13" stroke="#8eb"/><path d="m386 275 240-168" stroke="#8eb"/><path d="m626 107-1-13" stroke="#8eb"/><path d="m625 94-2-25" stroke="#8eb"/><path d="m623 69-1-24" stroke="#8eb"/><path d="m622 45v-21" stroke="#8eb"/><path d="m622 24-4-31" stroke="#8eb"/><path d="m618-7v-23" stroke="#8eb"/><path d="m618-30-1-15" stroke="#8eb"/><path d="m617-45-3-7" stroke="#8eb"/><path d="m614-52-14-7" stroke="#8eb"/><path d="m600-59 4-7" stroke="#8eb"/><path d="m604-66 31-2" stroke="#8eb"/><path d="m635-68 173-90" stroke="#889"/><path d="m808-158-135 93" stroke="#8eb"/><path d="m673-65 17 26" stroke="#8eb"/><path d="m690-39-10 12" stroke="#8eb"/><path d="m680-27-3 7" stroke="#8eb"/><path d="m677-20v16" stroke="#8eb"/><path d="m677-4 2 19" stroke="#8eb"/><path d="m679 15v15" stroke="#8eb"/><path d="m679 30v13" stroke="#8eb"/><path d="m679 43v12" stroke="#8eb"/><path d="m679 55v24" stroke="#8eb"/><path d="m679 79-2 45" stroke="#8eb"/><path d="m677 124 17-6" stroke="#8eb"/><path d="m694 118 19 14" stroke="#8eb"/><path d="m713 132v18" stroke="#8eb"/><path d="m713 150-4 19" stroke="#8eb"/><path d="m709 169-13 7" stroke="#8eb"/><path d="m696 176h-20" stroke="#8eb"/><path d="m676 176h-15" stroke="#8eb"/><path d="m661 176-19 3" stroke="#8eb"/><path d="m642 179h-26" stroke="#8eb"/><path d="m616 179h-13" stroke="#8eb"/><path d="m603 179-22-2" stroke="#8eb"/><path d="m581 177-13-9" stroke="#8eb"/><path d="m568 168 2-34" stroke="#8eb"/><path d="m570 134 23-9" stroke="#8eb"/><path d="m593 125 33 3" stroke="#8eb"/><path d="m626 128-245 238" stroke="#8eb"/><path d="m381 366 3-13" stroke="#8eb"/><path d="m384 353v-12" stroke="#8eb"/><path d="m384 341 1-22" stroke="#8eb"/><path d="m385 319v-16" stroke="#8eb"/><path d="m385 303 2-15" stroke="#8eb"/><path d="m387 288-1-13" stroke="#8eb"/><path d="m386 275-5-13" stroke="#8eb"/><path d="m381 262 6-7" stroke="#8eb"/><path d="m387 255 27-4" stroke="#8eb"/><path d="m414 251 26 3" stroke="#8eb"/><path d="m440 254-1 18" stroke="#8eb"/><path d="m439 272-4 6" stroke="#8eb"/><path d="m435 278v17" stroke="#8eb"/><path d="m435 295 1 22" stroke="#8eb"/><path d="m436 317v25" stroke="#8eb"/><path d="m436 342-5 21" stroke="#8eb"/><path d="m431 363 1 14" stroke="#8eb"/><path d="m432 377 15 7" stroke="#8eb"/><path d="m447 384v16" stroke="#8eb"/><path d="m447 400-25 13" stroke="#8eb"/><path d="m422 413h-25" stroke="#8eb"/><path d="m397 413h-22" stroke="#8eb"/><path d="m375 413-24-3" stroke="#8eb"/><path d="m351 410v-20" stroke="#8eb"/><path d="m351 390 25-12" stroke="#8eb"/><path d="m376 378-179-490" stroke="#889"/><path d="m197-112 1279 483" stroke="#8eb"/><path d="m1476 371-10 32" stroke="#8eb"/><path d="m1466 403-5 22" stroke="#8eb"/><path d="m1461 425-8 34" stroke="#8eb"/><path d="m1453 459-8 30" stroke="#8eb"/><path d="m1445 489 3 24" stroke="#8eb"/><path d="m1448 513 46 6" stroke="#8eb"/><path d="m1494 519-10 34" stroke="#8eb"/><path d="m1484 553-54 3" stroke="#8eb"/><path d="m1430 556-39 3" stroke="#8eb"/><path d="m1391 559-28-5" stroke="#8eb"/><path d="m1363 554h-27" stroke="#8eb"/><path d="m1336 554-15-4" stroke="#8eb"/><path d="m1321 550 5-20" stroke="#8eb"/><path d="m1326 530 34-16" stroke="#8eb"/><path d="m1360 514 21-6" stroke="#8eb"/><path d="m1381 508 85-180" stroke="#8eb"/><path d="m1466 328-12 2" stroke="#8eb"/><path d="m1454 330-7 18" stroke="#8eb"/><path d="m1447 348 12 7" stroke="#8eb"/><path d="m1459 355h17" stroke="#8eb"/><path d="m1476 355 13-9" stroke="#8eb"/><path d="m1489 346 4-18" stroke="#8eb"/><path d="m1493 328 1-20" stroke="#8eb"/><path d="m1494 308-24-4" stroke="#8eb"/><path d="m1470 304-31 7" stroke="#8eb"/><path d="m1439 311-20 30" stroke="#8eb"/><path d="m1419 341 21 33" stroke="#8eb"/><path d="m1440 374 57 2" stroke="#8eb"/><path d="m1497 376 45-33" stroke="#8eb"/><path d="m1542 343 4-60" stroke="#8eb"/><path d="m1546 283-34-40" stroke="#8eb"/><path d="m1512 243-138-414" stroke="#889"/><path d="m1374-171 108 375" stroke="#8eb"/><path d="m1482 204-108-375" stroke="#889"/><path d="m1374-171 15 332" stroke="#8eb"/><path d="m1389 161-15-332" stroke="#889"/><path d="m1374-171-9 162" stroke="#8eb"/><path d="m1365-9 9-162" stroke="#889"/><path d="m1374-171-41 117" stroke="#8eb"/><path d="m1333-54 41-117" stroke="#889"/><path d="m1374-171 61 183" stroke="#8eb"/><path d="m1435 12 20 64" stroke="#8eb"/><path d="m1455 76-1224 266" stroke="#889"/><path d="m231 342 237 153" stroke="#8eb"/><path d="m468 495-237-153" stroke="#889"/><path d="m231 342 279 159" stroke="#8eb"/><path d="m510 501-279-159" stroke="#889"/><path d="m231 342 254 213" stroke="#8eb"/><path d="m485 555-254-213" stroke="#889"/><path d="m231 342 202 219" stroke="#8eb"/><path d="m433 561-202-219" stroke="#889"/><path d="m231 342 161 206" stroke="#8eb"/><path d="m392 548-161-206" stroke="#889"/><path d="m231 342 161 152" stroke="#8eb"/><path d="m392 494 6-43" stroke="#8eb"/><path d="m398 451 45-32" stroke="#8eb"/><path d="m443 419 903 80" stroke="#889"/><path d="m1346 499-799-286" stroke="#8eb"/><path d="m547 213 799 286" stroke="#889"/><path d="m1346 499-813-262" stroke="#8eb"/><path d="m533 237 813 262" stroke="#889"/><path d="m1346 499-813-262" stroke="#8eb"/><path d="m533 237 813 262" stroke="#889"/><path d="m1346 499-813-262" stroke="#8eb"/><path d="m533 237 813 262" stroke="#889"/><path d="m1346 499-826-241" stroke="#8eb"/><path d="m520 258 826 241" stroke="#889"/><path d="m1346 499-826-241" stroke="#8eb"/><path d="m520 258 826 241" stroke="#889"/><path d="m1346 499-826-241" stroke="#8eb"/><path d="m520 258 826 241" stroke="#889"/><path d="m1346 499-826-241" stroke="#8eb"/><path d="m520 258 826 241" stroke="#889"/><path d="m1346 499-826-241" stroke="#8eb"/><path d="m520 258 826 241" stroke="#889"/><path d="m1346 499-826-241" stroke="#8eb"/><path d="m520 258 826 241" stroke="#889"/><path d="m1346 499-845-213" stroke="#8eb"/><path d="m501 286 845 213" stroke="#889"/><path d="m1346 499-845-213" stroke="#8eb"/><path d="m501 286 845 213" stroke="#889"/><path d="m1346 499-845-213" stroke="#8eb"/><path d="m501 286 845 213" stroke="#889"/><path d="m1346 499-845-213" stroke="#8eb"/><path d="m501 286 845 213" stroke="#889"/><path d="m1346 499-845-213" stroke="#8eb"/><path d="m501 286 845 213" stroke="#889"/><path d="m1346 499-785-215" stroke="#8eb"/><path d="m561 284 785 215" stroke="#889"/><path d="m1346 499-785-215" stroke="#8eb"/><path d="m561 284 785 215" stroke="#889"/><path d="m1346 499-785-215" stroke="#8eb"/><path d="m561 284 785 215" stroke="#889"/><path d="m1346 499-785-215" stroke="#8eb"/><path d="m561 284 785 215" stroke="#889"/><path d="m1346 499-785-215" stroke="#8eb"/><path d="m561 284 785 215" stroke="#889"/><path d="m1346 499-785-215" stroke="#8eb"/><path d="m561 284 785 215" stroke="#889"/><path d="m1346 499-785-215" stroke="#8eb"/><path d="m561 284 785 215" stroke="#889"/><path d="m1346 499-840-112" stroke="#8eb"/><path d="m506 387 840 112" stroke="#889"/><path d="m1346 499-840-112" stroke="#8eb"/><path d="m506 387 840 112" stroke="#889"/><path d="m1346 499-840-112" stroke="#8eb"/><path d="m506 387 840 112" stroke="#889"/><path d="m1346 499-649-96" stroke="#8eb"/><path d="m697 403 649 96" stroke="#889"/><path d="m1346 499-514-107" stroke="#8eb"/><path d="m832 392 514 107" stroke="#889"/><path d="m1346 499-363-158" stroke="#8eb"/><path d="m983 341 95-68" stroke="#8eb"/><path d="m1078 273 268 226" stroke="#889"/><path d="m1346 499-208-537" stroke="#889"/><path d="m1138-38 35 36" stroke="#889"/><path d="m1173-2-264 141" stroke="#8eb"/><path d="m909 139 284-132" stroke="#889"/><path d="m1193 7-227 126" stroke="#8eb"/><path d="m966 133 260-99" stroke="#889"/><path d="m1226 34-259 155" stroke="#8eb"/><path d="m967 189 314-119" stroke="#889"/><path d="m1281 70-323 171" stroke="#8eb"/><path d="m958 241 334-142" stroke="#889"/><path d="m1292 99-407 148" stroke="#8eb"/><path d="m885 247 417-107" stroke="#889"/><path d="m1302 140-463 106" stroke="#8eb"/><path d="m839 246 463-41" stroke="#889"/><path d="m1302 205-501-4" stroke="#8eb"/><path d="m801 201 539 79" stroke="#889"/><path d="m1340 280-557-129" stroke="#8eb"/><path d="m783 151 566 260" stroke="#889"/><path d="m1349 411-525-328" stroke="#8eb"/><path d="m824 83 39-50" stroke="#8eb"/><path d="m863 33 389 112" stroke="#889"/><path d="m1252 145-346-151" stroke="#8eb"/><path d="m906-6 208 38" stroke="#889"/><path d="m1114 32 47-168" stroke="#889"/><path d="m1161-136-691 292" stroke="#889"/><path d="m470 156 458-183" stroke="#8eb"/><path d="m928-27-562 183" stroke="#889"/><path d="m366 156-4-111" stroke="#889"/><path d="m362 45 847 521" stroke="#889"/><path d="m1209 566 4-83" stroke="#889"/><path d="m1213 483h55" stroke="#889"/><path d="m1268 483h-132" stroke="#889"/><path d="m1136 483h-72" stroke="#889"/><path d="m1064 483h-66" stroke="#889"/><path d="m998 483-7 36" stroke="#889"/><path d="m991 519h62" stroke="#889"/><path d="m1053 519h-54" stroke="#889"/><path d="m999 519 5 46" stroke="#889"/><path d="m1004 565 79 1" stroke="#889"/><path d="m1083 566h-82" stroke="#889"/><path d="m1001 566v-82" stroke="#889"/><path d="m1001 484-71 1" stroke="#889"/><path d="m930 485-39-5" stroke="#889"/><path d="m891 480 42 5" stroke="#889"/><path d="m933 485-36 31" stroke="#889"/><path d="m897 516 41 22" stroke="#889"/><path d="m938 538-49 22" stroke="#889"/><path d="m889 560v-78" stroke="#889"/><path d="m889 482-92 79" stroke="#889"/><path d="m797 561-11-13" stroke="#889"/><path d="m786 548 7-74" stroke="#889"/><path d="m793 474-25 83" stroke="#889"/><path d="m768 557h-11" stroke="#889"/><path d="m757 557v-70" stroke="#889"/><path d="m757 487v-11" stroke="#889"/><path d="m757 476-48-4" stroke="#889"/><path d="m709 472 14 29" stroke="#889"/><path d="m723 501v38" stroke="#889"/><path d="m723 539-15 9" stroke="#889"/><path d="m708 548-29-5" stroke="#889"/><path d="m679 543 5-42" stroke="#889"/><path d="m684 501 16-21" stroke="#889"/><path d="m700 480-72 26" stroke="#889"/><path d="m628 506-28 30" stroke="#889"/><path d="m600 536 16-20" stroke="#889"/><path d="m616 516 30-32" stroke="#889"/><path d="m646 484 19-24" stroke="#889"/><path d="m665 460-39 37" stroke="#889"/><path d="m626 497-10-13" stroke="#889"/><path d="m616 484-9-11" stroke="#889"/><path d="m607 473-9-11" stroke="#889"/><path d="m598 462 196-524" stroke="#889"/><path d="m794-62-311 212" stroke="#889"/><path d="m483 150-13-259" stroke="#889"/><path d="m470-109 154-41" stroke="#889"/><path d="m624-150 135 139" stroke="#889"/><path d="m759-11-285 106" stroke="#889"/><path d="m474 95 45-201" stroke="#889"/><path d="m519-106 175 113" stroke="#889"/><path d="m694 7v-90" stroke="#889"/><path d="m694-83-128 112" stroke="#889"/><path d="m566 29-57-37" stroke="#889"/><path d="m509-8 105-93" stroke="#889"/><path d="m614-101-32 84" stroke="#889"/><path d="m582-17 338-43" stroke="#889"/><path d="m920-60 272 298" stroke="#889"/><path d="m1192 238-246 13" stroke="#e8e"/><path d="m946 251-16-112" stroke="#e8e"/><path d="m930 139-247-19" stroke="#bae"/><path d="m683 120-118 124" stroke="#bae"/><path d="m565 244 116-17" stroke="#bae"/><path d="m681 227-64-35" stroke="#bae"/><path d="m617 192 60 102" stroke="#bae"/><path d="m677 294-91-7" stroke="#bae"/><path d="m586 287 98-143" stroke="#bae"/><path d="m684 144-201 402" stroke="#eec"/><path d="m483 546v-21" stroke="#eec"/><path d="m483 525v-17" stroke="#eec"/><path d="m483 508 23-47" stroke="#eec"/><path d="m506 461-12 18" stroke="#eec"/><path d="m494 479-10 23" stroke="#eec"/><path d="m484 502-7 8" stroke="#eec"/><path d="m477 510-18-49" stroke="#eec"/><path d="m459 461 13 29" stroke="#eec"/><path d="m472 490v21" stroke="#eec"/><path d="m472 511h-14" stroke="#eec"/><path d="m458 511h-22" stroke="#eec"/><path d="m436 511-43 1" stroke="#eec"/><path d="m393 512 21-3" stroke="#eec"/><path d="m414 509 27 4" stroke="#eec"/><path d="m441 513 7 17" stroke="#eec"/><path d="m448 530 1 17" stroke="#eec"/><path d="m449 547-3-13" stroke="#eec"/><path d="m446 534-5-26" stroke="#eec"/><path d="m441 508-8-23" stroke="#eec"/><path d="m433 485-7-29" stroke="#eec"/><path d="m426 456-14 14" stroke="#eec"/><path d="m412 470-8 17" stroke="#eec"/><path d="m404 487-9 28" stroke="#eec"/><path d="m395 515-18 28" stroke="#eec"/><path d="m377 543-44-27" stroke="#eec"/><path d="m333 516h21" stroke="#eec"/><path d="m354 516-5 31" stroke="#eec"/><path d="m349 547-20 6" stroke="#eec"/><path d="m329 553-24-6" stroke="#eec"/><path d="m305 547 3-34" stroke="#eec"/><path d="m308 513 8-32" stroke="#eec"/><path d="m316 481 27-30" stroke="#eec"/><path d="m343 451-49-255" stroke="#eec"/><path d="m294 196 26 90" stroke="#eec"/><path d="m320 286 784-142" stroke="#eec"/><path d="m1104 144 75-85" stroke="#eec"/><path d="m1179 59 170 9" stroke="#eec"/><path d="m1349 68 15-99" stroke="#eec"/><path d="m1364-31 41 1" stroke="#eec"/><path d="m1405-30-26 94" stroke="#eec"/></g><circle cx="543" cy="-60" fill="#889" r="10"/><circle cx="1214" cy="375" fill="#eaa" r="10"/><circle cx="1194" cy="375" fill="#eaa" r="10"/><circle cx="1113" cy="363" fill="#eaa" r="10"/><circle cx="1076" cy="326" fill="#eaa" r="10"/><circle cx="1119" cy="316" fill="#eaa" r="10"/><circle cx="1065" cy="296" fill="#eaa" r="10"/><circle cx="1072" cy="380" fill="#eaa" r="10"/><circle cx="989" cy="348" fill="#eaa" r="10"/><circle cx="939" cy="345" fill="#eaa" r="10"/><circle cx="923" cy="395" fill="#eaa" r="10"/><circle cx="939" cy="345" fill="#eaa" r="10"/><circle cx="990" cy="345" fill="#eaa" r="10"/><circle cx="1005" cy="383" fill="#eaa" r="10"/><circle cx="964" cy="292" fill="#eaa" r="10"/><circle cx="921" cy="395" fill="#eaa" r="10"/><circle cx="856" cy="397" fill="#eaa" r="10"/><circle cx="803" cy="399" fill="#eaa" r="10"/><circle cx="806" cy="342" fill="#eaa" r="10"/><circle cx="860" cy="335" fill="#eaa" r="10"/><circle cx="795" cy="335" fill="#eaa" r="10"/><circle cx="782" cy="295" fill="#eaa" r="10"/><circle cx="850" cy="287" fill="#eaa" r="10"/><circle cx="790" cy="290" fill="#eaa" r="10"/><circle cx="798" cy="395" fill="#eaa" r="10"/><circle cx="725" cy="387" fill="#eaa" r="10"/><circle cx="642" cy="394" fill="#eaa" r="10"/><circle cx="648" cy="296" fill="#eaa" r="10"/><circle cx="648" cy="391" fill="#eaa" r="10"/><circle cx="524" cy="392" fill="#eaa" r="10"/><circle cx="473" cy="343" fill="#eaa" r="10"/><circle cx="514" cy="298" fill="#eaa" r="10"/><circle cx="1419" cy="87" fill="#7ea" r="10"/><circle cx="1339" cy="39" fill="#7ea" r="10"/><circle cx="861" cy="269" fill="#7ea" r="10"/><circle cx="861" cy="269" fill="#7ea" r="10"/><circle cx="1180" cy="-89" fill="#889" r="10"/><circle cx="1387" cy="119" fill="#889" r="10"/><circle cx="788" cy="214" fill="#7ea" r="10"/><circle cx="746" cy="151" fill="#7ea" r="10"/><circle cx="747" cy="151" fill="#7ea" r="10"/><circle cx="741" cy="87" fill="#7ea" r="10"/><circle cx="796" cy="15" fill="#7ea" r="10"/><circle cx="1270" cy="132" fill="#7ea" r="10"/><circle cx="1565" cy="35" fill="#889" r="10"/><circle cx="1523" cy="8" fill="#889" r="10"/><circle cx="1567" cy="-70" fill="#889" r="10"/><circle cx="1574" cy="-150" fill="#889" r="10"/><circle cx="895" cy="40" fill="#7ea" r="10"/><circle cx="983" cy="103" fill="#7ea" r="10"/><circle cx="1078" cy="201" fill="#7ea" r="10"/><circle cx="1079" cy="201" fill="#7ea" r="10"/><circle cx="1433" cy="577" fill="#eaa" r="10"/><circle cx="1046" cy="588" fill="#eaa" r="10"/><circle cx="1028" cy="449" fill="#eaa" r="10"/><circle cx="1114" cy="446" fill="#eaa" r="10"/><circle cx="968" cy="439" fill="#eaa" r="10"/><circle cx="1029" cy="439" fill="#eaa" r="10"/><circle cx="1036" cy="582" fill="#eaa" r="10"/><circle cx="795" cy="572" fill="#eaa" r="10"/><circle cx="884" cy="526" fill="#eaa" r="10"/><circle cx="815" cy="488" fill="#eaa" r="10"/><circle cx="767" cy="529" fill="#eaa" r="10"/><circle cx="793" cy="575" fill="#eaa" r="10"/><circle cx="654" cy="561" fill="#eaa" r="10"/><circle cx="692" cy="516" fill="#eaa" r="10"/><circle cx="652" cy="477" fill="#eaa" r="10"/><circle cx="583" cy="518" fill="#eaa" r="10"/><circle cx="645" cy="574" fill="#eaa" r="10"/><circle cx="421" cy="583" fill="#eaa" r="10"/><circle cx="508" cy="512" fill="#eaa" r="10"/><circle cx="430" cy="457" fill="#eaa" r="10"/><circle cx="426" cy="579" fill="#eaa" r="10"/><circle cx="88" cy="568" fill="#889" r="10"/><circle cx="142" cy="488" fill="#889" r="10"/><circle cx="101" cy="477" fill="#889" r="10"/><circle cx="101" cy="378" fill="#889" r="10"/><circle cx="120" cy="246" fill="#889" r="10"/><circle cx="123" cy="165" fill="#889" r="10"/><circle cx="1678" cy="307" fill="#eaa" r="10"/><circle cx="142" cy="86" fill="#889" r="10"/><circle cx="1681" cy="203" fill="#eaa" r="10"/><circle cx="1752" cy="179" fill="#eaa" r="10"/><circle cx="1666" cy="123" fill="#eaa" r="10"/><circle cx="1677" cy="301" fill="#eaa" r="10"/><circle cx="1552" cy="290" fill="#eaa" r="10"/><circle cx="1562" cy="274" fill="#eaa" r="10"/><circle cx="1590" cy="226" fill="#eaa" r="10"/><circle cx="1538" cy="186" fill="#eaa" r="10"/><circle cx="1496" cy="234" fill="#eaa" r="10"/><circle cx="1545" cy="296" fill="#eaa" r="10"/><circle cx="1477" cy="296" fill="#eaa" r="10"/><circle cx="1339" cy="290" fill="#eaa" r="10"/><circle cx="1415" cy="217" fill="#eaa" r="10"/><circle cx="1370" cy="167" fill="#eaa" r="10"/><circle cx="1304" cy="228" fill="#eaa" r="10"/><circle cx="1334" cy="291" fill="#eaa" r="10"/><circle cx="1284" cy="279" fill="#eaa" r="10"/><circle cx="1221" cy="276" fill="#eaa" r="10"/><circle cx="1225" cy="173" fill="#eaa" r="10"/><circle cx="1290" cy="141" fill="#eaa" r="10"/><circle cx="1205" cy="115" fill="#eaa" r="10"/><circle cx="1216" cy="285" fill="#eaa" r="10"/><circle cx="485" cy="-191" fill="#889" r="10"/><circle cx="833" cy="228" fill="#eaa" r="10"/><circle cx="705" cy="-191" fill="#889" r="10"/><circle cx="936" cy="50" fill="#eaa" r="10"/><circle cx="877" cy="-188" fill="#889" r="10"/><circle cx="938" cy="-180" fill="#889" r="10"/><circle cx="1020" cy="-175" fill="#889" r="10"/><circle cx="1155" cy="-153" fill="#889" r="10"/><circle cx="626" cy="107" fill="#8eb" r="10"/><circle cx="625" cy="94" fill="#8eb" r="10"/><circle cx="623" cy="69" fill="#8eb" r="10"/><circle cx="622" cy="45" fill="#8eb" r="10"/><circle cx="622" cy="24" fill="#8eb" r="10"/><circle cx="622" cy="24" fill="#8eb" r="10"/><circle cx="618" cy="-7" fill="#8eb" r="10"/><circle cx="618" cy="-7" fill="#8eb" r="10"/><circle cx="618" cy="-30" fill="#8eb" r="10"/><circle cx="617" cy="-45" fill="#8eb" r="10"/><circle cx="614" cy="-52" fill="#8eb" r="10"/><circle cx="600" cy="-59" fill="#8eb" r="10"/><circle cx="604" cy="-66" fill="#8eb" r="10"/><circle cx="808" cy="-158" fill="#889" r="10"/><circle cx="635" cy="-68" fill="#8eb" r="10"/><circle cx="673" cy="-65" fill="#8eb" r="10"/><circle cx="690" cy="-39" fill="#8eb" r="10"/><circle cx="680" cy="-27" fill="#8eb" r="10"/><circle cx="677" cy="-20" fill="#8eb" r="10"/><circle cx="677" cy="-4" fill="#8eb" r="10"/><circle cx="679" cy="15" fill="#8eb" r="10"/><circle cx="679" cy="30" fill="#8eb" r="10"/><circle cx="679" cy="43" fill="#8eb" r="10"/><circle cx="679" cy="55" fill="#8eb" r="10"/><circle cx="679" cy="79" fill="#8eb" r="10"/><circle cx="679" cy="79" fill="#8eb" r="10"/><circle cx="677" cy="124" fill="#8eb" r="10"/><circle cx="694" cy="118" fill="#8eb" r="10"/><circle cx="713" cy="132" fill="#8eb" r="10"/><circle cx="713" cy="150" fill="#8eb" r="10"/><circle cx="709" cy="169" fill="#8eb" r="10"/><circle cx="696" cy="176" fill="#8eb" r="10"/><circle cx="676" cy="176" fill="#8eb" r="10"/><circle cx="661" cy="176" fill="#8eb" r="10"/><circle cx="642" cy="179" fill="#8eb" r="10"/><circle cx="616" cy="179" fill="#8eb" r="10"/><circle cx="603" cy="179" fill="#8eb" r="10"/><circle cx="581" cy="177" fill="#8eb" r="10"/><circle cx="568" cy="168" fill="#8eb" r="10"/><circle cx="570" cy="134" fill="#8eb" r="10"/><circle cx="593" cy="125" fill="#8eb" r="10"/><circle cx="626" cy="128" fill="#8eb" r="10"/><circle cx="381" cy="366" fill="#8eb" r="10"/><circle cx="384" cy="353" fill="#8eb" r="10"/><circle cx="384" cy="341" fill="#8eb" r="10"/><circle cx="385" cy="319" fill="#8eb" r="10"/><circle cx="385" cy="319" fill="#8eb" r="10"/><circle cx="385" cy="303" fill="#8eb" r="10"/><circle cx="387" cy="288" fill="#8eb" r="10"/><circle cx="386" cy="275" fill="#8eb" r="10"/><circle cx="626" cy="107" fill="#8eb" r="10"/><circle cx="625" cy="94" fill="#8eb" r="10"/><circle cx="623" cy="69" fill="#8eb" r="10"/><circle cx="622" cy="45" fill="#8eb" r="10"/><circle cx="622" cy="24" fill="#8eb" r="10"/><circle cx="622" cy="24" fill="#8eb" r="10"/><circle cx="618" cy="-7" fill="#8eb" r="10"/><circle cx="618" cy="-7" fill="#8eb" r="10"/><circle cx="618" cy="-30" fill="#8eb" r="10"/><circle cx="617" cy="-45" fill="#8eb" r="10"/><circle cx="614" cy="-52" fill="#8eb" r="10"/><circle cx="600" cy="-59" fill="#8eb" r="10"/><circle cx="604" cy="-66" fill="#8eb" r="10"/><circle cx="635" cy="-68" fill="#8eb" r="10"/><circle cx="808" cy="-158" fill="#889" r="10"/><circle cx="673" cy="-65" fill="#8eb" r="10"/><circle cx="690" cy="-39" fill="#8eb" r="10"/><circle cx="680" cy="-27" fill="#8eb" r="10"/><circle cx="677" cy="-20" fill="#8eb" r="10"/><circle cx="677" cy="-4" fill="#8eb" r="10"/><circle cx="679" cy="15" fill="#8eb" r="10"/><circle cx="679" cy="30" fill="#8eb" r="10"/><circle cx="679" cy="43" fill="#8eb" r="10"/><circle cx="679" cy="55" fill="#8eb" r="10"/><circle cx="679" cy="79" fill="#8eb" r="10"/><circle cx="679" cy="79" fill="#8eb" r="10"/><circle cx="677" cy="124" fill="#8eb" r="10"/><circle cx="694" cy="118" fill="#8eb" r="10"/><circle cx="713" cy="132" fill="#8eb" r="10"/><circle cx="713" cy="150" fill="#8eb" r="10"/><circle cx="709" cy="169" fill="#8eb" r="10"/><circle cx="696" cy="176" fill="#8eb" r="10"/><circle cx="676" cy="176" fill="#8eb" r="10"/><circle cx="661" cy="176" fill="#8eb" r="10"/><circle cx="642" cy="179" fill="#8eb" r="10"/><circle cx="616" cy="179" fill="#8eb" r="10"/><circle cx="603" cy="179" fill="#8eb" r="10"/><circle cx="581" cy="177" fill="#8eb" r="10"/><circle cx="568" cy="168" fill="#8eb" r="10"/><circle cx="570" cy="134" fill="#8eb" r="10"/><circle cx="593" cy="125" fill="#8eb" r="10"/><circle cx="626" cy="128" fill="#8eb" r="10"/><circle cx="381" cy="366" fill="#8eb" r="10"/><circle cx="384" cy="353" fill="#8eb" r="10"/><circle cx="384" cy="341" fill="#8eb" r="10"/><circle cx="385" cy="319" fill="#8eb" r="10"/><circle cx="385" cy="319" fill="#8eb" r="10"/><circle cx="385" cy="303" fill="#8eb" r="10"/><circle cx="387" cy="288" fill="#8eb" r="10"/><circle cx="386" cy="275" fill="#8eb" r="10"/><circle cx="381" cy="262" fill="#8eb" r="10"/><circle cx="387" cy="255" fill="#8eb" r="10"/><circle cx="414" cy="251" fill="#8eb" r="10"/><circle cx="440" cy="254" fill="#8eb" r="10"/><circle cx="439" cy="272" fill="#8eb" r="10"/><circle cx="435" cy="278" fill="#8eb" r="10"/><circle cx="435" cy="295" fill="#8eb" r="10"/><circle cx="436" cy="317" fill="#8eb" r="10"/><circle cx="436" cy="342" fill="#8eb" r="10"/><circle cx="431" cy="363" fill="#8eb" r="10"/><circle cx="432" cy="377" fill="#8eb" r="10"/><circle cx="447" cy="384" fill="#8eb" r="10"/><circle cx="447" cy="400" fill="#8eb" r="10"/><circle cx="422" cy="413" fill="#8eb" r="10"/><circle cx="397" cy="413" fill="#8eb" r="10"/><circle cx="375" cy="413" fill="#8eb" r="10"/><circle cx="351" cy="410" fill="#8eb" r="10"/><circle cx="351" cy="390" fill="#8eb" r="10"/><circle cx="376" cy="378" fill="#8eb" r="10"/><circle cx="197" cy="-112" fill="#889" r="10"/><circle cx="1476" cy="371" fill="#8eb" r="10"/><circle cx="1466" cy="403" fill="#8eb" r="10"/><circle cx="1461" cy="425" fill="#8eb" r="10"/><circle cx="1453" cy="459" fill="#8eb" r="10"/><circle cx="1445" cy="489" fill="#8eb" r="10"/><circle cx="1448" cy="513" fill="#8eb" r="10"/><circle cx="1494" cy="519" fill="#8eb" r="10"/><circle cx="1484" cy="553" fill="#8eb" r="10"/><circle cx="1430" cy="556" fill="#8eb" r="10"/><circle cx="1391" cy="559" fill="#8eb" r="10"/><circle cx="1391" cy="559" fill="#8eb" r="10"/><circle cx="1363" cy="554" fill="#8eb" r="10"/><circle cx="1336" cy="554" fill="#8eb" r="10"/><circle cx="1321" cy="550" fill="#8eb" r="10"/><circle cx="1326" cy="530" fill="#8eb" r="10"/><circle cx="1360" cy="514" fill="#8eb" r="10"/><circle cx="1381" cy="508" fill="#8eb" r="10"/><circle cx="1466" cy="328" fill="#8eb" r="10"/><circle cx="1454" cy="330" fill="#8eb" r="10"/><circle cx="1447" cy="348" fill="#8eb" r="10"/><circle cx="1459" cy="355" fill="#8eb" r="10"/><circle cx="1476" cy="355" fill="#8eb" r="10"/><circle cx="1489" cy="346" fill="#8eb" r="10"/><circle cx="1493" cy="328" fill="#8eb" r="10"/><circle cx="1494" cy="308" fill="#8eb" r="10"/><circle cx="1470" cy="304" fill="#8eb" r="10"/><circle cx="1439" cy="311" fill="#8eb" r="10"/><circle cx="1419" cy="341" fill="#8eb" r="10"/><circle cx="1440" cy="374" fill="#8eb" r="10"/><circle cx="1497" cy="376" fill="#8eb" r="10"/><circle cx="1542" cy="343" fill="#8eb" r="10"/><circle cx="1546" cy="283" fill="#8eb" r="10"/><circle cx="1512" cy="243" fill="#8eb" r="10"/><circle cx="1374" cy="-171" fill="#889" r="10"/><circle cx="1482" cy="204" fill="#8eb" r="10"/><circle cx="1374" cy="-171" fill="#889" r="10"/><circle cx="1374" cy="-171" fill="#889" r="10"/><circle cx="1374" cy="-171" fill="#889" r="10"/><circle cx="1374" cy="-171" fill="#889" r="10"/><circle cx="1389" cy="161" fill="#8eb" r="10"/><circle cx="1374" cy="-171" fill="#889" r="10"/><circle cx="1374" cy="-171" fill="#889" r="10"/><circle cx="1374" cy="-171" fill="#889" r="10"/><circle cx="1365" cy="-9" fill="#8eb" r="10"/><circle cx="1374" cy="-171" fill="#889" r="10"/><circle cx="1374" cy="-171" fill="#889" r="10"/><circle cx="1374" cy="-171" fill="#889" r="10"/><circle cx="1374" cy="-171" fill="#889" r="10"/><circle cx="1374" cy="-171" fill="#889" r="10"/><circle cx="1374" cy="-171" fill="#889" r="10"/><circle cx="1374" cy="-171" fill="#889" r="10"/><circle cx="1333" cy="-54" fill="#8eb" r="10"/><circle cx="1374" cy="-171" fill="#889" r="10"/><circle cx="1374" cy="-171" fill="#889" r="10"/><circle cx="1374" cy="-171" fill="#889" r="10"/><circle cx="1435" cy="12" fill="#8eb" r="10"/><circle cx="1455" cy="76" fill="#8eb" r="10"/><circle cx="231" cy="342" fill="#889" r="10"/><circle cx="231" cy="342" fill="#889" r="10"/><circle cx="231" cy="342" fill="#889" r="10"/><circle cx="231" cy="342" fill="#889" r="10"/><circle cx="231" cy="342" fill="#889" r="10"/><circle cx="231" cy="342" fill="#889" r="10"/><circle cx="231" cy="342" fill="#889" r="10"/><circle cx="231" cy="342" fill="#889" r="10"/><circle cx="231" cy="342" fill="#889" r="10"/><circle cx="231" cy="342" fill="#889" r="10"/><circle cx="468" cy="495" fill="#8eb" r="10"/><circle cx="231" cy="342" fill="#889" r="10"/><circle cx="231" cy="342" fill="#889" r="10"/><circle cx="510" cy="501" fill="#8eb" r="10"/><circle cx="231" cy="342" fill="#889" r="10"/><circle cx="231" cy="342" fill="#889" r="10"/><circle cx="231" cy="342" fill="#889" r="10"/><circle cx="231" cy="342" fill="#889" r="10"/><circle cx="485" cy="555" fill="#8eb" r="10"/><circle cx="231" cy="342" fill="#889" r="10"/><circle cx="231" cy="342" fill="#889" r="10"/><circle cx="231" cy="342" fill="#889" r="10"/><circle cx="231" cy="342" fill="#889" r="10"/><circle cx="433" cy="561" fill="#8eb" r="10"/><circle cx="231" cy="342" fill="#889" r="10"/><circle cx="231" cy="342" fill="#889" r="10"/><circle cx="231" cy="342" fill="#889" r="10"/><circle cx="231" cy="342" fill="#889" r="10"/><circle cx="392" cy="548" fill="#8eb" r="10"/><circle cx="231" cy="342" fill="#889" r="10"/><circle cx="231" cy="342" fill="#889" r="10"/><circle cx="231" cy="342" fill="#889" r="10"/><circle cx="392" cy="494" fill="#8eb" r="10"/><circle cx="398" cy="451" fill="#8eb" r="10"/><circle cx="443" cy="419" fill="#8eb" r="10"/><circle cx="1346" cy="499" fill="#889" r="10"/><circle cx="1346" cy="499" fill="#889" r="10"/><circle cx="1346" cy="499" fill="#889" r="10"/><circle cx="1346" cy="499" fill="#889" r="10"/><circle cx="1346" cy="499" fill="#889" r="10"/><circle cx="1346" cy="499" fill="#889" r="10"/><circle cx="1346" cy="499" fill="#889" r="10"/><circle cx="1346" cy="499" fill="#889" r="10"/><circle cx="1346" cy="499" fill="#889" r="10"/><circle cx="1346" cy="499" fill="#889" r="10"/><circle cx="547" cy="213" fill="#8eb" r="10"/><circle cx="547" cy="213" fill="#8eb" r="10"/><circle cx="1346" cy="499" fill="#889" r="10"/><circle cx="1346" cy="499" fill="#889" r="10"/><circle cx="1346" cy="499" fill="#889" r="10"/><circle cx="533" cy="237" fill="#8eb" r="10"/><circle cx="1346" cy="499" fill="#889" r="10"/><circle cx="533" cy="237" fill="#8eb" r="10"/><circle cx="1346" cy="499" fill="#889" r="10"/><circle cx="533" cy="237" fill="#8eb" r="10"/><circle cx="1346" cy="499" fill="#889" r="10"/><circle cx="1346" cy="499" fill="#889" r="10"/><circle cx="1346" cy="499" fill="#889" r="10"/><circle cx="520" cy="258" fill="#8eb" r="10"/><circle cx="1346" cy="499" fill="#889" r="10"/><circle cx="520" cy="258" fill="#8eb" r="10"/><circle cx="1346" cy="499" fill="#889" r="10"/><circle cx="520" cy="258" fill="#8eb" r="10"/><circle cx="1346" cy="499" fill="#889" r="10"/><circle cx="520" cy="258" fill="#8eb" r="10"/><circle cx="1346" cy="499" fill="#889" r="10"/><circle cx="520" cy="258" fill="#8eb" r="10"/><circle cx="1346" cy="499" fill="#889" r="10"/><circle cx="520" cy="258" fill="#8eb" r="10"/><circle cx="1346" cy="499" fill="#889" r="10"/><circle cx="1346" cy="499" fill="#889" r="10"/><circle cx="1346" cy="499" fill="#889" r="10"/><circle cx="501" cy="286" fill="#8eb" r="10"/><circle cx="501" cy="286" fill="#8eb" r="10"/><circle cx="1346" cy="499" fill="#889" r="10"/><circle cx="501" cy="286" fill="#8eb" r="10"/><circle cx="1346" cy="499" fill="#889" r="10"/><circle cx="501" cy="286" fill="#8eb" r="10"/><circle cx="1346" cy="499" fill="#889" r="10"/><circle cx="501" cy="286" fill="#8eb" r="10"/><circle cx="1346" cy="499" fill="#889" r="10"/><circle cx="501" cy="286" fill="#8eb" r="10"/><circle cx="1346" cy="499" fill="#889" r="10"/><circle cx="1346" cy="499" fill="#889" r="10"/><circle cx="1346" cy="499" fill="#889" r="10"/><circle cx="561" cy="284" fill="#8eb" r="10"/><circle cx="1346" cy="499" fill="#889" r="10"/><circle cx="561" cy="284" fill="#8eb" r="10"/><circle cx="1346" cy="499" fill="#889" r="10"/><circle cx="561" cy="284" fill="#8eb" r="10"/><circle cx="561" cy="284" fill="#8eb" r="10"/><circle cx="1346" cy="499" fill="#889" r="10"/><circle cx="561" cy="284" fill="#8eb" r="10"/><circle cx="1346" cy="499" fill="#889" r="10"/><circle cx="561" cy="284" fill="#8eb" r="10"/><circle cx="1346" cy="499" fill="#889" r="10"/><circle cx="561" cy="284" fill="#8eb" r="10"/><circle cx="1346" cy="499" fill="#889" r="10"/><circle cx="561" cy="284" fill="#8eb" r="10"/><circle cx="1346" cy="499" fill="#889" r="10"/><circle cx="1346" cy="499" fill="#889" r="10"/><circle cx="1346" cy="499" fill="#889" r="10"/><circle cx="506" cy="387" fill="#8eb" r="10"/><circle cx="1346" cy="499" fill="#889" r="10"/><circle cx="506" cy="387" fill="#8eb" r="10"/><circle cx="1346" cy="499" fill="#889" r="10"/><circle cx="506" cy="387" fill="#8eb" r="10"/><circle cx="1346" cy="499" fill="#889" r="10"/><circle cx="1346" cy="499" fill="#889" r="10"/><circle cx="1346" cy="499" fill="#889" r="10"/><circle cx="1346" cy="499" fill="#889" r="10"/><circle cx="697" cy="403" fill="#8eb" r="10"/><circle cx="1346" cy="499" fill="#889" r="10"/><circle cx="1346" cy="499" fill="#889" r="10"/><circle cx="1346" cy="499" fill="#889" r="10"/><circle cx="1346" cy="499" fill="#889" r="10"/><circle cx="832" cy="392" fill="#8eb" r="10"/><circle cx="1346" cy="499" fill="#889" r="10"/><circle cx="1346" cy="499" fill="#889" r="10"/><circle cx="983" cy="341" fill="#8eb" r="10"/><circle cx="1078" cy="273" fill="#8eb" r="10"/><circle cx="1346" cy="499" fill="#889" r="10"/><circle cx="1138" cy="-38" fill="#889" r="10"/><circle cx="1173" cy="-2" fill="#889" r="10"/><circle cx="909" cy="139" fill="#8eb" r="10"/><circle cx="1193" cy="7" fill="#889" r="10"/><circle cx="966" cy="133" fill="#8eb" r="10"/><circle cx="1226" cy="34" fill="#889" r="10"/><circle cx="967" cy="189" fill="#8eb" r="10"/><circle cx="1281" cy="70" fill="#889" r="10"/><circle cx="958" cy="241" fill="#8eb" r="10"/><circle cx="1292" cy="99" fill="#889" r="10"/><circle cx="885" cy="247" fill="#8eb" r="10"/><circle cx="1302" cy="140" fill="#889" r="10"/><circle cx="839" cy="246" fill="#8eb" r="10"/><circle cx="1302" cy="205" fill="#889" r="10"/><circle cx="801" cy="201" fill="#8eb" r="10"/><circle cx="1340" cy="280" fill="#889" r="10"/><circle cx="783" cy="151" fill="#8eb" r="10"/><circle cx="1349" cy="411" fill="#889" r="10"/><circle cx="824" cy="83" fill="#8eb" r="10"/><circle cx="863" cy="33" fill="#8eb" r="10"/><circle cx="1252" cy="145" fill="#889" r="10"/><circle cx="906" cy="-6" fill="#8eb" r="10"/><circle cx="1114" cy="32" fill="#889" r="10"/><circle cx="1161" cy="-136" fill="#889" r="10"/><circle cx="470" cy="156" fill="#889" r="10"/><circle cx="928" cy="-27" fill="#8eb" r="10"/><circle cx="366" cy="156" fill="#889" r="10"/><circle cx="362" cy="45" fill="#889" r="10"/><circle cx="1209" cy="566" fill="#889" r="10"/><circle cx="1213" cy="483" fill="#889" r="10"/><circle cx="1213" cy="483" fill="#889" r="10"/><circle cx="1268" cy="483" fill="#889" r="10"/><circle cx="1136" cy="483" fill="#889" r="10"/><circle cx="1064" cy="483" fill="#889" r="10"/><circle cx="998" cy="483" fill="#889" r="10"/><circle cx="991" cy="519" fill="#889" r="10"/><circle cx="1053" cy="519" fill="#889" r="10"/><circle cx="999" cy="519" fill="#889" r="10"/><circle cx="1004" cy="565" fill="#889" r="10"/><circle cx="1083" cy="566" fill="#889" r="10"/><circle cx="1001" cy="566" fill="#889" r="10"/><circle cx="1001" cy="484" fill="#889" r="10"/><circle cx="930" cy="485" fill="#889" r="10"/><circle cx="891" cy="480" fill="#889" r="10"/><circle cx="933" cy="485" fill="#889" r="10"/><circle cx="897" cy="516" fill="#889" r="10"/><circle cx="938" cy="538" fill="#889" r="10"/><circle cx="889" cy="560" fill="#889" r="10"/><circle cx="889" cy="482" fill="#889" r="10"/><circle cx="797" cy="561" fill="#889" r="10"/><circle cx="786" cy="548" fill="#889" r="10"/><circle cx="793" cy="474" fill="#889" r="10"/><circle cx="768" cy="557" fill="#889" r="10"/><circle cx="757" cy="557" fill="#889" r="10"/><circle cx="757" cy="487" fill="#889" r="10"/><circle cx="757" cy="476" fill="#889" r="10"/><circle cx="709" cy="472" fill="#889" r="10"/><circle cx="723" cy="501" fill="#889" r="10"/><circle cx="723" cy="539" fill="#889" r="10"/><circle cx="708" cy="548" fill="#889" r="10"/><circle cx="679" cy="543" fill="#889" r="10"/><circle cx="684" cy="501" fill="#889" r="10"/><circle cx="700" cy="480" fill="#889" r="10"/><circle cx="628" cy="506" fill="#889" r="10"/><circle cx="600" cy="536" fill="#889" r="10"/><circle cx="616" cy="516" fill="#889" r="10"/><circle cx="646" cy="484" fill="#889" r="10"/><circle cx="665" cy="460" fill="#889" r="10"/><circle cx="626" cy="497" fill="#889" r="10"/><circle cx="616" cy="484" fill="#889" r="10"/><circle cx="607" cy="473" fill="#889" r="10"/><circle cx="598" cy="462" fill="#889" r="10"/><circle cx="794" cy="-62" fill="#889" r="10"/><circle cx="483" cy="150" fill="#889" r="10"/><circle cx="470" cy="-109" fill="#889" r="10"/><circle cx="624" cy="-150" fill="#889" r="10"/><circle cx="759" cy="-11" fill="#889" r="10"/><circle cx="474" cy="95" fill="#889" r="10"/><circle cx="519" cy="-106" fill="#889" r="10"/><circle cx="694" cy="7" fill="#889" r="10"/><circle cx="694" cy="-83" fill="#889" r="10"/><circle cx="566" cy="29" fill="#889" r="10"/><circle cx="509" cy="-8" fill="#889" r="10"/><circle cx="614" cy="-101" fill="#889" r="10"/><circle cx="582" cy="-17" fill="#889" r="10"/><circle cx="920" cy="-60" fill="#889" r="10"/><circle cx="1192" cy="238" fill="#889" r="10"/><circle cx="946" cy="251" fill="#e8e" r="10"/><circle cx="930" cy="139" fill="#e8e" r="10"/><circle cx="683" cy="120" fill="#bae" r="10"/><circle cx="565" cy="244" fill="#bae" r="10"/><circle cx="681" cy="227" fill="#bae" r="10"/><circle cx="617" cy="192" fill="#bae" r="10"/><circle cx="677" cy="294" fill="#bae" r="10"/><circle cx="586" cy="287" fill="#bae" r="10"/><circle cx="684" cy="144" fill="#bae" r="10"/><circle cx="483" cy="546" fill="#eec" r="10"/><circle cx="483" cy="525" fill="#eec" r="10"/><circle cx="483" cy="508" fill="#eec" r="10"/><circle cx="506" cy="461" fill="#eec" r="10"/><circle cx="494" cy="479" fill="#eec" r="10"/><circle cx="484" cy="502" fill="#eec" r="10"/><circle cx="477" cy="510" fill="#eec" r="10"/><circle cx="459" cy="461" fill="#eec" r="10"/><circle cx="472" cy="490" fill="#eec" r="10"/><circle cx="472" cy="511" fill="#eec" r="10"/><circle cx="458" cy="511" fill="#eec" r="10"/><circle cx="436" cy="511" fill="#eec" r="10"/><circle cx="393" cy="512" fill="#eec" r="10"/><circle cx="414" cy="509" fill="#eec" r="10"/><circle cx="441" cy="513" fill="#eec" r="10"/><circle cx="448" cy="530" fill="#eec" r="10"/><circle cx="449" cy="547" fill="#eec" r="10"/><circle cx="446" cy="534" fill="#eec" r="10"/><circle cx="441" cy="508" fill="#eec" r="10"/><circle cx="433" cy="485" fill="#eec" r="10"/><circle cx="426" cy="456" fill="#eec" r="10"/><circle cx="412" cy="470" fill="#eec" r="10"/><circle cx="404" cy="487" fill="#eec" r="10"/><circle cx="395" cy="515" fill="#eec" r="10"/><circle cx="377" cy="543" fill="#eec" r="10"/><circle cx="333" cy="516" fill="#eec" r="10"/><circle cx="354" cy="516" fill="#eec" r="10"/><circle cx="349" cy="547" fill="#eec" r="10"/><circle cx="329" cy="553" fill="#eec" r="10"/><circle cx="305" cy="547" fill="#eec" r="10"/><circle cx="308" cy="513" fill="#eec" r="10"/><circle cx="316" cy="481" fill="#eec" r="10"/><circle cx="343" cy="451" fill="#eec" r="10"/><circle cx="294" cy="196" fill="#eec" r="10"/><circle cx="320" cy="286" fill="#eec" r="10"/><circle cx="1104" cy="144" fill="#eec" r="10"/><circle cx="1179" cy="59" fill="#eec" r="10"/><circle cx="1349" cy="68" fill="#eec" r="10"/><circle cx="1364" cy="-31" fill="#eec" r="10"/><circle cx="1405" cy="-30" fill="#eec" r="10"/><circle cx="1379" cy="64" fill="#eec" r="10"/><text fill="#ccc" font-family="Sans" font-size="20" x="10" y="30">This is Iota, a collaborative line-art doodling website</text><text fill="#ccc" font-family="Sans" font-size="20" x="10" y="60">Users online: 3</text></g></svg>