<svg height="350mm" viewBox="0 0 1240.1575 1240.1574" width="350mm" xmlns="http://www.w3.org/2000/svg"><g transform="translate(1287.8591 215.40477)"><path d="m-1113.0508-157.4668c-7.1266 1.59895-4.2014 10.71295-4.7145 15.72266.2102 83.490722-.4549 167.040567.3493 250.49414 2.6543 6.55087 15.2879 3.68921 12.9696-4.01172-.1356-86.25621.4756-172.571803-.3192-258.79101-1.0848-3.49337-5.3111-3.56472-8.2852-3.41407z"/><path d="m-942.16406-157.4668c-7.44726 1.80003-3.97111 11.46066-4.71388 16.72266.2092 83.159247-.45702 166.378369.3506 249.5 2.66696 6.55455 15.2831 3.68246 12.96758-4.01758-.13497-86.255813.46879-172.568992-.31524-258.78906-1.09104-3.50469-5.30594-3.55971-8.28906-3.41602z"/><path d="m-833.43359-157.59375c-6.27781.0156-8.91549 8.39459-4.58562 12.55244 42.89604 85.296981 84.94817 171.093162 128.3864 256.07061 5.30805 5.10197 15.14837-3.47824 9.89419-9.32783-43.10128-85.817501-85.52373-172.02247-129.06411-257.59014-1.16745-1.25281-2.94301-1.83332-4.63086-1.70508z"/><path d="m-662.55273-157.59375c-6.27444.0202-8.89583 8.3953-4.57976 12.55244 42.88777 85.293435 84.951 171.072792 128.36882 256.05498 4.98546 4.92045 14.7992-2.8101 10.18944-8.71666-43.15834-86.03398-85.72435-172.423035-129.34179-258.18568-1.16841-1.25389-2.94785-1.83334-4.63671-1.70508z"/><path d="m-1144.7617 397.88867c-7.1661.55403-6.9012 13.94108.8496 13.33594 11.3951.29997 22.8263-.33852 34.2537.0243 11.6635-.26857 23.7112 1.10138 35.0607-.99498 5.0202-3.94275 1.7518-14.39137-5.3242-12.29944-21.6126-.0941-43.2302.0314-64.8398-.0658z"/><path d="m-973.89453 397.88672c-7.12095.53291-6.90142 13.97897.8418 13.28906 10.89305.57501 21.82511-.41735 32.7832.041 12.14905-.3043 24.71569 1.23612 36.55273-.95703 5.01799-3.9354 1.77465-14.40501-5.31835-12.3053-21.61916-.0955-43.24336.0341-64.85938-.0677z"/><path d="m-803.00781 397.88867c-7.13156.55017-6.88887 13.97977.875 13.33594 12.96886.2063 26.33412-.2926 39.48619.0779 9.93356-.23628 20.21084.92567 29.83412-1.0584 5.00345-3.95548 1.72923-14.35594-5.33593-12.28967-21.61918-.0942-43.24321.0314-64.85938-.0658z"/><path d="m-632.15039 397.89258c-7.41586.7471-6.70039 14.5735 1.44531 13.45703 22.53816-.63909 45.57712.86303 68.06446-.67383 5.94198-3.26209 2.81286-14.96556-4.62109-12.72131-21.62903-.0916-43.26214.0262-64.88868-.0619z"/><path d="m-461.21875 397.88672c-7.1644.54215-6.90836 13.99269.88086 13.33984 12.22314.251 24.83379-.32009 37.23796.0504 10.67094-.2484 21.71421 1.0213 32.06868-1.03869 4.98339-3.94707 1.72245-14.36623-5.34374-12.28381-21.61396-.0955-43.23284.034-64.84376-.0677z"/><path d="m-321.45117 317.61914c-7.40281.31496-8.14766 12.89199-.51332 13.82715 38.13416 19.01693 76.267 38.03649 114.40199 57.05176-39.47311 20.21088-79.76702 39.02851-118.76172 60.04492-4.4459 5.16883 3.18225 14.48712 8.98751 9.96356 43.13331-21.84088 86.76418-42.82642 129.54374-65.28583 4.74242-4.54873.089-11.4088-5.38888-12.39919-42.45304-20.97902-84.48296-43.01426-127.24393-63.18674l-.46094-.0254-.56445.01z"/><path d="m-1113.0547 696.96484c-7.1222 1.59023-4.1721 10.70971-4.7106 15.72266.2115 83.49321-.4575 167.0465.3512 250.50195 2.6582 6.52782 15.2829 3.67487 12.9672-4.01953-.1411-86.25978.4754-172.57685-.3187-258.80078-1.1185-3.4831-5.3024-3.57372-8.2891-3.4043z"/><path d="m-942.16406 696.9668c-7.11615 1.58492-4.18917 10.70797-4.71449 15.7207.21403 83.49828-.46269 167.05771.35511 250.51758 2.69193 6.52037 15.27567 3.65468 12.96325-4.03516-.14345-86.26819.47989-172.59406-.32067-258.82617-1.13268-3.45896-5.31491-3.54639-8.2832-3.37695z"/><path d="m-705.98438 696.84766c-7.72207 2.0734-7.70832 11.74217-11.9817 17.30296-40.66629 81.81065-82.05524 163.3111-122.25267 245.32399-1.24075 6.88815 10.81153 10.82168 12.89613 3.43159 42.91141-86.15595 86.39624-172.06718 128.85582-258.42182.82606-4.17683-3.53172-7.96479-7.51758-7.63672z"/><path d="m-535.09766 696.84766c-7.73178 2.0899-7.70426 11.73348-11.9817 17.30296-40.66674 81.79999-82.03664 163.29712-122.24681 245.29469-1.29043 6.91032 10.80349 10.85395 12.89027 3.46089 42.91124-86.15948 86.40251-172.07197 128.85778-258.43159.81683-4.17485-3.53957-7.95466-7.51954-7.62695z"/><text font-family="sans-serif" font-size="341.772919" letter-spacing="0" word-spacing="0" x="1290.6189" y="-843.00067"><tspan font-family="monofur" x="1290.6189" y="-843.00067">||\\</tspan><tspan font-family="monofur" x="1290.6189" y="-415.78455">-----&gt;</tspan><tspan font-family="monofur" x="1290.6189" y="11.43162">||//</tspan></text></g></svg>