<svg height="494.4278" viewBox="0 0 494.8673 494.42779" width="494.86731" xmlns="http://www.w3.org/2000/svg"><g fill="#333" transform="translate(-1064.272 -241.90985)"><path d="m1163.9562 736.26077c-1.4463-1.44635-.582-5.09833 1.7181-7.25913 2.287-2.14851 19.2597-9.84388 35.7421-16.20534 8.7722-3.38566 19.8556-10.19801 19.8556-12.20413 0-.74871-1.1391-1.88028-2.5312-2.51459-3.1861-1.45168-17.484-3.11781-27.9688-3.25921-13.8678-.18701-16.6611-2.41317-8.5-6.77409 15.4069-8.23275 29.8996-18.61784 33.014-23.65705 4.8111-7.78458-.3009-13.1205-11.514-12.01832-15.4426 1.51791-27.7995 5.93021-32.2182 11.50422-2.6741 3.37327-1.0915 38.38693 2.2422 49.60658.7694 2.58923-1.8697 5.2649-3.1844 3.2287-1.7706-2.74207-3.2805-14.98876-3.9512-32.04856-.6523-16.5897-.8233-17.75-2.6165-17.75-2.614 0-1.9466-2.78983 1.2281-5.13402 1.375-1.01529 8.8-4.4002 16.5-7.52202 11.718-4.75084 15.2225-5.7405 21.5-6.07151 8.4414-.44511 12.8368 1.15257 16.3478 5.94222 1.7831 2.4325 1.8612 3.14425.7517 6.84762-1.7458 5.82684-7.8054 11.96331-21.0672 21.3344l-11.4676 8.10331 4.9676.24218c10.2808.50121 23.7383 2.34404 26.9659 3.69265 4.7538 1.98622 6.9172 5.55942 5.3923 8.90615-1.8693 4.1027-10.8449 9.6448-25.4404 15.70862-5.4726 2.27362-14.2117 5.90031-19.4202 8.0593-5.2086 2.15899-10.8632 5.27563-12.5658 6.92586-1.7026 1.65022-3.4035 2.6925-3.7799 2.31616z"/><path d="m1353.2885 720.4297c-1.5266-1.8394-1.7476-7.80222-.603-16.26985.7802-5.77203.6994-6.25-1.0571-6.25-3.6542 0-14.5974 7.48377-20.1062 13.75-5.3212 6.05287-8.2502 7.76649-8.2502 4.82673 0-5.00327 25.1881-24.51448 31.7148-24.56696 2.7792-.0224 3.2067 3.67273 1.8932 16.36566-.7205 6.96298-1.538 12.88787-1.8166 13.16643-.2785.27856-1.0773-.18135-1.7749-1.02201z"/><path d="m1527.825 717.40985c-3.0386-2.475-5.8575-4.5-6.2641-4.5-.4067 0-3.8062 1.20323-7.5546 2.67385-10.1079 3.96571-10.266 3.65616-7.7717-15.21666 1.0873-8.22646 2.3399-23.59411 2.7836-34.15035s1.1398-19.52624 1.5469-19.93333c.4071-.4071 1.2607-.21967 1.8969.4165 1.2673 1.2673-.2641 36.29219-2.3621 54.02297-.752 6.3556-.7767 9.63823-.078 10.33722 1.097 1.09701 9.9594-1.75593 22.3549-7.19635 7.8788-3.458 9.8949-3.6692 9.8949-1.03656 0 1.34796-1.3218 2.42207-4.4511 3.61716-2.448.93493-5.1965 2.52368-6.1078 3.53056-1.556 1.71943-1.4893 1.9858 1.0971 4.38284 1.5146 1.40368 3.5881 2.55215 4.6078 2.55215s1.854.42448 1.854.9433c0 .99154-3.9166 4.0567-5.1836 4.0567-.4062 0-3.2248-2.025-6.2634-4.5z"/><path d="m1427.9078 717.63654c-3.2893-3.28931-5.078-10.02739-3.9824-15.00253 1.2779-5.80339 2.7864-4.95854 3.3466 1.87435.5806 7.0822 2.1008 9.40149 6.1623 9.40149 4.6506 0 10.3857-3.54727 18.9242-11.7049 7.7983-7.45039 10.58-8.77747 7.8993-3.76851-2.3408 4.37378-14.6475 16.13121-19.1829 18.32679-7.3302 3.54848-10.2953 3.74514-13.1671.87331z"/><path d="m1297.7538 714.92109-3.9887-3.98875-7.4966 2.88133c-11.7046 4.49874-13.4981 4.68551-16.4686 1.71497-1.3904-1.39034-2.5279-3.07547-2.5279-3.74475 0-2.13378 8.5636-9.51346 14.2921-12.31612 6.6455-3.25136 11.0511-3.16357 11.5324.22983.2829 1.99476.001 2.20663-2.199 1.65439-2.9205-.733-9.6236 2.28333-15.093 6.7917-7.1379 5.88363-2.8026 6.95154 9.2789 2.28567 5.0123-1.93573 9.7835-3.51951 10.6028-3.51951 1.7107 0 7.5858 8.07813 7.5858 10.43018 0 2.42879-1.1937 1.90551-5.5182-2.41894z"/><path d="m1311.6692 715.35642c-.7501-2.98859.4119-13.20988 1.7966-15.80393 1.8873-3.53554 2.7409-.0978 2.129 8.57369-.4158 5.89135-1.0448 8.84675-1.9575 9.19699-.8295.3183-1.5837-.43543-1.9681-1.96675z"/><path d="m1230.6123 715.35442c-.7537-1.96403.1614-8.79092 1.8582-13.86307 2.1167-6.32726 5.3933-8.02436 16.2647-8.42423 9.3087-.34239 13.5394.63539 13.5343 3.12804 0 .8706-2.7931 1.21522-9.8512 1.21625-14.5526.002-18.1463 2.76443-18.1463 13.94878 0 4.31691-.3402 5.54966-1.5314 5.54966-.8423 0-1.8-.7-2.1283-1.55556z"/><path d="m1388.8458 709.81236c-4.6982-7.06544-4.7362-7.09459-8.3967-6.42912-2.0224.36767-5.8193 1.41887-8.4374 2.336-3.4966 1.22481-5.2064 1.38614-6.4405.60768-4.6083-2.90684-1.98-4.58886 10.3773-6.64111l7.6823-1.27583.1286-10c .1802-14.00846 2.954-22.07189 10.0253-29.14316 6.1646-6.16461 10.9003-7.79801 20.6152-7.11044 7.8275.55399 14.6854 3.87707 16.7074 8.0958 1.9468 4.06184.8367 4.29206-3.5803.74252-9.242-7.42711-23.7216-6.70193-31.4889 1.57705-6.0834 6.48416-10.7148 25.2027-7.9972 32.32189l.9481 2.48366 15.1471-.33001c13.5417-.29503 15.0821-.16082 14.5345 1.26634-.5037 1.31264-2.3672 1.59635-10.4854 1.59635-9.1859 0-17.9776 1.89708-17.8819 3.85858.017.35278 1.138 2.89142 2.4908 5.64142 4.889 9.93864 2.5513 10.17687-3.9483.40238z"/><path d="m1472.0054 715.8647c-11.5044-2.84163-12.5348-9.62518-2.3947-15.76465 6.2611-3.7908 11.1758-5.59035 13.1738-4.82364 2.5698.98611 1.6383 2.30427-2.8358 4.01295-6.5035 2.48371-12.6767 6.81536-12.6767 8.89509 0 2.29527 5.5521 4.73284 10.7179 4.70554 2.0801-.011 7.6071-.64399 12.2821-1.40664 4.675-.76266 8.7243-1.16687 8.9984-.89825 1.1318 1.10907-3.5283 3.21065-9.315 4.20075-10.716 1.83352-14.0769 2.03552-17.95 1.07885z"/><path d="m1314.3938 681.63171c-1.3828-1.38282-1.4511-3.40033-.1425-4.20909 1.5379-.95047 5.0091 1.35397 4.4061 2.92517-.7542 1.9654-2.9276 2.61989-4.2636 1.28392z"/></g><g fill="#06f" transform="translate(-1064.272 -241.90985)"><path d="m1335.5809 652.90568c-8.4975-6.24915-9.6638-15.97582-2.763-23.0429 4.3683-4.47354 19.2418-12.37274 22.046-11.70849 1.4246.33744.6411 1.03201-3.0919 2.74098-2.75 1.25895-7.9835 4.20822-11.6299 6.55394-5.5833 3.59164-6.9152 5.01179-8.4367 8.99579-1.7586 4.60481-1.7551 4.82506.1299 8.26683 3.5312 6.44736 6.3621 7.71404 16.9364 7.57827 5.1294-.0659 10.5345-.42299 12.0111-.79362 1.8741-.47035 2.5643-.31192 2.2854.52462-.6457 1.93734-8.749 3.85721-16.3492 3.87357-6.2782.0135-7.5018-.31485-11.1381-2.98899z"/><path d="m1369.272 649.53229c0-3.35827-.2188-3.62244-3-3.62244-3.976 0-3.8335-1.72683.2292-2.7796 2.4615-.63784 3.4469-1.59565 4.1447-4.02859 1.213-4.22944 2.6261-4.0636 2.6261.30819 0 3.3219.1751 3.5 3.441 3.5 3.7379 0 5.5038 1.42344 2.9715 2.39522-.8669.33263-2.8893.60478-4.4943.60478-2.406 0-2.9182.4173-2.9182 2.37756 0 1.30765-.675 2.93775-1.5 3.62244-1.2864 1.0676-1.5.72901-1.5-2.37756z"/><path d="m1389.272 649.53229c0-3.35827-.2188-3.62244-3-3.62244-3.976 0-3.8335-1.72683.2292-2.7796 2.4615-.63784 3.4469-1.59565 4.1447-4.02859 1.213-4.22944 2.6261-4.0636 2.6261.30819 0 3.3219.1751 3.5 3.441 3.5 3.7379 0 5.5038 1.42344 2.9715 2.39522-.8669.33263-2.8893.60478-4.4943.60478-2.406 0-2.9182.4173-2.9182 2.37756 0 1.30765-.675 2.93775-1.5 3.62244-1.2864 1.0676-1.5.72901-1.5-2.37756z"/></g><g fill="#ab37c8" transform="translate(-1064.272 -241.90985)"><path d="m1411.9678 621.12619c-1.6361-1.80783-1.4723-5.34921.9066-19.60622.5039-3.0201.2855-4.09332-.9767-4.79969-3.5556-1.98984-.6608-3.7709 6.8743-4.2294 2.2-.13387 7.375-.58732 11.5-1.00766l7.5-.76427-.3121 16.34545c-.2847 14.90627-.4468 16.16935-1.8407 14.34545-1.2793-1.67394-1.4181-4.17782-.8516-15.35819l.6768-13.3582-6.1167.70992c-3.3642.39045-7.511.80645-9.2152.92444-3.7056.25654-5.8405 2.83576-5.8405 7.05585v3.09156l7-.39554c4.7102-.26615 7-.0315 7 .71731 0 .64661-1.8228 1.11285-4.3508 1.11285-2.3929 0-5.708.47313-7.3668 1.05139-2.6965.94001-3.0809 1.59905-3.6283 6.22095-.3414 2.88274-.1858 5.596.3518 6.13358.5302.53021 4.7958.85841 9.4791.72934 5.4279-.1496 8.515.14589 8.515.81503 0 .57734-1.2375 1.06745-2.75 1.08912-1.5125.0217-5.4916.24801-8.8424.50296-4.9731.37839-6.3898.13479-7.7118-1.32603z"/><path d="m1442.272 619.63553c0-1.9842.4787-3.9035 1.0638-4.2651.7243-.44766.8415.57054.3673 3.19099-.9241 5.10659-1.4311 5.48711-1.4311 1.07411z"/><path d="m1448.8361 622.0136c-.8775-1.4198.9283-4.6348 3.6895-6.56884l2.2382-1.56766-2.9959-2.39399c-3.831-3.0613-2.601-4.49634 1.4074-1.64209l3.0185 2.14936 4.1581-2.12129c2.5168-1.28401 4.5195-1.75985 5.0737-1.20558.5543.55428-.7754 1.59562-3.3689 2.6383l-4.2847 1.72259 4.5 3.94002c5.1089 4.47315 3.9351 5.2544-1.9967 1.32894-4.5447-3.00758-6.2381-2.69015-8.8872 1.66599-1.0936 1.7983-2.1731 2.66726-2.552 2.05425z"/><path d="m1470.272 619.63553c0-1.9842.4787-3.9035 1.0638-4.2651.7243-.44766.8415.57054.3673 3.19099-.9241 5.10659-1.4311 5.48711-1.4311 1.07411z"/><path d="m1476.574 618.69494c.3125-2.32974 1.3514-4.78969 2.3228-5.5 2.0751-1.5174 9.9854-1.72476 10.8752-.28509.3738.60493-1.0115 1-3.5067 1-5.9828 0-7.9933 1.39222-7.9933 5.53518 0 1.91197-.5072 3.46482-1.1317 3.46482-.7526 0-.9423-1.41166-.5663-4.21491z"/></g><path d="m320.48596 392.82415c-.5264-1.37167 1.5972-7.81861 7.4764-22.69757 1.9605-4.96149 1.9858-5.31808.3304-4.65147-.986.39708-3.4191.95365-5.4067 1.23683-2.9835.42507-3.8992.10745-5.25-1.82104-1.6866-2.40794-2.2118-5.89575-.8861-5.88458.4125.003 1.5166 1.35348 2.4535 3 2.0754 3.64729 4.1981 3.76431 9.0071.49653 2.0212-1.37343 3.8976-2.1367 4.1699-1.69616.7528 1.218-1.1963 8.9119-3.3045 13.04425-1.0306 2.0203-2.8778 7.04282-4.1047 11.16116-2.4332 8.16705-3.5816 10.16718-4.4853 7.81205z" fill="#d40000"/><path d="m227.42786 369.66583c-1.2921-3.35445 3.6694-28.66583 5.6191-28.66583 1.3069 0 1.2044 1.04126-.6027 6.12427-.8557 2.40665-1.8156 8.20073-2.1333 12.87573-.6333 9.32068-1.6731 12.80685-2.8831 9.66583z" fill="#d40000"/><path d="m266.07396 369.58923c-1.7023-2.05117-2.5097-8.20191-1.1842-9.02112.7294-.45082 1.1102.46587 1.1102 2.67287 0 7.51482 4.2707 7.55008 12.0816.0998 3.2633-3.1126 6.1603-5.43215 6.4379-5.15456.2776.2776-1.3523 2.61436-3.6219 5.19281-6.1294 6.96335-12.1168 9.47173-14.8236 6.21025z" fill="#d40000"/><path d="m287.77026 331.9988c-1.1396.002-4.9956-8.11331-4.2032-8.84571.3887-.3592.9056-.0966 1.1487.58353.243.68014 1.1939 2.1558 2.1131 3.27924 1.6585 2.02728 1.7076 2.01237 6.53-1.98662 6.6755-5.53569 8.043-5.09522 1.7492.56343l-5.1081 4.59267m0 0v14.53817 14.53817l3.75-.64066c10.782-1.84203 15.1742-1.90071 17.7139-.23665 1.3948.91396 2.5361 2.31998 2.5361 3.12449 0 2.99824-7.1973 6.36298-17 7.9475-11.455 1.85161-11.7167 1.86035-10.1971.34069.6617-.66162 4.5323-1.52096 8.6016-1.90965 8.1089-.77456 17.0238-4.10241 16.3561-6.10556-.8807-2.64201-6.574-3.16255-14.9362-1.3656-5.4921 1.18019-8.3997 1.40848-9.0941.71403-.6833-.68326-.7248-5.66902-.1256-15.07675.4924-7.73075.5669-14.05537.1656-14.05472" fill="#d40000"/><path d="m247.49996 364.7925c-6.6-1.64531-12.5625-3.45181-13.25-4.01443-2.3541-1.92654-1.2487-3.70132 3-4.81656 5.5551-1.45816 10.9595-5.21333 14.1697-9.84559 5.2377-7.55814 2.352-11.58908-7.8323-10.94059-5.5598.35402-7.0994.90139-10.7206 3.81148-2.8284 2.27293-4.0031 2.81061-3.5477 1.62385.3745-.97583.6809-1.98313.6809-2.23845s2.3625-1.56412 5.25-2.90845c6.7486-3.14191 14.8483-3.36546 17.7245-.4892 2.8431 2.84309 3.4319 6.33889 1.6484 9.78769-2.2086 4.2711-11.0128 11.86572-14.5832 12.57981-3.2408.64815-4.22 2.66181-1.2897 2.6522 2.974-.01 23.25 6.21287 23.25 7.13533 0 1.201-.8696 1.06085-14.5-2.33709z" fill="#d40000"/><g fill="#6d2334" transform="translate(-1064.272 -241.90985)"><path d="m1170.9149 583.64372c-3.3838-3.38386-5.105-10.061-4.0064-15.54288 1.1438-5.70783 2.798-5.80885 3.1272-.19099.3684 6.2866.9961 8.61693 2.8092 10.43007 4.0389 4.03887 11.6655.65609 23.7212-10.52151 8.669-8.03752 10.5171-9.03992 9.2383-5.0107-1.098 3.45935-15.7337 17.56951-20.7006 19.95722-7.5055 3.60808-11.2289 3.8387-14.1889.87879z"/><path d="m1095.818 579.1435c-1.217-10.79365 7.1586-52.23365 10.5572-52.23365 2.0657 0 1.9389 3.14293-.4299 10.65926-2.646 8.39607-4.659 22.08725-4.6815 31.84074-.02 8.68288-1.0137 13.44135-3.0326 14.52181-1.5659.83804-1.8401.29389-2.4132-4.78816z"/><path d="m1209.772 583.90985c-1.4206-2.29863 3.2767-5.26917 11.107-7.02398 9.7087-2.17576 9.1976-4.3205-2.003-8.40559-18.6933-6.81783-13.0006-15.54483 7.3216-11.224 8.5639 1.82082 7.6369 3.52055-2.1061 3.86201l-8.3195.29156 7 3.31653c8.2669 3.91676 11.5 6.6817 11.5 9.83473 0 1.28849-.991 2.94591-2.25 3.76321-2.7419 1.77985-15.8005 5.44289-17.4084 4.88318-.6371-.22177-1.4511.0705-1.809.64956-.8211 1.32864-2.229 1.35314-3.0326.0528z"/><path d="m1259.5911 581.67616c-.4505-.69647-.7452-5.87881-.655-11.51631.1158-7.22707-.1791-10.24829-1-10.24421-4.5752.0228-13.3606 2.23516-14.3765 3.6204-1.1272 1.53707-1.3905 1.5364-3.75-.01-4.9127-3.21895-2.8733-4.61051 9.7389-6.64508 4.243-.68446 8.399-1.74557 9.2357-2.358 1.0463-.76592 1.9778-4.85958 2.984-13.11353 2.111-17.3173 3.6532-25.37915 5.082-26.56494 2.379-1.9744 2.5266 2.61853.454 14.12892-1.1177 6.20761-2.0322 14.13252-2.0322 17.61133v6.32511h8c6.0851 0 8 .32609 8 1.36232 0 .90193-1.8111 1.57517-5.3592 1.99218-2.9475.34643-6.9323 1.28718-8.8551 2.09057-3.2183 1.3447-3.5465 1.88139-4.1322 6.75782-.3499 2.91341-.64 7.85805-.6448 10.98809-.01 5.66488-1.1292 7.98768-2.6896 5.57533z"/></g><path d="m83.99996 332.9953c-6.325-1.60604-17.0608-4.06575-23.8574-5.46603-13.4368-2.76836-18.4698-5.25106-17.9481-8.85343.3651-2.52053 2.9753-3.92102 12.3055-6.60245 7.9142-2.27449 14.8533-7.36105 22.1098-16.20724 8.5109-10.37546 6.5974-19.81277-4.3502-21.45446-12.3213-1.84771-25.5326 1.80922-32.2448 8.92548-1.9002 2.01455-3.8059 3.66283-4.2349 3.66283-1.3554 0-.8453-3.4617.8713-5.91243 3.4513-4.92741 27.0456-13.27073 32.5701-11.51732 1.9956.63336 1.997.60745.1473-2.57673-2.3523-4.0491-3.6492-4.54987-8.1813-3.15894-2.4649.75651-3.9643.78844-4.6536.0991-1.3416-1.34163.6436-2.54655 5.4665-3.31775l3.7243-.59555.5087-6.33713c.9406-11.71801 5.8462-17.67196 14.5664-17.67954 4.8776-.004 10.2004 2.33781 10.2004 4.48821 0 1.13167-.7603.99201-3.5454-.65125-9.2266-5.44383-19.4226 2.60344-19.449 15.35028-.01 3.68277 1.1407 4.14134 9.7419 3.89019 5.081-.14835 7.2446.1225 6.7947.85058-.3632.58754-3.0227 1.06825-5.9101 1.06825s-6.0637.59512-7.0585 1.32249c-1.6728 1.22324-1.6922 1.54756-.2576 4.32179 1.0817 2.09178 2.7824 3.36825 5.6208 4.21863 3.3422 1.00137 4.6037 2.1504 7.0571 6.42821 1.643 2.86488 2.9871 6.10888 2.9869 7.20888 0 9.75334-19.306 28.98316-31.9635 31.84044-2.8252.63776-5.2224 1.60956-5.327 2.15956-.1047.55 4.0847 2.01828 9.3097 3.26284 16.9114 4.0282 41.0646 11.54283 40.6968 12.66178-.6144 1.86918-3.8761 1.57218-15.6968-1.42932z" fill="#6d2334"/><g fill="#fc0" transform="translate(-1064.272 -241.90985)"><path d="m1443.272 605.90985c0-.55.45-1 1-1s1 .45 1 1-.45 1-1 1-1-.45-1-1z"/><path d="m1471.272 605.90985c0-.55.45-1 1-1s1 .45 1 1-.45 1-1 1-1-.45-1-1z"/><path d="m1440.2876 585.15985c.025-2.84693 2.5118-12.58895 3.7647-14.75061 1.5899-2.74308 1.4829-.93836-.2911 4.90954-.8191 2.69991-1.4892 6.41241-1.4892 8.25s-.45 3.34107-1 3.34107-.993-.7875-.9844-1.75z"/><path d="m1313.9293 571.51221c-6.139-2.57892-7.293-3.29999-6.5194-4.07359.2592-.25918 2.4069.48646 4.7727 1.65698 2.3659 1.17052 6.4423 2.33392 9.0588 2.58534 6.4779.62243 7.9744-1.52406 8.1877-11.7436.1441-6.90292.2063-7.11263.75-2.52749.6845 5.77241-.138 13.13084-1.6349 14.6278-2.2074 2.20735-8.6621 1.97529-14.6149-.52544z"/><path d="m1332.5723 572.24995c-1.0536-2.74545 7.7502-8.68539 9.2577-6.24622.308.49837-.1164.90612-.9432.90612-1.8451 0-7.6259 4.9242-5.8327 4.9684.7052.0174 2.8071-.60559 4.671-1.38438 3.0501-1.27438 3.5469-1.2415 4.9679.32874 2.192 2.42214 1.9858 3.7654-.2653 1.72818-1.677-1.51764-2.1729-1.5317-5.4679-.15499-4.6068 1.92485-5.6017 1.90213-6.3875-.14585z"/><path d="m1365.5723 572.24995c-1.0536-2.74545 7.7502-8.68539 9.2577-6.24622.308.49837-.1164.90612-.9432.90612-1.8451 0-7.6259 4.9242-5.8327 4.9684.7052.0174 2.8071-.60559 4.671-1.38438 3.0501-1.27438 3.5469-1.2415 4.9679.32874 2.192 2.42214 1.9858 3.7654-.2653 1.72818-1.677-1.51764-2.1729-1.5317-5.4679-.15499-4.6068 1.92485-5.6017 1.90213-6.3875-.14585z"/><path d="m1382.272 573.09019c0-1.1502 3.8728-2.7334 10.5-4.29233 6.0964-1.43409 8.7322-2.70323 8.0171-3.86027-.2963-.47955-3.4346-1.83556-6.9739-3.01335-6.4047-2.13135-11.5432-5.29717-11.5432-7.11172 0-2.17804 14.8582-5.64103 17.6058-4.10338 1.1731.65651.1415 1.07258-3.8113 1.53715-2.9809.35035-6.8686 1.14202-8.6392 1.75926-4.5293 1.57893-2.8077 3.18975 6.8447 6.4043 8.2083 2.73363 11.1036 4.79634 9.285 6.61496-.5666.5666-5.0806 2.0608-10.0311 3.32044-4.9506 1.25964-9.5079 2.60354-10.1275 2.98644-.6195.38291-1.1264.27423-1.1264-.2415z"/><path d="m1408.022 572.82975c-.9625-.5606-1.75-1.66036-1.75-2.44391 0-1.62609 5.534-4.80075 7.3178-4.19792.6502.21974-.2803 1.15863-2.0678 2.08641-4.7618 2.47153-3.9913 3.62267 2.5 3.7352 4.3883.0761 5.1579.28929 3.25.90032-3.5512 1.13729-7.2143 1.10557-9.25-.0801z"/><path d="m1436.2873 571.21887c-.01-1.75504.4347-3.4691.9847-3.80902 1.2817-.79212 1.2817 3.51674 0 5.5-.7376 1.14137-.9731.73709-.9847-1.69098z"/><path d="m1445.272 573.43017c0-.26382 1.8-1.39796 4-2.52032 5.6963-2.90602 5.3022-5-.941-5-2.7175 0-5.2191.45-5.559 1s-1.1379 1-1.7733 1c-.6851 0-.4995-.65582.4559-1.61122 2.1229-2.12292 10.3139-3.05151 12.3093-1.39548 2.3921 1.98523 1.7872 3.7449-2.224 6.47065-3.4114 2.31807-6.2679 3.25524-6.2679 2.05637z"/><path d="m1421.272 570.84411c0-3.55706 1.8978-5.82447 5.4297-6.48705 1.873-.35137 4.23-.15942 5.2378.42656 1.5653.91004 1.3489 1.06985-1.4833 1.09582-4.6497.0426-7.1842 1.65331-7.1842 4.56559 0 1.35565-.45 2.46482-1 2.46482s-1-.92958-1-2.06574z"/><path d="m1464.272 569.03867v-3.98921l-3.1838.91309c-1.7511.50221-3.4086.68829-3.6833.41353-.9308-.93082 1.3525-2.31074 4.3671-2.63928 2.8952-.31553 3.028-.55408 3.8005-6.82695 1.102-8.94731 2.5579-9.75286 1.9367-1.0716l-.5059 7.0716 2.8843.0902 2.8844.0902-3.25.9384c-2.8484.82244-3.25 1.36008-3.25 4.35079 0 1.87682-.45 3.69051-1 4.03043-.6028.37257-1-.96635-1-3.37118z"/></g><path d="m240.60296 299.58226c-5.3593-1.99087-7.0059-3.84104-6.2167-6.98546.4161-1.6578 2.0623-3.29519 4.6299-4.60507 4.369-2.2289 24.2749-9.27024 32.9838-11.6674 3.025-.83264 5.95-1.9438 6.5-2.46922.6304-.6023.877-9.71338.6671-24.65522-.2907-20.69587-.5492-23.92313-2.039-25.46109-1.604-1.65583-1.9933-1.66333-6.5068-.12543-4.3925 1.49665-4.9363 1.50025-6.3942.0423-1.4579-1.45793-1.4292-1.77489.3374-3.72695 2.6969-2.9801 7.3054-5.19266 9.2562-4.44404 1.2235.46951.5968 1.09658-2.4669 2.46823-7.4127 3.31879-7.2432 6.31593.1966 3.47465 4.6386-1.77148 4.6838-1.76859 6.3233.40493l1.6512 2.18917 5.4876-4.1362c10.4193-7.85354 12.6931-7.65145 11.5002 1.02213-.8071 5.86809-2.7959 5.89596-2.3726.0332.1531-2.12062-.017-4.15116-.3783-4.51233-.9406-.94059-7.5885 3.37738-9.3583 6.07839-1.2391 1.89114-1.4685 6.69699-1.3429 28.13688l.1514 25.8562-17.356 6.04367c-22.3568 7.78503-27.2095 10.35157-23.7341 12.55282 2.67 1.69119 12.8067.87104 25.8596-2.09229 7.2577-1.64769 13.606-3.24924 14.1072-3.55901.5012-.30978.9113-.097.9113.47274 0 1.86667-4.3333 3.87565-15 6.95428-13.1374 3.7917-22.0989 4.67816-27.397 2.71005z" fill="#a00"/><g transform="translate(-1064.272 -241.90985)"><g fill="#a00"><path d="m1437.272 559.90985c0-.55.45-1 1-1s1 .45 1 1-.45 1-1 1-1-.45-1-1z"/><path d="m1415.93 544.23451c-2.6694-2.66941 1.9184-6.08008 11.2332-8.35095 9.713-2.36791 9.1587-4.23005-2.799-9.40348-10.3552-4.48011-12.9027-7.19646-9.7187-10.36274 2.945-2.9287 23.3198-1.62751 24.3813 1.55708.2674.80198-2.3133 1.24424-8.4348 1.44548l-8.82.28995 8.5847 4.25699c9.5649 4.74298 12.0047 7.55659 10.1268 11.67809-.8563 1.87948-2.7701 2.94439-8.1945 4.55986-3.8925 1.15924-8.4455 2.28086-10.1177 2.49249-1.6722.21164-3.6126.85964-4.3119 1.44-.6993.58037-1.5675.75912-1.9294.39723z"/><path d="m1354.9387 542.24318c-2.3844-2.3843 1.1384-18.8622 4.7598-22.26429 2.8403-2.66835 12.3746-4.44274 20.0858-3.73809 7.4742.68299 9.4879 1.43143 9.487 3.52604-.0006 1.4207-1.4552 1.64601-10.75 1.66517-16.1649.0333-20.2493 3.24968-20.2493 15.94572 0 3.94343-.3829 5.53212-1.3333 5.53212-.7334 0-1.6334-.3-2-.66667z"/><path d="m1399.5946 541.30811c-.862-2.24618.4545-16.1132 1.7615-18.55539 2.1993-4.10951 3.1429-.38064 2.4025 9.49472-.5115 6.82247-1.1201 9.69152-2.1387 10.08238-.783.30047-1.6944-.1593-2.0253-1.02171z"/><path d="m1281.1991 537.65985c-2.5233-9.32588 4.7886-56.60216 9.1734-59.31211 2.779-1.71752 2.6444 2.12142-.6339 18.08802-1.9169 9.33575-4.0217 23.38659-4.6773 31.22409-.6557 7.8375-1.5342 14.25-1.9522 14.25s-1.2775-1.9125-1.91-4.25z"/></g><path d="m1456.772 537.06817c-4.1249-2.52194-5.5124-4.41537-6.0962-8.31909-.7616-5.09214 2.2104-8.86329 10.3601-13.14584 3.8657-2.03136 7.8627-3.66168 8.8823-3.62293 1.0582.0402.3426.62751-1.6673 1.36841-6.9358 2.55667-14.1617 7.75439-15.6147 11.23196-1.2275 2.93772-1.2047 3.73701.1833 6.42106 2.3921 4.6259 7.0564 6.13961 16.812 5.45611l8.1405-.57035-4.5 1.496c-6.1537 2.04574-12.8475 1.91782-16.5-.31533z" fill="#59f"/><g fill="#4a0"><path d="m1187.3621 533.08879c-1.3254-.3996-3.3379-1.96955-4.4721-3.48878-2.6206-3.51-1.6602-5.25109 4.8749-8.83712 4.8751-2.67515 16.0561-5.63739 17.1499-4.54361.3262.32628-.6974.87986-2.2748 1.23017-5.7855 1.28486-15.0233 4.53065-17.1659 6.03136-4.3358 3.03691-1.3596 6.78201 6.2979 7.92503 10.5097 1.56877 17.8266-9.31679 14.2964-21.26913-.9541-3.23004-1.0288-3.26492-5.675-2.64858-3.5156.46636-5.0182.25103-5.9321-.85011-2.6321-3.17151 1.786-6.72817 8.3577-6.72817 4.9652 0 4.2512 1.50815-1.2225 2.5824-2.5716.50468-4.8591 1.4801-5.0834 2.1676-.558 1.71038 2.2391 1.57018 5.8417-.29282 2.979-1.54052 2.9857-1.53751 4.4722 2.02034 3.8329 9.17335 2.4945 18.22664-3.5506 24.01829-2.3579 2.25899-4.0328 2.89433-8.2323 3.12282-2.8997.15777-6.3565-.0401-7.682-.43969z"/><path d="m1064.272 520.47794c0-1.64453 4.3322-4.94237 7.986-6.07919 4.4919-1.39758 20.7334-9.22592 21.409-10.31899 1.4137-2.28752-3.8047-3.37417-19.645-4.09074-3.1909-.14435-1.8219-1.8907 4.4858-5.72243 8.0345-4.8807 13.7642-10.08186 13.7642-12.49454 0-3.14287-4.0886-4.32135-10.5148-3.03077-7.9401 1.5946-12.3886 3.93526-13.1356 6.91164-.6625 2.6396.2073 18.82423 1.2634 23.50693.3668 1.62642.1978 2.75-.4136 2.75-1.5753 0-3.1994-9.16224-3.1994-18.04922 0-4.63385-.4172-7.95078-1-7.95078-.55 0-1-.63301-1-1.40668 0-1.88497 14.2306-7.77334 20.2337-8.37232 3.3547-.33473 5.4668.008 7.25 1.17639 4.9674 3.25472 2.5118 8.37023-7.4895 15.60261l-6.2229 4.5 7.1364.64947c3.9251.3572 8.2515 1.38008 9.6144 2.27305 5.6714 3.71609 2.1374 6.76701-17.5221 15.1266-4.675 1.9879-9.2104 4.25258-10.0788 5.03262-2.0074 1.80336-2.9212 1.79909-2.9212-.0136z"/><path d="m1186.9379 513.13732c-.4465-.6999-.739-3.3999-.65-6 .089-2.60011.1218-5.07653.073-5.50315-.1731-1.51079-6.6416 2.60505-10.339 6.57855-2.0626 2.21661-4.0876 3.68237-4.5 3.25726-.9699-.99972 9.0571-10.03043 12.9081-11.62555 4.3893-1.81811 5.1471-.4161 4.1581 7.69258-.5081 4.16529-1.1582 6.37153-1.6501 5.60031z"/><path d="m1103.3002 510.79665c-4.4676-1.78292-5.3343-5.58067-2.0282-8.8868 3.4353-3.43529 12-2.30855 12 1.57868 0 1.06739-1.3698 1.78608-7.5 3.93492l-2 .70107 2 .82238c1.1.45231 4.3625.85401 7.25.89266 2.8875.0387 5.25.52029 5.25 1.07029 0 1.28361-11.6932 1.1952-14.9718-.1132z"/><path d="m1107.272 504.44716c2.9782-1.11515 3.2216-1.42463 1.633-2.07581-2.2127-.90697-6.7951.51314-7.3846 2.2885-.5148 1.55041 1.2136 1.48649 5.7516-.21269z"/><path d="m1152.8287 509.68734c-1.7259-2.46401-2.1263-8.77749-.5567-8.77749.55 0 1 1.5199 1 3.37756 0 7.38373 4.4318 7.04022 13.0388-1.01066 5.4413-5.0897 6.6683-4.80844 1.8993.43536-3.8149 4.19459-9.685 8.19774-12.021 8.19774-.992 0-2.5042-1.00013-3.3604-2.22251z"/><path d="m1216.3002 510.79665c-4.4676-1.78292-5.3343-5.58067-2.0282-8.8868 3.4353-3.43529 12-2.30855 12 1.57868 0 1.06739-1.3698 1.78608-7.5 3.93492l-2 .70107 2 .82238c1.1.45231 4.3625.85401 7.25.89266 2.8875.0387 5.25.52029 5.25 1.07029 0 1.28361-11.6932 1.1952-14.9718-.1132z"/><path d="m1220.272 504.44716c2.9782-1.11515 3.2216-1.42463 1.633-2.07581-2.2127-.90697-6.7951.51314-7.3846 2.2885-.5148 1.55041 1.2136 1.48649 5.7516-.21269z"/></g><g fill="#aade87"><path d="m1402.472 503.70985c-2.989-2.98897-.5229-5.557 3.3751-3.51463 2.45 1.28367 2.5127 1.48401.9523 3.04436-1.9862 1.98618-2.7306 2.06708-4.3274.47027z"/><path d="m1392.0407 486.12658c-3.6814-2.23376-3.9506-3.33914-2.6932-11.05979.5963-3.66132 1.0932-8.17218 1.1043-10.02415.011-1.85197.6502-4.87501 1.4202-6.71788s1.4-5.09289 1.4-7.22228c0-3.15929-.46-4.08117-2.5-5.01068-2.7561-1.25575-3.4098-4.18195-.9343-4.18195.8612 0 2.4929-.49618 3.626-1.10263 1.1332-.60645 6.5592-1.29166 12.0578-1.5227 5.4985-.23104 11.8543-.84885 14.1239-1.37292s6.2899-.96386 8.9341-.9773l4.8074-.0245-.2571 25.5c-.1414 14.025-.6014 25.5-1.0223 25.5-2.7885 0-3.6085-15.95279-1.9916-38.75023l.6561-9.25022-3 .0182c-1.65.01-7.1983.65724-12.3295 1.43833-5.1313.78109-9.9162 1.19503-10.6333.91987s-2.8649.15199-4.773.94923c-3.6978 1.54506-4.7642 4.13195-4.7642 11.557v3.63214l11.5-.36506c10.05-.31903 11.5-.16232 11.5 1.24286 0 1.32799-1.2623 1.61057-7.25 1.62311-7.2477.0152-14.795 1.62977-16.7482 3.58296-.5699.56995-1.3191 4.70471-1.6649 9.18836l-.6286 8.1521 2.7394 1.04154c1.7341.65929 7.3428.79545 15.2825.371 10.5473-.56386 12.4682-.44656 12.0736.73729-.5141 1.54237-5.4466 2.39202-18.8087 3.23993-6.8304.43343-9.0407.21456-11.2264-1.11163z"/><path d="m1476.766 485.89096c-.3524-1.1104-.5601-3.2479-.4614-4.75.4397-6.69628-.058-6.7153-10.5538-.40293-4.4117 2.6534-8.5742 4.64004-9.25 4.41475-.7244-.24147-1.2288-2.22245-1.2288-4.82626 0-2.95793-.4295-4.41667-1.3004-4.41667-.7152 0-3.859 2.28042-6.9861 5.0676-3.1886 2.84197-6.1796 4.76236-6.8103 4.37259-1.1987-.74082 4.6447-6.45215 11.3872-11.12979 4.4509-3.08789 5.6126-2.45216 6.4122 3.50896l.5447 4.06153 8.4192-4.44044c12.3212-6.49843 13.3335-6.14605 13.3335 4.64134 0 4.47024-.3505 5.91821-1.4326 5.91821-.788 0-1.721-.9085-2.0734-2.01889z"/></g><g fill="#d40000"><path d="m1358.5139 484.93013c-3.2449-1.38212-4.9377-5.47703-3.1531-7.62729 1.911-2.30267 8.6235-5.03901 15.8474-6.46023 6.3309-1.24552 6.8091-1.84215 5.0936-6.35426-.8717-2.29279-1.2482-2.44596-3.7109-1.50964-5.9489 2.26177-10.4184-2.3356-4.7719-4.90834 3.1509-1.43561 9.8149-1.55509 8.953-.16052-.3399.55-2.054 1.00689-3.809 1.01531-1.7551.008-3.8534.43422-4.663.94621-2.3609 1.49305 1.323 2.45619 3.972 1.03848 3.3671-1.80204 4.7403-.56777 5.9727 5.36849 2.2828 10.99617-2.5873 18.69555-12.2006 19.28846-2.8997.17884-6.2883-.10766-7.5302-.63667z"/><path d="m1372.813 480.56879c2.994-2.99398 5.3721-8.07914 4.2861-9.16512-.6867-.68674-12.535 2.3529-16.5614 4.24877-6.7498 3.17823-3.6465 8.20924 5.0843 8.24267 3.0427.0117 4.5505-.68582 7.191-3.32632z"/><path d="m1280.3999 465.16558c-2.2038-1.83564-2.1541-3.89204.4745-19.64561.5039-3.0201.2855-4.09332-.9767-4.79969-2.1804-1.22025-2.063-2.81043.2076-2.81043 1.0084 0 2.1037-.27033 2.4341-.60073s2.5429-.72721 4.9166-.8818c2.3738-.15459 7.8664-.61802 12.2057-1.02985 5.1877-.49235 7.6782-.40659 7.2722.2504-.568.91902-11.2527 2.54645-18.0165 2.74416-3.4455.10071-5.6446 2.81045-5.6477 6.95895v3.05887l7.0023-.33206c4.5601-.21625 7.0022.0453 7.0022.75 0 .60547-1.8719 1.08452-4.25 1.08764-2.3375.003-5.8807.45855-7.8739 1.01219-3.4706.96404-3.6463 1.22823-4.1516 6.24443-.2903 2.88079-.1595 5.62777.2905 6.10439s4.9058.80135 9.9016.72162c5.6501-.0902 9.0834.24374 9.0834.88341 0 .56561-1.2375 1.04612-2.75 1.06779-1.5125.0217-5.5094.24926-8.8821.50573-4.8605.36961-6.5693.10222-8.24-1.28941z"/><path d="m1302.574 462.69494c.3125-2.32974 1.3514-4.78969 2.3228-5.5 2.0726-1.51556 10.9825-1.72946 11.8752-.28509.3757.60795-1.0821 1-3.7185 1-5.5899 0-8.7815 2.20127-8.7815 6.0567 0 1.61882-.5093 2.9433-1.1317 2.9433-.7526 0-.9423-1.41166-.5663-4.21491z"/><path d="m1322.3072 464.97559c-1.6255-3.03725-.6712-29.06574 1.0656-29.06574.4408 0 .9359 6.97565 1.1003 15.50144s-.023 15.50079-.4159 15.5c-.3932-.00079-1.1807-.87186-1.75-1.9357z"/></g><g fill="#013200"><path d="m1173.6519 481.4576c-1.4155-3.68884 5.2222-31.00696 8.276-34.06082 2.6506-2.6506 2.6363-.98382-.059 6.82432-1.4179 4.10814-3.16 12.09875-3.8712 17.75691-1.2308 9.79129-2.8615 13.34821-4.346 9.47959z"/><path d="m1154.4527 455.15985c.2094-1.11954 2.3073-2.40388 5.8233-3.565 3.0228-.99824 5.9031-2.21537 6.4007-2.70473.5329-.52404-2.2415-2.32351-6.75-4.37811-8.1106-3.69615-9.5262-5.79232-5.2327-7.74857 2.6184-1.19304 12.043-.43522 14.5866 1.17289 1.0358.65488-.265.94757-4.2586.95821-3.1625.008-5.75.41645-5.75.90673s1.9125 1.65303 4.25 2.58388c5.4825 2.18327 7.75 4.2712 7.75 7.13618 0 2.00085-1.0518 2.63378-8.0516 4.84501-9.5747 3.02465-9.1784 2.98877-8.7677.79351z"/><path d="m1142.3171 451.24318c.055-5.89629 2.3058-11.81981 3.4468-9.07107 1.0232 2.46508-.7258 12.99001-2.2419 13.4912-.8884.29367-1.237-.98498-1.2049-4.42013z"/><path d="m1183.7837 453.89083c.3464-.56045 2.9605-2.18509 5.8091-3.61031 5.9084-2.95614 9.6792-6.0999 9.6792-8.06973 0-2.20776-5.0722-3.53072-10.9582-2.85818-8.3554.95469-9.9878 1.57609-11.4447 4.35667l-1.3456 2.56824-.7286-2.29534c-1.0271-3.23617 1.1508-5.02347 8.1189-6.66285 7.486-1.76121 11.5801-1.76141 15.7939-.00077 7.1761 2.99834 5.2228 8.57777-4.9926 14.26104-5.6991 3.17067-11.2627 4.46543-9.9314 2.31123z"/><path d="m1093.4175 452.86829c-1.6983-.70059-2.1629-1.45728-1.6671-2.71488.3781-.95896 2.912-10.24222 5.6309-20.62948 5.1807-19.79235 6.163-22.60046 7.2761-20.79943.3642.58931-1.544 9.86221-4.2405 20.60645-3.6948 14.72165-4.6118 19.77643-3.722 20.51495.6749.56005 7.1577.89085 15.129.77197 13.5676-.20235 23.4481.69022 23.4481 2.11821 0 1.10123-39.2054 1.22507-41.8545.13221z"/><path d="m1144.2803 428.93523c-1.0633-.67157-1.1831-1.25062-.4172-2.01652 1.2807-1.28071 4.6466-.22195 4.1386 1.30185-.5069 1.52075-1.9932 1.80619-3.7214.71467z"/></g><g fill="#ffd42a"><path d="m1316.3397 435.29739c-.037-1.16186 1.2823-5.38625 2.9323-9.38754s3-7.39536 3-7.54238-1.7343-.0347-3.8541.24963c-3.4137.45787-3.9263.24705-4.4863-1.84516-1.0402-3.88574-.673-4.53442.9124-1.61209 1.7905 3.30041 2.783 3.40402 6.2703.6546 2.1863-1.72377 2.7119-1.82854 2.9635-.59074.2525 1.24208-3.1768 11.3624-6.8401 20.18614-.8111 1.95359-.8319 1.95098-.898-.11246z" fill="#ffd42a"/><g fill="#ffd42a"><path d="m1292.2458 420.40985c-.3558-4.9261-.3822-4.70596 1.428-11.89305.8164-3.24118 1.9634-6.3722 2.5491-6.95782.5856-.58562.3556 1.32314-.5111 4.24169s-1.3494 5.53291-1.0726 5.8097c.7083.70833 10.4046-2.5478 14.8365-4.98227 4.5171-2.48128 5.3189-4.27166 3.2959-7.35915-1.2219-1.86492-2.4312-2.35793-5.7727-2.35352-5.3168.007-11.6936 1.71914-13.983 3.75434-.9659.85864-2.0902 1.22712-2.4985.81885-1.8195-1.81948 6.0442-5.10923 14.9207-6.24201 4.1076-.5242 4.9753-.28621 7.25 1.98843 5.1614 5.16139 2.594 8.64618-10.038 13.62479l-8.122 3.20107-.9967 5.17448-.9967 5.17447z"/><path d="m1354.2105 421.90985c-.411-2.34292-.7998-2.49271-6.1885-2.38401l-5.75.11599.02-4.61599c.027-6.24081 1.8342-18.37005 2.8956-19.43143.4786-.47857.5113 1.06172.074 3.47826-.4318 2.38545-1.1076 7.65797-1.5017 11.71671l-.7165 7.37953 5.6181-.70194c6.1151-.76403 7.1569-.009 6.3785 4.62015-.3895 2.31584-.3919 2.31532-.8291-.17727z"/><path d="m1385.3902 418.65985c-.074-2.98921-.5676-4.75-1.3304-4.75-.6667 0-3.1416 1.89369-5.5 4.20821-2.3583 2.31451-4.2878 3.7487-4.2878 3.18709 0-1.23113 4.4379-5.46228 8.3013-7.9145 4.0174-2.54998 5.2199-.96526 3.9393 5.19156l-1.0042 4.82764z"/><path d="m1358.8006 420.55446c-3.3182-2.42637.561-6.91254 7.11-8.22233 3.4606-.69213 6.3614 1.45112 6.3614 4.70018 0 3.73921-9.7046 6.27651-13.4714 3.52215z"/><path d="m1369.7931 418.51806c1.6172-1.18252 1.7027-1.6336.5687-3-.7341-.88451-2.5689-1.60821-4.0774-1.60821-3.0295 0-8.36 3.62853-7.4629 5.08007.8816 1.42659 8.8436 1.08416 10.9716-.47186z"/><path d="m1333.4467 417.15985c-.096-2.3375-.2902-4.25-.4313-4.25s-1.7101.41685-3.4865.92633c-1.8355.52639-3.4636.54821-3.7712.0505-.2977-.48169 1.1587-1.18844 3.2365-1.57057 4.4503-.81845 5.2083-1.72402 5.3622-6.40628.063-1.925.4873-4.625.9424-6 .5066-1.5308.6083.11685.2622 4.25l-.5652 6.75 3.3881.0789c3.5121.0818 3.2674.33284-1.3046 1.33826-2.3226.51075-2.7454 1.17569-3.0753 4.83747l-.3826 4.24532-.1747-4.25z"/></g></g><g fill="#5f5286"><path d="m1303.3654 386.13544c-.8314-2.00733-.8705-4.70308-.1411-9.75.5544-3.83658 1.017-9.84856 1.0279-13.35996l.02-6.38436-6.75.63176c-7.8512.73482-24.1863 2.43335-29.25 3.04144-1.925.23116-4.7375.89858-6.25 1.48316-2.4998.96617-2.75 1.52521-2.75 6.1448 0 7.25826-1.8583 13.96745-3.8687 13.96807-1.4139.00044-1.5888-1.23263-1.3124-9.25.5373-15.58802 7.6064-42.7505 11.1258-42.7505 1.4651 0 1.3179 2.58746-.33 5.79966-2.0331 3.96298-4.9996 18.22854-3.9832 19.15503 1.013.92347 42.4533-.27106 44.0702-1.27034.5996-.37058 1.6339-4.61366 2.2985-9.42907 1.7801-12.89857 5.585-20.39588 9.5742-18.86509 1.3693.52542 1.2324 1.05062-.9488 3.64293-1.4018 1.66594-3.014 4.70251-3.5826 6.74793-2.3809 8.56394-6.5969 45.69946-5.6984 50.19196.7915 3.95778-1.6382 4.14655-3.2512.25258z"/><path d="m1420.6568 386.74211c-1.5866-1.19226-4.2468-3.43314-5.9115-4.97973l-3.0267-2.812-7.837 3.04311c-4.3103 1.6737-8.4608 2.80371-9.2233 2.51112-1.846-.70837-1.7533-3.87117.5937-20.26461 1.0891-7.60658 2.3375-22.69105 2.7743-33.52104s1.0908-19.98755 1.4534-20.35013c1.6425-1.64254 2.7933 1.16858 2.8041 6.85004.017 8.83971-1.8894 38.45115-3.2171 49.97474-.7145 6.20194-.7783 10.1327-.174 10.73691.8967.89677 13.0546-3.3064 25.7122-8.88909 5.9984-2.64561 7.6671-2.6803 7.6671-.15938 0 1.41152-1.4125 2.57985-4.9685 4.1096-2.7327 1.17557-5.4639 2.73431-6.0694 3.46388-1.6783 2.02223.4494 5.11208 4.5386 6.59072 4.0877 1.47813 4.2988 2.19022 1.2768 4.3069-2.8357 1.98616-2.9509 1.97515-6.3927-.61104z"/><path d="m1352.7154 382.83039c-5.0363-5.29169-5.5499-5.33882-15.907-1.45962-5.197 1.94649-10.1642 3.53908-11.0382 3.53908-1.7541 0-6.4982-4.32177-6.4982-5.91975 0-2.20258 6.5638-8.29425 12.3691-11.47929 7.3958-4.0577 11.3212-5.10285 13.2265-3.52157 2.4326 2.01886 1.6425 3.92061-1.6289 3.92061-5.4898 0-17.9667 7.41274-17.9667 10.67431 0 2.12611 4.2376 1.55157 12.8704-1.74499 10.5638-4.03392 12.6813-3.72563 16.4312 2.39218 3.6225 5.90986 2.4684 8.14504-1.8582 3.59904z"/><path d="m1363.9738 385.27837c-1.8317-1.83174 1.9819-4.51276 9.8197-6.90344 4.6632-1.42236 8.4785-2.95378 8.4785-3.40315 0-1.40236-2.2434-2.72907-10.1368-5.99479-8.182-3.38507-11.4657-6.05478-10.5101-8.5449 1.156-3.01251 5.5826-3.81873 14.5761-2.65472 11.3167 1.46468 12.8233 3.13248 2.8298 3.13248-4.2025 0-7.917.44655-8.2543.99234s2.8045 2.61463 6.9818 4.59742c13.2283 6.27897 13.832 11.30362 1.8228 15.17146-3.8232 1.23133-8.1302 2.23878-9.5712 2.23878-1.4411 0-2.8982.45-3.2381 1-.7046 1.13997-1.8729 1.29383-2.7982.36852z"/><path d="m1449.1666 383.53581c-7.8408-1.68755-10.5649-3.71514-11.3666-8.46019-.9186-5.4369 1.3173-10.39296 5.599-12.41062 5.1595-2.43138 10.1268-3.03316 14.7534-1.78735 3.291.88617 4.5557 1.87895 5.8492 4.59143 2.1295 4.46562 1.4458 5.13449-8.5771 8.3912-4.3156 1.40226-7.9424 2.99957-8.0596 3.54957-.3376 1.58427 8.6369 3.29792 17.9071 3.41932 9.0331.11829 12.7525 1.25843 10 3.06537-2.0597 1.35209-19.2543 1.11581-26.1054-.35873z"/><path d="m1452.7615 370.30351c8.4924-3.39976 8.676-5.46153.4964-5.57442-7.0517-.0973-12.6281 3.71465-10.4914 7.17181.9571 1.54872 2.9196 1.23508 9.995-1.59739z"/><path d="m1485.545 382.20641c-1.5223-2.32116-1.773-5.11391-1.773-19.75 0-17.8212 1.9461-49.84133 3.1474-51.78501.4532-.73342.9628-.45152 1.4548.80483 1.078 2.7529 1.0811 53.83887 0 54.98362-.5274.56011-.3918 4.3371.3303 9.20305.6736 4.53917 1.0011 8.47667.7278 8.75-1.0454 1.0454-2.1798.40208-3.8906-2.20649z"/><path d="m1503.545 382.20641c-1.5223-2.32116-1.773-5.11391-1.773-19.75 0-17.8212 1.9461-49.84133 3.1474-51.78501.4532-.73342.9628-.45152 1.4548.80483 1.078 2.7529 1.0811 53.83887 0 54.98362-.5274.56011-.3918 4.3371.3303 9.20305.6736 4.53917 1.0011 8.47667.7278 8.75-1.0454 1.0454-2.1798.40208-3.8906-2.20649z"/></g></g><path d="m357.55666 72.77749c-.8562-1.22237-1.5567-4.05737-1.5567-6.3 0-2.24262-.54-4.61749-1.2-5.27749-1.7278-1.72781-7.1123-1.47074-16.5409.78971-6.6157 1.58605-8.7426 1.7471-10.7849.81661-2.2733-1.0358-2.4871-1.59235-2.0101-5.2327.2936-2.24049 1.2416-11.94862 2.1067-21.57362 2.0733-23.0688 4.7719-36 7.5128-36 .6723 0 .9084.9152.5804 2.25-2.688 10.94187-7.2983 55.52127-5.8866 56.92157.3974.39423 6.2242-.23769 12.9484-1.40427 16.0319-2.78136 15.9787-2.8189 17.7012 12.4827.5803 5.15449-.4159 6.03166-2.8703 2.52749z" fill="#f00"/><path d="m452.92236 66.33128c-.5994-1.5572-.8338-4.85628-.5209-7.33128.313-2.475.1522-5.15853-.3571-5.96339-1.1572-1.82829-4.5999-.31714-16.1342 7.0818-9.824 6.30178-11.2457 6.16828-11.9102-1.11841-.3514-3.85334-.9551-5.56882-2.0315-5.77257-.8423-.15945-4.8211 2.6729-8.8417 6.2941-6.6445 5.98439-9.6268 7.48325-9.6268 4.83821 0-1.12669 13.2714-12.96838 17.6116-15.71435 4.0792-2.58079 5.8884-.91608 5.8884 5.41804 0 2.65019.4677 5.1076 1.0393 5.46089.5717.3533 5.4092-1.82903 10.75-4.84961 5.3409-3.02058 11.1709-5.79334 12.9556-6.16169 2.8938-.59723 3.358-.37249 4.2891 2.07642 1.4293 3.75933.8353 17.62786-.7779 18.16159-.6841.22634-1.7343-.86254-2.3337-2.41975z" fill="#00f"/><path d="m228.99996 66.57355c0-2.38564 9.7081-6.24922 25.5-10.14834 14.7644-3.64542 22.5-6.54111 22.5-8.42248 0-1.82197-4.8324-4.10437-17.0913-8.07239-20.7941-6.73076-30.9087-12.60238-30.9087-17.94276 0-2.77237 1.7676-3.59954 14.5-6.7852 15.1635-3.79397 24.1602-4.79965 28.9109-3.23179 5.1851 1.71125 4.4166 2.58075-1.9317 2.18557-5.4025-.3363-21.2547 2.40011-31.4591 5.43049-5.8954 1.75075-6.3107 3.33767-1.7701 6.76413 4.1641 3.14236 8.2668 4.84921 24.3448 10.12801 29.2843 9.6148 28.3737 15.42787-3.5948 22.94694-8.525 2.0051-18.2 4.75249-21.5 6.10532-7.0016 2.87028-7.5 2.93956-7.5 1.0425z" fill="#f00"/><path d="m376.32636 66.95562c-7.3175-1.44688-10.0635-3.43972-10.8074-7.84327-.9614-5.69036 1.3111-9.50014 6.9516-11.65427 7.9778-3.04675 16.5294-.329 16.5294 5.25314 0 1.8771-.9626 2.82706-4.4101 4.35202-2.4255 1.07294-5.8005 2.22888-7.5 2.56877-3.2166.64332-3.9217 1.73589-1.919 2.97359.6439.398 6.0295 1.0101 11.9678 1.36022 10.9704.64681 12.5781 1.06525 11.4024 2.96765-.7703 1.2463-15.9472 1.26144-22.2147.0221z" fill="#00f"/><path d="m379.46246 54.92815c3.0456-1.13952 5.5375-2.48094 5.5375-2.98095 0-2.44513-10.6095-2.34609-13.5892.12685-.776.64396-1.4108 2.01574-1.4108 3.04839 0 2.46498 2.4917 2.41382 9.4625-.19429z" fill="#00f"/><path d="m472.32636 66.95562c-7.3175-1.44688-10.0635-3.43972-10.8074-7.84327-.9614-5.69036 1.3111-9.50014 6.9516-11.65427 7.9778-3.04675 16.5294-.329 16.5294 5.25314 0 1.8771-.9626 2.82706-4.4101 4.35202-2.4255 1.07294-5.8005 2.22888-7.5 2.56877-3.2166.64332-3.9217 1.73589-1.919 2.97359.6439.398 6.0295 1.0101 11.9678 1.36022 10.9704.64681 12.5781 1.06525 11.4024 2.96765-.7703 1.2463-15.9472 1.26144-22.2147.0221z" fill="#00f"/><path d="m475.46246 54.92815c3.0456-1.13952 5.5375-2.48094 5.5375-2.98095 0-2.44513-10.6095-2.34609-13.5892.12685-.776.64396-1.4108 2.01574-1.4108 3.04839 0 2.46498 2.4917 2.41382 9.4625-.19429z" fill="#00f"/><path d="m294.49996 65.49367c-4.0325-1.43004-7.5-4.65238-7.5-6.9696 0-3.86192 14.0811-13.23636 18.5737-12.36538 3.5428.68682 2.1156 2.41974-4.8107 5.84131-8.3266 4.11334-10.0551 6.13581-7.4619 8.73124 2.0076 2.00924 10.6831 2.38159 21.4489.92057 4.0335-.54738 6.25-.49666 6.25.14301 0 1.3903-2.3135 2.15116-11.5 3.78213-9.6343 1.71047-9.9469 1.70873-15-.0833z" fill="#f00"/></svg>