<svg viewBox="0 0 207.2 170.4" xmlns="http://www.w3.org/2000/svg"><g fill="none" stroke="#000" stroke-width="1.6"><path d="m1.3 78.4c2-13.4 7.7-26.4 15.2-37.4 7-10.4 16.4-19.8 27.2-26.3 12-7 26-10.5 40-12.6 13-1.8 26.7-1.6 39.8.6 12.3 2.2 24.7 5.8 35.4 12 11 6.8 21 16 28.7 26.4 6.5 9 10.4 19.7 13.6 30.3 3 9.8 5.2 20 5 30.3 0 8.6-1.2 17.6-5 25.3-4.5 9-12 17-20.2 23-10 7.5-22 12-34.2 15.3-14 3.6-29 5-43.5 4-19.3-1.5-39-5.5-56.5-14-12.2-6-23.6-14.7-32-25.4-5.7-7.7-9-17-11.5-26.4-2-8-3.3-17-2-25.2z"/><path d="m63.4 161.8 15.6-.8-15.6-20 8.6-3-5.5-13.7 4-11.6 12-5.5 5.2 2"/><path d="m66.5 125 16.6-.7 16.8-2.5 20.7-14-7-6.2-2-8.6"/><path d="m113.4 101.6-17.6 1v9m .5-8.6-2-5m25.7 8.7 14 1.5 9.7 14.6 11.7-5.5 9-10.6 9.6-6 4-4.6s-3-8.6-2.4-15c .4-6.6 3.4-11.5 6.5-13.7 3.3-2.3 5.7-2 8.2-1s5 3 6.8 5.5c2 2.3 3 5.5 4.3 8.6 1.3 3 1.3 6.6 1 10-.3 3.6-1.2 7.4-3 10.7-1.8 3.4-4.5 8-7.6 8.7-3 .8-5.2-1-7-2.5-2-1.7-2.8-3.3-4-5-1.2-2-2.6-6-2.6-6m-101.4 61.8 15-1.7-7.4-6.8-.3-8.6-4.6-4.2m4.5 3.9 3.7-6-4.7-3m4.3 2.9 5-3.2m-6.3 7.1 6.3 3.6"/><path d="m91.6 156.5 18.6-4.3-8.6-6.8-.4-5m12.8-1.1.6 10.6 6.6-2.4 5-8.3-6.8-2.8m6.4 3.1 4.7-4"/><path d="m114.2 150.3 9.2 4 16-4 8.4-6 4.5-3.2-.4-9.2"/><path d="m140 149.8 6.6 6.3-4.7 4.4 12.8-2.5-4-9 9-5.4 2 8.2"/><path d="m142.7 160-12.2 3.6-6.4 3.6m5.3-3.2-11-3 2.5 3h-8.3l-3.6-3.6 3.7-1.4-4-6.8m-8.7 2.8 5.2 7.6-1.8 1.4m-8.7-8 4 9-5.7 1-7.8-2.8m15.3-42.2 8 8.3 8.8-3.2v5.8l-5 1.8m5.4-6.9h9.6l-3.3 4.2h-3.5"/><path d="m126.5 127 8 2.3 1.4 6.5 6.7 2.5-3 5.7"/><path d="m127.7 127 12-1.6-1 6.8"/><path d="m138 129 13.6 2.5-2.2-5.4m10.2 17.9 5.6-10 5.3-8.2 5.4-6.8 4.5-4 1.4-11"/><path d="m179.4 116v7.3l-5.3 7.5 1.2 7 6.4-1.7"/><path d="m188.4 109.6-2.5 16.2-11.2 26-4 4.6m20.6-46.4.3 16-2.5 4.4-8.4 20m16.9-41.9-2.4 23.7.7 3.6"/><path d="m197 105 2.8 14.7-1.4 9.3v3m1.4-32 3 5 3 6m-71-2 40.4-14.7 2.6-.4m-1.4-3.4-8-4.7-18.6-2.2-11.8 2.4-4.6 22.3m3.3-13.8 17.8 7.4"/><path d="m143.4 85-14-4.2-17 .3 8.7 7.3 1.7 8.5 5.7-4.6"/><path d="m112.7 81.5-15.4-5.7-16.3 3.5-17.7 10.7-8.2 12.6-6 15.7.2 9 17.2-3.3"/><path d="m49.3 127.2-12.7 4.3-8-1-2 6m27.8-10.5 1.5 10.5-1.2 11.8-3.6 4.3 4.9 6.4"/><path d="m28 133-10.3-7.6 1.7-5-6-3.6h-5.4l3-14.2m8.4 18.7 10.4-4m-.1-3.5-.3 3.6 6-2 4 2.5v-8.7"/><path d="m29.8 108 3.2-.8 1.4 2-3.2 5.5-4-2m-12.8 4.9v-8.6l7.5-2.5-4.3-13.2m3.6 9.3 10.8-5.8 8.5-.3 9.7-4 3.5.8m-45.7-4.3 10-13.6 7.5 3-.3 6"/><path d="m22.7 76.7 8.2-7.4 10.1-5.7 4.3 8-1.3 10.4 2.2 2-3.5 4-1.6-2-3 1.5"/><path d="m28.7 81.8h7l2.6 7.8h-6m12.3-7.6 13-.2 3.6 3.3m7.8 8.9 15.4 3.6 5.4.7"/><path d="m81.6 97.2.7-5 4-6.8-2-7m36.7 37.6 7.7-.6 8 5 2.4-4.3m37.1-40.1-9-6-13-.7-3.7 1"/><path d="m175.4 81.2-30.6-.8-17.5-9.3-23 .3-3.3-3.4 3.3-4.4 9.4-8.2 9 5 15.3 2.2 6.7 3.2 13 1.4.3 2"/><path d="m114 55.8 8.7-3.6 14.2.4 11 4 4.7-1.5 9.4 6.9 4 4.7 9.2 7.8 1.5 1"/><path d="m177 74.2-2.6-13.8 1-6-11.7-17.6-6.4-4.6-4-6.4-10.6-4.7-8.6-3-7-3.7-3.3-3.2-5.7-4.5-14.6-3-12.5 2m8.5-1.7-14-2"/><path d="m175 59-10.2-11.4-8.6-11-7.8-8.3h-5l-3-8m16.1 37.5 6.5-1 12 6.6m7.4 3.8-4.4-19.2-6-5.4-4-6-9-3.2m7.5 2.4-.3-7.5-6.8-7.2-7-5.6-4.8-6"/><path d="m118 6.5 10.4.7 13.2 4.3 14 9.6 11.3 4.8 6 6.4 2.2-1 7 7.8 1.5 8.2 1 13.2 2 5m6.1 1.7 1.7-9.6-2-9.2m9.6 46.1 4.6 2.3m-8.6-24.3 2.5-3.2m.5 10.4 2-1.4m-39.6-32.6-14.3-9-11-4.5 5.7 9.3 3.2-1.8 3.5 7.5-4 8.6"/><path d="m142 38.3-18.6-.4-4 6.7.7 3.5-6.6 7m7-12.5-5.3-9-13.6-3.2h-7.6m9.7 16.4h10.8l-14-9.2m-78.2-4.1 12-4.2 7.3-1.7 8.6-3 12.8-2.6 15.4-1 14 1.4 15-3 13.5-.6 7-1.4 7.5 6.4 7.2 3.6"/><path d="m115.5 19 6.4 6 16.2 7.3m-56.5-7.3 8.6 1.5-3 3.2m2.6-3.2 8.2-3.2m-2.5 7.5-1.5 4.6-11.3-.7-9 4.3 3.6 5.3 7 4 9.4-2.5 5 4 4-4.4 1-5.3"/><path d="m81.3 46.7 10-6 .3-5.6m-10.4 14.2-7.8 8 7.8-1.5 14-.4 11.8 5.6"/><path d="m74.3 56.7-8 3-3 4.6-5.6-1-2.5-8.2-6.5 4m6.1-4.1.7-6.7 6.4-4.7-7.2-6.8-10.4 3.6"/><path d="m54.7 37 8-4.4 4.2 3.2-5.5 8 12.5-5m-7.2-3.1 13.5-5.3m-31.2-3.2-7 9.3-10 9.3v4.6l7.8 6 5 .8 1.8-9.6-2.6-2.6m2.6 3 9.3.2m-24.3.8-4.6-1-4.7 5m4.7-5-1-3-6.6 4-2.5-4 1.2-6.4"/><path d="m32.3 49.7-4 5.4-5.6 8.6-4.7 11.3-5.3-4.6-4.3 7.6-5 11-2 5.7m99.6-26.3-13 2.4-13.3-14m-8.5 17.9v14m-21.2-14.4 14-5.3m48.3-49.7-6.8-4.6-8.6-2-9.7 2.4-2.7 5.7m-7.9.7-2.5-5-8.8 1.4-3 5.3m-30.9 5.4 15.2-9 15.7-4.2 17-4 3-4.2 4.3-2m-7.2 6.3 17.2-3.2 16.4 1 16.3 2.6m-71.8 98.8 18 2"/></g></svg>