<svg height="339.14026" width="332.0267" xmlns="http://www.w3.org/2000/svg"><path d="m162.17595 171.64682-3 .1.32 6 8.97-.63-1.04-11.96-14.92 1.57 2.19 17.87 20.8-2.92-3.75-23.71-26.59 4.69 5.72 29.45 32.28-6.86-8.1-35.08-37.84 9.43 10.87 40.57 43.26-12.4-14.04-45.9-48.5 15.76 17.58 51.06 53.56-19.5-21.5-56.01-58.41 23.6 25.78 60.75 63.04-28.07-30.43-65.25-67.41 32.88 35.41 69.5 71.52-38.03-40.72-73.47-75.35 43.5 46.36 77.15 78.87-49.29-52.29-80.51-82.070004 55.36 58.500004 83.55 84.95-61.71-65-86.260002-87.470004 68.340002 71.740004 88.6 89.63-75.21-78.73-90.560002-91.400004 82.300002 85.930004 92.15 92.79-89.61-93.33-93.340002-93.780004 97.110002 100.920004 94.12 94.35-104.79-108.68-94.470002-94.490004 112.610002 116.580004 94.4 94.19-120.57-124.59-93.880002-93.450004 128.630002 132.700004 92.92 92.27-136.79-140.9-91.500002-90.620004 145.020002 149.150004 89.61 88.5-153.28-157.43-87.270002-85.910004 161.580002 165.720004 84.44 82.85-169.87-174.01-81.140002-79.310004 178.140002 182.260004 77.37 75.3-186.37-190.45-73.110002-70.800004 194.520002 198.560004 68.37 65.82-202.57-206.570004-63.160002-60.36 210.520002 214.440004 57.46 54.43-218.320002-222.160004-51.29-48.03 225.950002 229.700004 44.65 41.16-233.400002-237.050004-37.54-33.81 240.630002 244.160004 29.98 26.03-247.630002-251.040004-21.96-17.79 254.370002 257.650004 13.51 9.11-260.840002-263.960004-4.61v267.000002l269.950004-4.71-9.52-272.840002-275.620004 14.45 19.46 278.320002 280.920004-24.58-29.79-283.440002-285.85000408 35.1 40.50000008 288.170002 290.380004-45.99-51.57-292.49000224" fill="none" stroke="#000"/></svg>