<svg viewBox="0 0 200.2 163.6" xmlns="http://www.w3.org/2000/svg"><g fill="none" stroke="#000" stroke-width="1.6"><path d="m186 60.4 1.6-9.6-1.6-5.4m9.2 42.3 4.6 2.3m-8.6-24.3 2.5-3.2m.5 10.5 2-1.5m-72 38.3 5.7 3.8 2.3-4.3m-110.8 18.7-2 4.2m29.4-1.5-1 10.8-3.5 4.3 5 6.4m140.9-54 2.8 14.8-1.4 9.2v3m1.4-32 3 5 3 6m-50-9.6 19.4-7 2.6-.5m-1.4-3.4-4-3m16 22.1-2.6 16.2-11 26-4 4.6m20.5-46.4.3 16-2.5 4.4-8.4 20"/><path d="m190.8 101.7-2.4 23.7.7 3.6m-16.5-19.8v7.3l-5.3 7.5 1.2 7 6.4-1.7m-43.7-7.1 13.6 2.5-2.2-5.4"/><path d="m152.8 137.2 5.6-10 5.3-8.2 5.4-6.8 4.6-4 1.4-11m-54.1 23 12-1.6-1 6.8"/><path d="m119.7 120.2 8 2.3 1.4 6.5 6.8 2.5-3 5.7m3.1 16-12.3 3.6-6.4 3.6m5.3-3.2-11-3 2.5 3h-8.1l-3.6-3.6 3.7-1.4-4-6.8m-8.9 2.8 5.2 7.6-1.8 1.4m-8.6-8 4 9-5.8 1-7.8-2.8m20.9-36.4 2.4 2.5 8.8-3.2v5.8l-5 2"/><path d="m111 120h9.5l-3.3 4.2h-3.5m19.5 18.8 6.6 6.3-4.7 4.4 13-2.5-4-9 9-5.4 2 8.2"/><path d="m107.4 143.5 9.2 4 16-4 8.4-6 4.5-3.2-.4-9.2m-60.3 24.6 18.6-4.3-8.6-6.8-.4-5"/><path d="m107.2 132.5.6 10.6 6.6-2.3 5-8.3-6.8-2.8m6.4 3 4.7-4m6.5-22.2 6.7 9.5 11.6-5.5 9-10.6 9.6-6 4-4.7s-3-6.2-2.4-12.6m11.8-18s .4 0 3 1c2.4 1 5 3 6.7 5.4 2 2.4 3 5.6 4.3 8.7 1.3 3 1.3 6.6 1 10-.3 3.6-1.2 7.4-3 10.7-1.8 3.4-4.5 8-7.6 8.7-3 1-5.2-1-7-2.4-2-1.7-2.8-3.3-4-5-1.2-2-2.6-6-2.6-6m-101.3 61.7 15-1.7-7.4-6.8-.3-8.7-4.6-4.2m4.5 4 3.7-6-3.4-1.2m3 1.2 4.7-3m-6 6.8 6.3 3.6"/><path d="m56.6 155 15.6-.8-15.6-20 8.6-3-.4-1.8"/><path d="m6 118.5s21.8 24 34 30c17.5 8.5 37.2 12.5 56.5 14 14.5 1 29.5-.4 43.5-4 12.2-3.3 24.2-7.8 34.2-15.3 8.2-6 15.7-14 20.2-23 3.8-7.7 5-16.7 5-25.3.2-10.4-1-19-4-28.8-3.3-10.6-14-29.7-14-29.7"/></g><path d="m139 18.8c-3.5 0-7 .2-11 .5l.8 1.6c6.2-.6 12-.8 17.4-.4 9.3.6 17.4 2.5 23.5 5.8 6 3.2 10.2 7.6 12 13.3 2 5.7 1.2 12-1.6 18.8s-8 14-14.7 21c-13.8 14-34.7 27.8-59.6 37.7-24.8 9.8-49 14-67.5 12.8-9.4-.6-17.4-2.6-23.5-5.8-6-3.2-10.3-7.7-12-13.3-2-5.8-1.3-12.2 1.6-19 2.8-6.7 8-14 14.8-21 13.8-13.8 34.8-27.4 59.5-37.3 5-2 10-3.7 15-5.3l-.7-1.4c-5 1.4-10 3.2-15 5.2-25 9.8-46 23.6-60 38-7 7-12.2 14.4-15 21.5-3 7-4 14-2 20s6.6 10.8 13 14.2c6.3 3.3 14.5 5.3 24 6 19 1.2 43.2-3 68.2-13s46.2-23.8 60-38c7-7.2 12.3-14.5 15.3-21.6 3-7 3.7-13.8 1.8-20-2-6-6.5-10.7-13-14-6.2-3.4-14.4-5.4-24-6-2.3-.2-4.8-.3-7.3-.2z" fill-rule="evenodd"/><path d="m144.2 54.8-24.5-54.5" fill="none" stroke="#000" stroke-width="1.5"/><path d="m121.7 4.4c-3.3-1.5-10 2.2-15.7 7.2s-12.2 6.2-16 7.4l8 18c4-1.2 10.4-2.5 16-7.4 5.8-5 12.5-8.7 15.7-7.3" fill="none" stroke="#000" stroke-width="1.6"/><path d="m128.5 21.5-1.4.2v.6l-1 2h1.5l.8-2.2.2-.5zm-1.6 4-1.5.2-.5 1-.5 1.2-.3.5h1.4l.3-.8.5-1 .4-1zm-2.3 4.3h-1.3l-.6 1-.7.8-.7.8-.4.4h1.1l.5-.3 1-.8.6-1 .7-1zm34.2 4h-2.5l-1.4.2h-1l-.3 1 1-.2h1.3l1.2-.2h2.5l.6-.7-1.2-.2zm-51 .2-.5.3c-1.8.7-.6.7.7 1l2 .7 1.2-.7h-.2l.5-.4-.7-.2h-1l-.7-.3-1.3-.5zm11 0h-.3l-.4.3-.5.2-.5.2h-.6l-.6.2h-1.7l-.8.8h1.9l.7-.2h.6l.8-.3.7-.2h.7v-.2l.7-.2.3-.2-.7-.4zm44 .3-1.2.7h.4l.8.4.7.4.3.2.3.2.4.5v.2l1.7-.6v-.2l-.6-.6-.3-.2-.4-.3-.7-.3-1-.3h-.4zm-12.3.2-2.7.5-3 .5h-.6v1l .6-.2 3-.6 2.6-.4v-.8zm-55 1.2-.8.2-1.6.4-1.5.5h-.2l-1.4.4-.4.2.5.5h.3l1.4-.6 1.4-.4 1.5-.5 1-.2-.2-.6zm17.5.3-1 .7 1.4.4 1.4.6 1 .2 1-.7h-1v-.2l-1.3-.4-1.4-.4zm28 .2-2.2.5-3 .5-.8.2v.7h.7l3-.6 2.3-.4v-.8zm-22 1.4-1 .7 1.2.3 1.5.2 1.4.2h.6l1-.7h-.7l-1.5-.2-1.4-.2-1.2-.2zm13 .2h-.4l-1.4.3-1.3.2h-.9l-1.2.2-.7.7h2.7l1.4-.2h1.5v-.2h.5l.2-.8zm34.5.2-1.7.3v.2l-.2.6-.3 1-.4.6-.4.8h1.6l.5-.8.4-.8.4-.8.2-.7v-.4zm-79.4.7-1.3.6-1.4.6-1.3.6-1 .6.6.4 1-.6 1.3-.6 1.3-.7 1.7-.6-.7-.3zm-25.4 3-1 .5 1.7.6 1.5.5 1-.6-.9-.7-1.7-.4zm17.8 1h-.2l-1 .8-1 .7-1 .8-.7.7h-.2 1.6l.8-.6.8-.6 1-.7 1-.6-.8-.3zm82.5.3-.8.8-.8.8-.8.8-1.2 1h1.4l.8-.6v1l1.6-.3v-1.1l.2-.7.2-.5.3-.3.2-.3.2-.3h-1.4zm-95.4.3-1.2.7h.3l1.8.8 1 .5 1.2-.6-1-.5-1.7-.8h-.4zm4.4 2.2-1 .5.8.5.6.5.6.4.5.5 1.3-.7-.5-.5-.6-.4-.6-.5-.6-.5zm4.4 1.7-1.4.2-.3.4-.2.7v.3h-.5l.3.7v.5l.2.5v.6l-.2.5 1.5-.3.2-.4v-2.9l.3-.5.3-.5zm81 .7-.4.2-1 .6-1 .6-1 .6-1 .6-.5.2 1 .5.3-.2 1-.5h.2l1-.7 1-.6 1-.7.5-.3-1.2-.3zm5.8.2-1.7.3v1.7l.3 1.3v.3l1.7-.4v-.3l-.2-1-.2-1v-1zm-13.4 4-1.5.7-2.5 1-2 .8.8.6 1.8-.7 2.6-1.2 1.6-.7-.8-.6zm-74.8.6-1 .3-.4.7-.5.7-.5.8-.6.8h-.2 1.5l.7-1 .5-.7.5-.8.4-.7zm89 .2-1.7.4.2.6.3 1.3.4 1.3 1.8-.4-.5-1.3-.4-1.4-.2-.6zm-23.2 3h-.5l-2.8 1-3 1 .3 1 3-1v-.2l3-1 .5-.2-.6-.7zm-70.8 1.7-1 1.7-2 1.8h1.4l1.7-1.6 1.7-1.6h-1.3zm95.8 0-1.8.6.6 1 .7 1.5.4.7 2-.5-.6-.7-.7-1.4-.5-1.2zm-34.5 1.5-2.7.8-3.8 1.2.4.7 3.7-1.2 2.8-1-.3-.6zm37.7 3.9v-.4l-1.8.5.2.5.7.8.7.8 1 1.2 1.7-.5-.2-.2-1-1.2-.2-.2zm-47-.8-5.2 1.5-1.3.4.3 1 1.3-.5 5.3-1.6-.3-.8zm-56.6.5-2 1.7-1.7 1.6 1 .2 2-1.6 1.8-1.7v-.2h-1zm-39.3 2-1.4 1.2v.2l1.4-.4v-1.2zm86.3.4-1.5.6-3 1-2 .6.3.8 2.2-.7 3-1 1.3-.4-.2-1zm60.6 2-1.8.8 1 .8 1.4 1.2 1.2.8.8-1.3-.4-.3-1.4-1-1-1zm-147 .2-1.5.5v2.8l1.5-.6v-2.8zm33.6.5-1 1-2.4 1.8-.4.3-2 .2-1.6.3-.3 1 1.6-.4 1.8-.4 1.7-.2h.8l.5-1h-.7l2-1.5 1-1-1-.3zm43 .7h-.4l-2.8 1-2.6 1.2-.6.2.6.7.5-.2 1.4-.6v.3l1 2.2 1.7-.5-1-2.3v-.5l2-.8h.5l-.4-.8zm-38 1.7h-1.6l-1.7.2-.6 1 1.5-.2h3.8l1-.8h-2.4zm5 .4-1 1h1l1.2.5 1 .3.8.3 1.3-.8-.8-.3-1.1-.6-1.3-.4h-.7l-.4-.2zm-43.3 1-1.5.5v.3l.4 1 .4 1 .3.2 1.3-.6-.2-.4-.3-1-.3-.8v-.4zm22.7.4-.7.2-1.8.4-2 .5v.2l-1.6.4v.8l1.6-.5 1.8-.6 1.8-.4.8-.2v-.8zm44 .2-1.2.6-2.3 1.2-1 .6h-.2l-1 .6 1 .6 1-.7 1-.4 2.2-1.2 1.3-.6-.7-.6zm-17.3.6-1.4.8 1 .6 1 .7.8.6.3.2 1.4-.8-1-.8-1-.8-1-.6zm26.4 1.4-1.5.6.8 1.6 1 1.5 1.6-.7-1-1.5-1-1.6zm-62.2.5h-.5l-1 .5-1 .3-.7.3-.8.2-.8.2-.7.2h-.6l-.5 1h .6l.3.4.6-.2 1.7-.8 1.5-.8 1.5-.5h.5l-.2-.8zm-11.6.3h-.3l-1.2.7.8.7.4.2.5.2.5.2.6.2h.8l1-.7h-.4l-.5-.2h-.5l-.4-.3-.5-.2-.4-.2-.8-.6zm52 1.2-1.6.8 1.4 1.3 1 1.3.8-.4-.2.2-.8.8-.6.7h1.4l.6-.7.7-.7.7-.6.8-.7 1-.7.2-.2-1-.4-.4.2-1 .7-.8.6-1-1-1.2-1.2-.2-.2zm63.5 1.4h-2v .2h-1.1l-.7.3-.7.4-.7.3-.7.3h-.2l-.6.4-.6.4-.2.2 1.3.4h.2l.3-.4.6-.3.4-.3.5-.2.4-.2h.5l.5-.2h2.4l.7-1-.2-.2zm3.6.6-1.2 1 1 .2 1 .4 1 .5.7.5 1 .5.5-.3 1-.4-1-.6-.8-.6-1-.5-1-.5-1-.3zm-116.6.3h-.2l-1.8 1-2 1-1.7 1 .6.4 1.8-1 1.8-1 2-.8-.5-.7zm74.2.3-1.7.6.4.8 1.6 2 .3.3 1.6-.7-.3-.4-1.6-2-.5-.6zm29 3.2-.7.7-1 1-1 1-1 1-.4.3 1.3.4.3-.3 1-1 1.2-1 1-1 .7-.7-1.5-.3zm20 0-1.7.8.6.6 1.3 1.5 1 1 1.7-.5-1-1.3-1.4-1.6zm-74 1h-1.5l-.2.3-.4.7-.3.7v1.3l.2.6v.3l1.6-.7v-.2l-.2-.5v-1.1l.2-.5.3-.7v-.2zm-58 0-2.7 1.5-2.8 1.5.7.5 2.8-1.5 2.8-1.6-.7-.5zm86.6.2-1.6.7 1 .8h-4l-.4 1h4.7l.5-.3.3.3 1 .8h.4l1.5-.7-.3-.2-1-.8-1-1h-.2l-.3-.3-.6-.4zm-8 2h-.6l-1 .2-1 .3-1 .3h-.2l-1 .4-1.3.4-1 .4.4.8 1-.3 1-.4 1.2-.4 1-.4.8-.2.8-.2h.6l.2-1zm-35.6 1.6h-3.7l-.6 1h6l .8-1zm5.4 0-1 1 2.6.2 2.3.3h.7l1-1h-.7l-2.4-.3-2.6-.2zm43.4 0-1.4 1h .2l1.3.7 1.2.5 1.5.5 1 .2 1-1.2h-.8l-1.5-.5-1.3-.5-1.2-.6h-.2zm44.5.3-1.8.6.7 1 1.5-1-.2-.5-.2-.2zm-100.3.2h-.2l-1.3.2-1.4.3-1.3.2-1.3.3-1 .3v1l1-.3 1-.3 1.4-.3 1.3-.2 1.4-.2h.2l.4-1zm-44.3.3-1.8 1-3.5 2-.3.3.7.4.2-.2 3.4-2 1.8-1-.7-.6zm67 0-1.2.7-.7-.2-1 1 .6.3 1.6.4 1 .4 1 .8.4.3 1.5-.8-.6-.3.2-.2-.4-.2-.6-.3h-.2l-.3-.5-1-1-.4-.3zm46.8.2-.5.3-.5.4-.5.3-.6.2h-1.2l-.6.2h-2.2l-.7 1h3.3l.8-.2.8-.2.8-.3.7-.3.7-.4.6-.4-1-.6zm-37.4 1-.4.2-1 .6-1 .7-.6.6-.3.3-.3.3-.6-.2-1.5.8 2.3 1.4 1.4 1 1.6-.8-1.5-1v-1.2l.2-.2.2-.2.5-.5.6-.5 1-.5.3-.3-1-.6zm-42 1-.7.2-1 .5h-.4l-1 .6v.2l-1 .5-1 .7-.8.7-.3.3 1 .3.3-.2.7-.6.8-.5 1-.6 1-.5 1-.5.4-.2-.3-.7zm-42.8 2.8-2 1.3-.5 1 3-2h .2l-.8-.4zm86 2.6-1.7.8.2.2.5.5.4.6.3.6.2.5.2.7 1.8-.5-.2-.8-.3-.8-.4-.6-.5-.6-.4-.6-.3-.2zm-50 .3h-1.5l-.5.4-.5.7-.4.8-.8 1.6-.2.7 1.6-.2.2-.7.8-1.5.4-.7.4-.7.3-.5zm52 5.4-1.8.2v.3l-.3 1-.4 1-.6 1.2-.5 1h1.6l.5-1 .6-1.3.5-1 .4-1.2v-.3zm-55 .5-1.6.3-.2.5-1 3.4v.2l1.5-.4h.2v-.2l1-3.3.3-.5zm-2 6.3-1.8.2-.4 1-.5 1-.4.7-.6.8-.5.8h1.5l.6-.7.5-1 .5-.8.5-1 .5-1zm52 0-.2.6-1 1.3-1.8 2.7 1.5.3 2-3 1-1.2.2-.6h-1.7zm-58.2 6.6-.2.2-1 .7-.6.5-.8.6-1.7 1-1.3.7.7 1 1.2-.8 2-1.2.8-.6.8-.6 1-.8.3-.3-1.3-.3zm53.2.5-.2.2-2.4 2.8-1.4 1.6 1.6.3 1.4-1.7 2.4-2.8.3-.4h-1.6zm-62 4.8-2 1-2.3 1-2.3 1 .3 1 2.4-1 2.5-1.2 2-1-.5-.8zm55.8 2.3-1.2 1.4-2.4 2.5-1 1 1.5.3 1-1 2.5-2.5 1.3-1.4-1.6-.3zm-7 7.3-.2.3h.6z" fill-rule="evenodd"/><g fill-rule="evenodd"><path d="m138.2 54.8-.4 1 11.4-1.3.5-1"/><path d="m147.3 50.8-8.3 8.2h1.6l8.3-8.4"/></g></svg>