<svg height="142.11905mm" viewBox="0 0 109.61309 142.11905" width="109.61309mm" xmlns="http://www.w3.org/2000/svg"><path d="m0 0v468.03711l62.720703 69.10547h351.564457v-537.14258zm150.0625 225.46484h232.22266v15.22071h-232.22266zm-36.57031 34.92383h268.79297v15.22071h-268.79297zm42.07031 34.92188h226.72266v15.2207h-226.72266zm-29.28516 34.92187h256.00782v15.2207h-256.00782zm-33.999996 34.92383h290.007816v15.21875h-290.007816zm-13.214844 34.92187h303.22266v15.22071h-303.22266zm-63.0625 51.95899h62.720703v69.10547zm128.84961-17.03711h237.43555v15.2207h-237.43555zm-12.14258 34.92188h249.57813v15.2207h-249.57813z" fill-rule="evenodd" transform="scale(.26458333)"/><g transform="translate(-69.213933 -134.243492)"><circle cx="88.824402" cy="149.63942" fill="#f9f9f9" fill-rule="evenodd" r="6.929256"/><path d="m85.723036 159.44655s-3.828281-.29351-5.559052 1.82594-2.483379 23.39276-2.483379 23.39276h8.239171 5.809258 8.239171s-.752621-21.27333-2.483378-23.39276-5.558794-1.82568-5.558794-1.82568-2.369604 5.37166-3.101635 5.37166-3.101362-5.37192-3.101362-5.37192z" fill="#f9f9f9" fill-rule="evenodd"/></g></svg>