<svg height="277.06158mm" viewBox="0 0 1005.7142 981.71427" width="283.8349mm" xmlns="http://www.w3.org/2000/svg"><g fill-rule="evenodd" transform="translate(199.42859 34.209217)"><circle cx="104.85713" cy="456.64792" r="92.85714"/><circle cx="507.71426" cy="456.64792" r="92.85714"/><circle cx="-443.75443" cy="493.57516" r="92.85714" transform="matrix(.5 -.8660254 .8660254 .5 0 0)"/><circle cx="-40.897282" cy="493.57516" r="92.85714" transform="matrix(.5 -.8660254 .8660254 .5 0 0)"/><circle cx="-750.0401" cy="36.927238" r="92.85714" transform="matrix(-.5 -.8660254 .8660254 -.5 0 0)"/><circle cx="-347.18298" cy="36.927238" r="92.85714" transform="matrix(-.5 -.8660254 .8660254 -.5 0 0)"/><circle cx="713.42853" cy="456.64792" r="92.85714"/><circle cx="-106.57145" cy="456.64792" r="92.85714"/><circle cx="713.42853" cy="456.64792" r="92.85714" transform="matrix(.8660254 .5 -.5 .8660254 256.97567 -102.53505)"/><circle cx="97.493073" cy="248.14676" r="92.85714" transform="matrix(.8660254 .5 -.5 .8660254 0 0)"/><circle cx="713.42853" cy="456.64792" r="92.85714" transform="matrix(.5 .8660254 -.8660254 .5 547.18296 -34.452872)"/><circle cx="137.18297" cy="-34.452862" r="92.85714" transform="matrix(.5 .8660254 -.8660254 .5 0 0)"/><circle cx="713.42853" cy="456.64792" r="92.85714" transform="matrix(0 1 -1 0 760.07645 141.21937)"/><circle cx="58.647923" cy="-303.42853" r="92.85714" transform="rotate(90)"/><circle cx="713.42853" cy="456.64792" r="92.85714" transform="matrix(-.5 .8660254 -.8660254 -.5 850.6115 422.19505)"/><circle cx="-166.24556" cy="-491.10077" r="92.85714" transform="matrix(-.5 .8660254 -.8660254 -.5 0 0)"/><circle cx="713.42853" cy="456.64792" r="92.85714" transform="matrix(-.8660254 .5 -.5 -.8660254 802.52931 692.40234)"/><circle cx="-428.06052" cy="-551.57532" r="92.85714" transform="matrix(-.8660254 .5 -.5 -.8660254 0 0)"/><circle cx="713.42853" cy="456.64792" r="92.85714" transform="matrix(0 1 -1 0 760.07645 -258.78063)"/></g></svg>