<?xml version="1.0" encoding="UTF-8" standalone="no"?>
<!-- Created with Inkscape (http://www.inkscape.org/) -->

<svg
   xmlns:dc="http://purl.org/dc/elements/1.1/"
   xmlns:cc="http://creativecommons.org/ns#"
   xmlns:rdf="http://www.w3.org/1999/02/22-rdf-syntax-ns#"
   xmlns:svg="http://www.w3.org/2000/svg"
   xmlns="http://www.w3.org/2000/svg"
   xmlns:sodipodi="http://sodipodi.sourceforge.net/DTD/sodipodi-0.dtd"
   xmlns:inkscape="http://www.inkscape.org/namespaces/inkscape"
   version="1.1"
   id="svg4558"
   width="1333.3333"
   height="1333.3333"
   viewBox="0 0 1333.3333 1333.3333"
   sodipodi:docname="Lightbulb.svg"
   inkscape:version="0.92.2 5c3e80d, 2017-08-06">
  <metadata
     id="metadata4564">
    <rdf:RDF>
      <cc:Work
         rdf:about="">
        <dc:format>image/svg+xml</dc:format>
        <dc:type
           rdf:resource="http://purl.org/dc/dcmitype/StillImage" />
        <dc:title></dc:title>
      </cc:Work>
    </rdf:RDF>
  </metadata>
  <defs
     id="defs4562" />
  <sodipodi:namedview
     pagecolor="#ffffff"
     bordercolor="#666666"
     borderopacity="1"
     objecttolerance="10"
     gridtolerance="10"
     guidetolerance="10"
     inkscape:pageopacity="0"
     inkscape:pageshadow="2"
     inkscape:window-width="1912"
     inkscape:window-height="1046"
     id="namedview4560"
     showgrid="false"
     inkscape:zoom="0.63600004"
     inkscape:cx="855.34586"
     inkscape:cy="666.66663"
     inkscape:window-x="0"
     inkscape:window-y="0"
     inkscape:window-maximized="0"
     inkscape:current-layer="svg4558" />
  <path
     style="fill:#000000;stroke-width:1.33333325"
     d="m 732.59004,1298.736 c -5.18239,-0.6503 -10.88239,-1.7428 -12.66667,-2.4278 -8.136,-3.1233 -29.09338,-23.1008 -33.97222,-32.3837 -1.28516,-2.4452 -3.35069,-3.792 -6.81164,-4.4413 -3.70123,-0.6943 -7.4834,-3.368 -14.84,-10.4905 -11.80813,-11.4325 -19.4414,-21.3404 -29.15321,-37.8409 -5.9573,-10.1214 -7.24096,-13.4052 -7.29699,-18.6666 -0.0375,-3.5139 -1.21501,-8.6512 -2.61903,-11.4256 -3.41964,-6.7575 -3.2179,-10.0252 1.00232,-16.2359 5.73035,-8.4329 5.75448,-16.02 0.0859,-26.988 -4.56992,-8.8421 -4.63699,-9.1932 -2.68712,-14.0684 1.09988,-2.75 2.47691,-5 3.06007,-5 1.66814,0 3.98782,-7.8833 3.98782,-13.5525 0,-3.2634 -1.46757,-7.755 -4,-12.2422 -2.2,-3.8981 -4,-8.3682 -4,-9.9335 0,-1.5652 1.8,-5.6842 4,-9.1532 5.0788,-8.0084 5.27374,-15.6931 0.63716,-25.1186 -3.80902,-7.7432 -4.13001,-12.5348 -1.21705,-18.1678 1.89348,-3.6616 1.89348,-4.3304 0,-7.2202 -1.14773,-1.7517 -2.08679,-4.4192 -2.08679,-5.9278 0,-1.8186 -2.12826,-4.0926 -6.31546,-6.7481 -5.40579,-3.4283 -6.25819,-4.5512 -5.91779,-7.7964 0.25328,-2.4147 -0.32449,-4.06845 -1.59119,-4.55453 -2.59953,-0.99753 -3.25328,-6.92404 -4.07242,-36.91853 -0.89168,-32.65066 -4.0044,-61.69622 -10.93099,-102 -6.43111,-37.42071 -31.87725,-119.64617 -47.79826,-154.45308 -1.85564,-4.05682 -3.37388,-7.75025 -3.37388,-8.2076 0,-1.06466 -9.45154,-21.21204 -15.64014,-33.33932 -7.8958,-15.47272 -18.23896,-32.5098 -29.14068,-48 -52.06189,-73.9745 -74.20671,-139.25901 -73.94666,-217.99999 0.16068,-48.65197 6.44127,-81.18642 24.70961,-128 23.32537,-59.77246 59.93523,-108.28415 111.3512,-147.55143 67.17408,-51.302017 153.48233,-77.004687 232.66666,-69.288322 49.27934,4.802181 87.80366,14.502617 123.15137,31.009561 6.86659,3.20661 12.66287,5.830201 12.88061,5.830201 0.88448,0 20.54152,11.3111 28.62679,16.4725 28.469,18.17375 60.83864,47.04854 78.69004,70.19416 2.5452,3.3 5.0901,6.6 5.6553,7.33334 0.5652,0.73333 2.8134,3.73333 4.9959,6.66666 2.1825,2.93334 4.437,5.93334 5.01,6.66667 9.344,11.95787 34.607,57.98708 41.0718,74.833 6.0804,15.84414 12.3282,35.59428 14.4991,45.83366 0.3887,1.83334 1.9413,9.03334 3.4502,16 9.9465,45.92188 8.1429,104.25175 -4.7207,152.66666 -10.9932,41.37543 -31.0826,82.1125 -66.2339,134.30804 -32.545,48.3256 -68.29288,131.61848 -83.70146,195.02529 -7.84033,32.26328 -9.70473,42.4618 -18.64664,102 -1.92592,12.82345 -2.82967,26.63158 -3.14253,48.01392 -0.37351,25.52598 -0.77864,30.53202 -2.70944,33.4788 -1.24866,1.90564 -1.9244,4.36614 -1.5017,5.46774 0.52531,1.3689 -1.36428,3.3716 -5.96974,6.3269 -3.95574,2.5384 -6.73834,5.3049 -6.73834,6.6993 0,1.3063 -0.85252,4.0185 -1.89449,6.0269 -1.89395,3.6506 -1.54115,7.3198 0.70381,7.3198 0.65487,0 1.19068,3.1702 1.19068,7.045 0,5.7828 0.83607,8.3426 4.66667,14.2883 2.56667,3.9839 4.65131,8.1637 4.63253,9.2884 -0.0188,1.1247 -2.11876,5.3172 -4.66666,9.3165 -5.46388,8.5765 -6.06567,15.6297 -1.94096,22.7493 6.32313,10.9142 6.84346,12.9154 4.69513,18.0571 -1.09033,2.6095 -3.19839,6.2904 -4.68456,8.1798 -4.18271,5.3175 -3.64621,14.3049 1.29785,21.7423 5.89367,8.8658 5.19922,16.1072 -2.27877,23.7619 -1.95449,2.0007 -1.9484,1.9359 -1.73192,18.3962 0.15715,11.949 0.0569,12.3549 -5.82944,23.6081 -6.16245,11.7811 -13.8142,22.924 -22.09956,32.1827 -15.68608,17.5289 -17.82087,19.4212 -22.80996,20.219 -4.10275,0.6561 -5.71597,1.9104 -9.02535,7.0176 -3.91165,6.0367 -15.84097,18.4606 -23.16167,24.1218 -1.98184,1.5326 -6.48184,4.0745 -10,5.6486 -6.0007,2.6849 -8.79016,2.8827 -45.06332,3.1952 -21.26667,0.1833 -42.9068,-0.1989 -48.08919,-0.8491 z m 83.35689,-96.0792 c 3.70276,-0.7941 6.72311,-1.8441 6.71188,-2.3333 -0.0308,-1.3416 -2.60229,-5.0574 -2.62584,-3.7943 -0.0107,0.6024 -0.92758,0.1881 -2.03634,-0.9207 -1.10876,-1.1087 -4.77708,-2.43 -8.15184,-2.936 -8.58566,-1.2875 -37.67868,0.1132 -42.4989,2.046 -2.2,0.8822 -6.35285,2.0127 -9.22856,2.5121 -8.73881,1.5177 -7.20689,3.8072 3.49543,5.224 13.64925,1.8069 46.28524,1.9284 54.33417,0.2022 z m -5.2677,-17.2228 c 4.39974,-1.4091 -21.01375,-1.461 -30,-0.061 -5.15871,0.8035 -2.89675,1.0487 10,1.0837 9.16666,0.025 18.16666,-0.4352 20,-1.0223 z m -14.33996,-15.9952 c 18.64824,-1.2081 37.00662,-4.656 37.00662,-6.9503 0,-1.4318 -15.21665,-1.3281 -32.10176,0.2186 -7.64404,0.7002 -19.15025,1.6542 -25.56938,2.1201 -6.45899,0.4687 -11.3363,1.3887 -10.92132,2.0602 0.41241,0.6673 -0.45016,1.2132 -1.91683,1.2132 -1.46667,0 -3.03748,0.6 -3.49071,1.3334 -1.04201,1.686 11.01706,1.6876 36.99338,0.01 z m 20.80393,-18.616 c 6.85519,-0.6631 12.85135,-1.593 13.3248,-2.0665 1.44964,-1.4496 -7.75141,-8.0632 -13.60248,-9.7773 -8.81665,-2.5828 -52.11304,1.1674 -59.46249,5.1505 -1.37352,0.7444 -0.29906,1.4956 3.66666,2.5634 5.59016,1.5053 7.10827,3.2474 3.94287,4.5247 -2.91899,1.1778 39.16745,0.8591 52.13064,-0.3948 z m -15.04765,-27.4411 c 22.40046,-1.3691 39.64537,-7.2895 21.18368,-7.2726 -15.30246,0.014 -58.56704,3.9285 -59.04444,5.3421 -0.24446,0.7239 -2.04446,1.4013 -4,1.5053 -2.59299,0.138 -2.1117,0.4341 1.77777,1.0939 5.35615,0.9085 17.62656,0.7038 40.08299,-0.6687 z m 6.3455,-17.8558 c 10.96518,-0.6005 20.40798,-1.7284 21.21344,-2.5339 1.91494,-1.9149 -2.99005,-6.0383 -10.83442,-9.1079 -5.31918,-2.0815 -7.91167,-2.1479 -28.13023,-0.7209 -13.06215,0.9219 -25.17107,2.5084 -29.28449,3.8369 l -7.01344,2.2651 6.4476,1.88 c 6.00198,1.7501 6.27076,2.0094 3.88882,3.7511 -2.25697,1.6503 -0.99537,1.8616 10.69606,1.7914 7.29016,-0.044 22.14765,-0.5666 33.01666,-1.1618 z m -2.42849,-28.0796 c 7.33333,-0.6772 16.63333,-2.2314 20.66667,-3.4538 6.63425,-2.0106 7.03193,-2.3354 4.17162,-3.4073 -4.30314,-1.6127 -59.45446,2.4993 -65.50496,4.8839 -2.56666,1.0116 -5.86666,2.0979 -7.33333,2.414 -5.26237,1.1344 34.94795,0.7684 48,-0.4368 z m 13.37599,-18.1395 c 11.36992,-0.9747 12.98769,-2.303 7.95734,-6.5331 -2.2,-1.8501 -5.65,-3.7333 -7.66666,-4.1851 -4.89488,-1.0964 -4.6255,-2.8901 0.77281,-5.1456 5.33552,-2.2294 8.32323,-5.3803 6.29193,-6.6357 -0.76894,-0.4752 -1.39808,-1.9619 -1.39808,-3.3036 0,-2.9333 -4.75432,-4.026 -21.27678,-4.8901 -14.65559,-0.7664 -48.87994,0.8208 -46.7034,2.166 1.18198,0.7305 0.8401,1.2916 -1.17698,1.9318 -4.04161,1.2827 -3.52322,3.0946 1.4905,5.2095 l 4.33333,1.8279 -5.33333,1.0865 c -5.25868,1.0714 -5.18636,1.1098 5.16682,2.7428 11.75894,1.8547 15.45211,3.9029 9.35936,5.1906 -9.45553,1.9985 -15.31697,3.7874 -15.99297,4.8812 -0.40228,0.6509 -0.23683,1.0676 0.36768,0.926 2.25708,-0.5287 11.09911,1.8664 11.09911,3.0065 0,0.6517 -0.6,1.1849 -1.33334,1.1849 -0.73333,0 -1.33333,0.6018 -1.33333,1.3373 0,1.3058 37.06832,0.7718 55.37599,-0.7978 z m 4.46056,-50.5983 c 0.33434,-0.3343 -6.0567,-0.6079 -14.20231,-0.6079 -9.59143,0 -15.13908,0.5322 -15.74353,1.5102 -0.68635,1.1105 3.07214,1.2714 14.20229,0.6079 8.3246,-0.4962 15.4092,-1.1759 15.74355,-1.5102 z m 7.49678,-5.1438 c 11.73333,-0.192 23.58333,-0.6103 26.33333,-0.9297 2.75,-0.3193 5,-0.1551 5,0.3649 0,1.5293 18.88218,-0.2897 24.3629,-2.3468 2.76626,-1.03836 11.40352,-2.44135 19.1939,-3.1178 11.5274,-1.00095 14.67987,-1.74543 16.9334,-3.99898 2.34988,-2.34988 2.43506,-2.76905 0.56262,-2.76905 -4.48492,0 -5.42018,-11.36585 -1.80759,-21.96731 1.24333,-3.64869 2.80596,-7.29108 3.47249,-8.0942 0.66654,-0.80313 1.37772,-8.76614 1.58042,-17.69561 0.36077,-15.89372 1.66569,-21.18869 2.77074,-11.24288 0.30555,2.75 0.28078,0.5 -0.0551,-5 -0.33582,-5.5 -1.15131,-10.2 -1.8122,-10.44444 -1.54524,-0.57155 -1.52167,-6.98543 0.0347,-9.44427 0.70587,-1.11516 0.7028,-3.1846 -0.008,-5.05284 -0.71937,-1.89209 -0.70522,-6.67916 0.0352,-11.90744 0.8021,-5.66373 0.76824,-9.97937 -0.0961,-12.25274 -0.91856,-2.416 -0.89293,-3.6566 0.0823,-3.98165 0.77961,-0.2597 1.41705,-2.82218 1.41705,-5.69439 0,-2.87223 0.6,-5.22223 1.33333,-5.22223 0.73334,0 1.33334,-2.4 1.33334,-5.33333 0,-2.93333 0.6,-5.33333 1.33333,-5.33333 1.86061,0 1.67931,-10.32912 -0.19227,-10.95298 -1.13474,-0.37825 -1.11002,-1.76769 0.0965,-5.42352 0.89216,-2.70322 1.20578,-6.22664 0.69697,-7.82978 -0.87953,-2.77116 -1.14715,-2.65792 -5.42983,2.29782 -2.47758,2.86695 -4.5047,6.32538 -4.5047,7.68538 0,1.36 -1.2,2.78653 -2.66667,3.17008 -1.46667,0.38354 -2.66667,1.52737 -2.66667,2.54184 0,1.01446 -0.6,1.84449 -1.33333,1.84449 -1.87005,0 -1.67084,-3.66528 0.23371,-4.30012 0.86186,-0.28729 1.6968,-2.88729 1.85541,-5.77779 0.47605,-8.67661 1.94351,-12.58876 4.72205,-12.58876 2.32774,0 2.52212,-1.18181 2.52212,-15.33333 v -15.33333 h -5.33333 c -5.01325,0 -5.33333,-0.23534 -5.33333,-3.92131 0,-2.15672 0.6,-4.29213 1.33333,-4.74536 0.73333,-0.45323 1.35235,-3.63864 1.37557,-7.07869 0.0496,-7.34932 3.27531,-31.8828 4.63528,-35.25464 0.51762,-1.28333 1.3989,-2.33333 1.9584,-2.33333 0.92435,0 1.6683,-3.92926 3.28183,-17.33334 0.30896,-2.56666 1.37415,-10.21666 2.36707,-17 0.99293,-6.78333 1.46658,-12.33333 1.05257,-12.33333 -1.84529,0 -4.35233,9.24039 -4.06971,15 0.247,5.03343 -0.1248,6.33333 -1.81178,6.33333 -1.1674,0 -2.12256,1.02 -2.12256,2.26667 0,1.72848 -0.36978,1.89689 -1.55735,0.70932 -1.18757,-1.18757 -0.95273,-3.54612 0.98911,-9.93333 2.66548,-8.76754 3.2769,-18.74307 1.39188,-22.70932 -0.87202,-1.83482 -0.50874,-2.33334 1.70037,-2.33334 2.39665,0 2.80932,-0.79705 2.80932,-5.42606 0,-4.83107 -0.32173,-5.37935 -2.93401,-5 -2.32906,0.33821 -3.22255,1.7784 -4.33334,6.98466 -0.76962,3.60723 -2.21261,6.82834 -3.20662,7.158 -1.37672,0.45659 -1.59459,-0.36914 -0.91443,-3.46589 0.73091,-3.32781 0.36764,-4.34639 -2.00251,-5.61485 -2.1174,-1.1332 -2.49865,-1.9463 -1.4189,-3.02604 0.81206,-0.81207 1.47648,-2.83538 1.47648,-4.49624 0,-3.95106 4.37866,-6.38499 8,-4.44691 2.1284,1.13908 2.66666,1.01399 2.66666,-0.61976 0,-3.07597 0.3118,-3.88251 2.25035,-5.82107 0.97579,-0.97578 1.43324,-2.32578 1.01655,-3 -1.24787,-2.0191 -4.24867,-1.38817 -5.26736,1.1075 -0.87432,2.14197 -1.04236,2.11462 -2.04894,-0.33334 -1.63834,-3.98441 -1.48777,-6 0.44822,-6 2.21761,0 5.08105,-7.83302 4.15496,-11.36604 -0.38916,-1.48466 0.20677,-4.46177 1.3243,-6.61581 1.53326,-2.95533 1.64256,-4.15703 0.44542,-4.89691 -0.87255,-0.53926 -2.01966,-0.27952 -2.54914,0.5772 -1.60217,2.59235 -2.76177,0.0589 -1.25862,-2.74976 1.09142,-2.03933 0.87301,-3.08854 -0.99476,-4.77886 -2.22376,-2.01247 -2.59836,-1.94747 -5.29043,0.91812 -1.59347,1.69616 -2.91391,4.24526 -2.93431,5.66466 -0.0204,1.4194 -1.8204,4.93762 -4,7.81826 -2.7901,3.6875 -3.9629,6.74558 -3.9629,10.33333 0,2.86316 -0.65232,5.09581 -1.48884,5.09581 -0.93314,0 -1.1386,1.11975 -0.55047,3 1.57924,5.04883 1.96451,14.22219 0.63191,15.04578 -0.6926,0.42805 -1.25927,-0.41136 -1.25927,-1.86536 0,-4.4729 -3.05993,-16.18042 -4.229,-16.18042 -0.60739,0 -1.10433,1.16459 -1.10433,2.58798 0,1.42338 -0.6,2.9588 -1.33334,3.41202 -0.83712,0.51738 -1.33333,-2.4306 -1.33333,-7.9213 0,-5.60848 -0.54005,-8.74536 -1.50561,-8.74536 -1.06032,0 -1.23823,-2.71358 -0.60154,-9.17503 0.49726,-5.04625 0.50974,-10.74625 0.0277,-12.66667 -0.75756,-3.01836 -1.57967,-3.49164 -6.06514,-3.49164 -4.64581,0 -5.18878,-0.34881 -5.18878,-3.33333 0,-2.66666 -0.66667,-3.33333 -3.33334,-3.33333 -3,0 -3.33333,-0.53333 -3.33333,-5.33333 0,-3.85186 -0.55556,-5.33334 -2,-5.33334 -1.61111,0 -2,2.07408 -2,10.66667 0,8.59258 0.38889,10.66666 2,10.66666 1.1,0 2,0.61883 2,1.37518 0,0.75636 -0.9,1.72054 -2,2.14265 -1.49699,0.57445 -2.00509,2.99515 -2.02024,9.62483 -0.0107,4.87153 -0.81484,11.51492 -1.786,14.76308 l -1.76576,5.90573 -0.88067,-6.42516 c -0.48437,-3.53384 -0.88066,-8.74143 -0.88066,-11.5724 0,-2.83099 -0.6,-5.14724 -1.33334,-5.14724 -0.73333,0 -1.33333,2.4 -1.33333,5.33333 0,2.93334 -0.6,5.33334 -1.33333,5.33334 -0.73334,0 -1.33334,0.9 -1.33334,2 0,1.33333 -1.33333,2 -4,2 -4.56877,0 -4.9042,0.79089 -1.79334,4.22834 2.08512,2.30403 2.01168,2.43832 -1.33334,2.43832 -3.46801,0 -3.53998,-0.1762 -3.53998,-8.66666 v -8.66667 h -16 c -9.77777,0 -16,0.51852 -16,1.33333 0,0.73334 -2.4,1.33334 -5.33333,1.33334 -3.85186,0 -5.33334,0.55556 -5.33334,2 0,1.24444 -1.25925,2 -3.33333,2 -3,0 -3.33333,0.53333 -3.33333,5.33333 0,3.85185 -0.55556,5.33333 -2,5.33333 -1.1,0 -2,0.82654 -2,1.83675 0,1.0102 -0.96494,2.63755 -2.14428,3.61633 -1.82187,1.51202 -2.42331,1.398 -4,-0.75825 -2.73768,-3.744 -2.30342,-4.69483 2.14428,-4.69483 3.77777,0 4,-0.29629 4,-5.33333 0,-2.93333 -0.62878,-5.33333 -1.3973,-5.33333 -0.7685,0 -2.8577,-1.65 -4.64266,-3.66667 -2.76016,-3.11847 -3.45436,-3.36765 -4.64322,-1.66667 -1.0603,1.51708 -1.19217,1.11466 -0.54612,-1.66666 0.97288,-4.18828 -0.68393,-4.69851 -6.49448,-2 -4.3719,2.03037 -4.69385,5.69272 -0.60956,6.93422 1.81748,0.55247 2.34304,1.18312 1.33334,1.59995 -0.94108,0.38851 -1.66667,3.01109 -1.66667,6.02405 0,4.42243 -0.79897,6.04335 -4.66667,9.46755 -5.62569,4.98061 -5.82717,6.27328 -1,6.41585 l 3.66667,0.10827 -4,1.83156 c -5.25997,2.40851 -7.33333,2.39489 -7.33333,-0.0481 0,-1.24444 -1.25926,-2 -3.33334,-2 -3.04792,0 -3.33333,0.49977 -3.33333,5.83674 0,3.5616 -0.77959,6.48374 -2,7.49659 -1.10392,0.91617 -2,1.06533 -2,0.33289 0,-0.72981 -3.03825,-1.61888 -6.75165,-1.97569 -6.11612,-0.58768 -7.1202,-0.28023 -10.66667,3.26625 -5.20335,5.20335 -4.94239,6.37656 1.41832,6.37656 3.85185,0 5.33333,0.55556 5.33333,2 0,1.42278 -1.44532,2 -5.00785,2 -4.28193,0 -5.26451,-0.57982 -6.77843,-4 -1.94722,-4.3991 -3.51846,-5.0683 -4.69589,-2 -0.42211,1.1 -0.18629,2 0.52401,2 0.71032,0 1.2915,2.95646 1.2915,6.5699 0,5.4198 -0.58352,7.02889 -3.33334,9.19189 -3.73205,2.93563 -4.36285,5.57155 -1.33333,5.57155 1.4732,0 2,1.53741 2,5.83674 0,3.5616 -0.77959,6.48374 -2,7.49659 -1.1,0.91292 -2,3.08639 -2,4.82992 0,1.92896 -0.78303,3.17008 -2,3.17008 -1.44444,0 -2,1.48148 -2,5.33333 0,3.85186 0.55556,5.33334 2,5.33334 1.44444,0 2,1.48148 2,5.33333 0,3.85185 -0.55556,5.33333 -2,5.33333 -1.44444,0 -2,1.48148 -2,5.33333 0,2.93334 -0.6,5.33334 -1.33333,5.33334 -0.73334,0 -1.33334,2.4 -1.33334,5.33333 0,3.58319 -0.58949,5.33333 -1.79638,5.33333 -1.40378,0 -1.78474,-3.30308 -1.74303,-15.11326 0.0485,-13.76496 -0.20813,-15.39392 -2.87764,-18.25931 -2.32724,-2.498 -3.27049,-2.80654 -4.57916,-1.49788 -1.16446,1.16447 -1.22154,1.92535 -0.19451,2.59264 1.86672,1.21286 3.58768,15.87509 1.97995,16.86873 -0.66839,0.41308 -2.15409,0.3908 -3.30158,-0.0495 -1.6365,-0.62799 -1.98346,-2.42566 -1.60922,-8.33767 0.2624,-4.14537 0.20726,-6.18705 -0.12253,-4.53705 -0.37379,1.87 -1.57075,3 -3.17776,3 -1.41796,0 -2.57811,0.9 -2.57811,2 0,1.1 0.66246,2 1.47211,2 1.02993,0 1.18849,3.20394 0.52789,10.66666 -0.6606,7.46272 -0.50204,10.66667 0.5279,10.66667 0.80965,0 1.57693,-2.55 1.70505,-5.66667 l 0.23293,-5.66666 0.5104,5.66666 c 0.34332,3.81188 1.13992,5.66667 2.43372,5.66667 2.75267,0 2.68251,11.42337 -0.0767,12.48217 -3.69944,1.4196 -2.04195,4.4165 3.33333,6.02696 2.93333,0.87886 5.33333,2.40868 5.33333,3.39962 -3e-5,2.46257 -9.54744,6.09118 -16.02701,6.09118 -3.82787,0 -5.30635,0.55726 -5.30635,2 0,1.1637 1.21056,2 2.89502,2 5.25762,0 7.77165,3.73303 7.77165,11.53999 0,3.91967 0.6,7.12668 1.33333,7.12668 0.73334,0 1.33334,3 1.33334,6.66667 0,3.66666 -0.6,6.66666 -1.33334,6.66666 -0.73333,0 -1.33333,-0.92801 -1.33333,-2.06224 0,-1.77076 -0.46524,-1.72364 -3.29144,0.33334 -2.46951,1.79736 -3.30189,3.64414 -3.33333,7.39557 -0.0231,2.75 0.5581,5 1.29144,5 0.73333,0 1.33333,2.4 1.33333,5.33333 0,2.93334 -0.50503,5.33334 -1.12228,5.33334 -2.84488,0 -4.12225,10.70334 -3.30827,27.72067 0.61755,12.91044 0.43151,17.61266 -0.69682,17.61266 -0.84662,0 -1.5393,-0.6 -1.5393,-1.33334 0,-0.73333 -1.41714,-1.33333 -3.14921,-1.33333 -2.88347,0 -3.22133,0.70403 -4.00401,8.34348 -0.47015,4.58892 -0.27851,12.83892 0.42586,18.33333 0.70438,5.49442 0.91132,20.93986 0.45987,34.32319 -0.75732,22.45108 -1.01077,24.33333 -3.27665,24.33333 -1.96774,0 -2.45586,1.03838 -2.45586,5.22428 0,2.87336 -0.36418,6.17336 -0.80932,7.33334 -0.44512,1.15998 -0.14512,2.10905 0.66667,2.10905 0.8118,0 1.47599,-0.9 1.47599,-2 0,-1.1 0.97346,-2 2.16325,-2 1.69737,0 1.83145,0.39981 0.62256,1.85643 -1.2618,1.52038 -0.38624,2.11948 4.83675,3.30954 3.50758,0.79922 10.57744,1.78091 15.71077,2.18154 5.13333,0.40064 14.13333,1.35568 20,2.12233 16.15232,2.1107 31.05365,2.9329 55.66509,3.0713 12.28247,0.069 22.33247,0.5605 22.33333,1.0922 8.7e-4,0.5317 1.65158,0.6396 3.66824,0.2399 2.01667,-0.3998 13.26667,-0.8839 25,-1.0758 z m 17.75,-1.7082 c 0.96249,-0.3852 2.11251,-0.3378 2.55556,0.1052 0.44305,0.443 -0.34445,0.7581 -1.75,0.7003 -1.55327,-0.064 -1.8692,-0.38 -0.80556,-0.8056 z M 696.14547,953.76727 c 0.16671,-6.27163 1.72493,-12.06503 2.77569,-10.31989 1.15568,1.9194 -0.37061,15.31989 -1.7449,15.31989 -0.64003,0 -1.10388,-2.25 -1.03079,-5 z M 924.01256,936.1793 c 0,-0.69006 0.6,-1.62547 1.33333,-2.0787 0.73333,-0.45322 1.33333,0.11134 1.33333,1.25464 0,1.14328 -0.6,2.0787 -1.33333,2.0787 -0.73333,0 -1.33333,-0.56459 -1.33333,-1.25464 z m -226.64625,-6.41203 c -0.0112,-1.65 0.57959,-3 1.31292,-3 1.67056,0 1.67056,1.41499 0,4 -1.04516,1.61728 -1.2964,1.42592 -1.31292,-1 z M 695.6039,907.1006 c -0.93488,-4.76408 1.0842,-6.89589 3.88168,-4.09841 1.68824,1.68824 1.81266,2.69609 0.61024,4.94287 -2.05532,3.84038 -3.6307,3.54422 -4.49192,-0.84446 z m 224.40866,-92.33333 c 0,-4.44444 0.44444,-5.33333 2.66666,-5.33333 2.22223,0 2.66667,0.88889 2.66667,5.33333 0,4.44444 -0.44444,5.33334 -2.66667,5.33334 -2.22222,0 -2.66666,-0.8889 -2.66666,-5.33334 z m 5.4386,-92.77777 c 0.064,-1.55326 0.37992,-1.8692 0.80554,-0.80556 0.38516,0.9625 0.3378,2.11251 -0.1052,2.55556 -0.44305,0.44306 -0.75818,-0.34445 -0.70029,-1.75 z m -30.77194,-17.14353 c 0,-1.14328 0.6,-2.07869 1.33334,-2.07869 0.73333,0 1.33333,0.56458 1.33333,1.25464 0,0.69005 -0.6,1.62546 -1.33333,2.07869 -0.73334,0.45323 -1.33334,-0.11133 -1.33334,-1.25464 z m 14.66667,-11.26937 c 0,-0.65488 0.86944,-1.52432 1.93209,-1.9321 1.29136,-0.49554 1.68623,-0.10066 1.19068,1.19068 -0.80928,2.10898 -3.12277,2.65824 -3.12277,0.74142 z m -5.11507,-6.80932 c -0.13618,-3.3 -0.61952,-8.25 -1.07406,-11 -0.76243,-4.61267 -0.58054,-4.99842 2.34801,-4.97959 2.52613,0.0163 2.76599,0.28025 1.17445,1.29265 -1.60136,1.01866 -1.68685,1.77776 -0.42889,3.80848 0.88607,1.43039 1.06812,3.04687 0.41751,3.70735 -0.63448,0.64411 -1.38666,3.87111 -1.6715,7.17111 l -0.5179,6 z m 10.19535,-2 c -0.29965,-2.56667 -0.0653,-4.66667 0.52079,-4.66667 0.58608,0 1.0656,2.1 1.0656,4.66667 0,2.56666 -0.23436,4.66666 -0.52079,4.66666 -0.28644,0 -0.76596,-2.1 -1.0656,-4.66666 z m -17.5614,-10.66392 c -1.19049,-3.10239 -1.11008,-3.33608 1.14779,-3.33608 2.2446,0 2.49781,1.15026 0.8318,3.77846 -0.89931,1.4187 -1.29976,1.3292 -1.97959,-0.44238 z m -130.18554,-4.62758 c 0,-0.7103 0.9,-0.94612 2,-0.52401 1.1,0.42212 2,1.00328 2,1.29149 0,0.2882 -0.9,0.52402 -2,0.52402 -1.1,0 -2,-0.58118 -2,-1.2915 z m 147.33333,-8.04184 c -0.45323,-0.73333 -0.18864,-1.33333 0.58797,-1.33333 0.77661,0 1.41203,0.6 1.41203,1.33333 0,0.73334 -0.26459,1.33334 -0.58798,1.33334 -0.32338,0 -0.9588,-0.6 -1.41202,-1.33334 z m -94,-17.33333 c 0,-3.85185 0.55556,-5.33333 2,-5.33333 1.44444,0 2,1.48148 2,5.33333 0,3.85185 -0.55556,5.33333 -2,5.33333 -1.44444,0 -2,-1.48148 -2,-5.33333 z m 68,-10.66667 c 0,-4.44444 0.44444,-5.33333 2.66666,-5.33333 2.22223,0 2.66667,0.88889 2.66667,5.33333 0,4.44444 -0.44444,5.33334 -2.66667,5.33334 -2.22222,0 -2.66666,-0.8889 -2.66666,-5.33334 z m -7.69444,-6.91666 c 0.82409,-2.4723 3.69444,-2.88235 3.69444,-0.52778 0,1.16111 -0.95,2.11111 -2.11111,2.11111 -1.16112,0 -1.87361,-0.71251 -1.58333,-1.58333 z M 728.34589,1001.8842 c -0.91666,-0.3698 -2.41666,-0.3698 -3.33333,0 -0.91667,0.3699 -0.16667,0.6726 1.66667,0.6726 1.83333,0 2.58333,-0.3027 1.66666,-0.6726 z M 680.96934,896.45227 c -0.30647,-2.02675 -0.56542,-0.685 -0.57543,2.98167 -0.009,3.66666 0.24075,5.32492 0.55723,3.685 0.31648,-1.63992 0.32468,-4.63992 0.0181,-6.66667 z m 11.04322,-49.09702 c 0,-1.14328 -0.60978,-1.70182 -1.35508,-1.2412 -0.74529,0.46061 -1.00989,1.39602 -0.58797,2.07869 1.14297,1.84939 1.94305,1.50455 1.94305,-0.83749 z m 245.31292,-28.25464 c -0.0149,-2.66852 -0.34424,-3.15514 -1.20998,-1.78758 -0.65425,1.0335 -0.88088,2.6835 -0.5036,3.66667 1.08195,2.81949 1.73575,2.10255 1.71358,-1.87909 z m -10.64626,-34.41203 c 0,-1.93515 -0.57712,-3.05533 -1.33333,-2.58797 -0.73333,0.45322 -1.33333,1.98864 -1.33333,3.41202 0,1.42339 0.6,2.58798 1.33333,2.58798 0.73333,0 1.33333,-1.53542 1.33333,-3.41203 z m -1.33333,-12.58797 c 0,-3.85186 -0.55556,-5.33334 -2,-5.33334 -1.44444,0 -2,1.48148 -2,5.33334 0,3.85185 0.55556,5.33333 2,5.33333 1.44444,0 2,-1.48148 2,-5.33333 z M 691.636,748.45227 c -0.30646,-2.02674 -0.56541,-0.685 -0.57542,2.98167 -0.009,3.66667 0.24074,5.32492 0.55722,3.685 0.31648,-1.63992 0.32468,-4.63992 0.0181,-6.66667 z m 21.31753,-54.01833 c -0.3178,-1.65 -0.57782,-0.3 -0.57782,3 0,3.3 0.26002,4.65 0.57782,3 0.31782,-1.65 0.31782,-4.35 0,-6 z m 227.05903,-41.71978 c 0,-1.12922 1.2,-4.40531 2.66666,-7.28022 2.63934,-5.17352 3.59764,-12.04532 1.66667,-11.95132 -0.55,0.0268 -2.62917,2.62266 -4.62039,5.76862 -2.88534,4.55861 -3.45901,6.71438 -2.82554,10.61798 0.77654,4.78528 3.1126,6.92046 3.1126,2.84494 z m -9.33334,-4.61355 c 0,-0.73333 -0.56458,-1.33333 -1.25464,-1.33333 -0.69005,0 -1.62546,0.6 -2.07869,1.33333 -0.45323,0.73333 0.11133,1.33333 1.25464,1.33333 1.14328,0 2.07869,-0.6 2.07869,-1.33333 z M 820.01256,629.43394 c 0,-0.73333 -0.66365,-1.33333 -1.47477,-1.33333 -0.81112,0 -2.65467,-1.5 -4.09678,-3.33333 -3.05782,-3.8874 -4.48606,-4.177 -5.64937,-1.1455 -1.74199,4.53958 0.43795,7.1455 5.97744,7.1455 2.88391,0 5.24348,-0.6 5.24348,-1.33334 z m 127.57748,-4.25 c -0.42563,-1.06364 -0.74158,-0.7477 -0.80555,0.80556 -0.0579,1.40555 0.25724,2.19306 0.70029,1.75 0.44306,-0.44305 0.49042,-1.59306 0.1052,-2.55556 z m -145.36111,-6.75 c -0.36988,-0.91666 -0.67252,-0.16666 -0.67252,1.66667 0,1.83333 0.30264,2.58333 0.67252,1.66667 0.36988,-0.91667 0.36988,-2.41667 0,-3.33334 z m 49.78363,-6.33333 c 0,-3.85185 -0.55556,-5.33333 -2,-5.33333 -1.44444,0 -2,1.48148 -2,5.33333 0,3.85185 0.55556,5.33333 2,5.33333 1.44444,0 2,-1.48148 2,-5.33333 z m 74.66666,2.43832 c 0,-1.59225 0.99299,-3.99225 2.20666,-5.33333 2.08512,-2.30403 2.01168,-2.43832 -1.33334,-2.43832 -3.24109,0 -3.53998,0.45031 -3.53998,5.33333 0,2.93333 0.6,5.33333 1.33333,5.33333 0.73333,0 1.33333,-1.30276 1.33333,-2.89501 z m -127.99999,-9.77165 v -8.66667 h -4 c -3.75452,0 -4,0.31628 -4,5.15352 0,4.99499 3.98972,12.17981 6.76344,12.17981 0.6801,0 1.23656,-3.9 1.23656,-8.66666 z m 2.64625,-17.66667 c 0.0107,-0.91666 -1.5076,-1.66666 -3.37516,-1.66666 -3.35981,0 -3.37035,0.0336 -1,3.18892 2.35052,3.12894 4.3266,2.44141 4.37516,-1.52226 z m 98.75361,-12.33333 c 3.96937,0 5.2668,0.53291 5.2668,2.16325 0,1.86126 0.30821,1.90779 2.20764,0.33334 2.05461,-1.7031 2.05461,-1.8598 0,-2.26102 -1.2142,-0.2371 -2.20764,-1.2871 -2.20764,-2.33333 0,-1.94507 5.93027,-2.70679 16.11563,-2.07001 2.99589,0.1873 5.42265,-0.47262 6.49658,-1.76663 0.94287,-1.13608 2.59628,-2.0656 3.67426,-2.0656 1.53073,0 1.86466,1.53295 1.52489,7 -0.23928,3.85 0.11147,7.86459 0.77953,8.92131 0.79271,1.25397 0.66658,2.10398 -0.36313,2.44721 -2.05651,0.68551 -0.63353,2.96481 1.85093,2.96481 1.3069,0 1.92131,-1.49234 1.92131,-4.66666 0,-3.76188 0.51179,-4.66667 2.63968,-4.66667 1.45183,0 4.99285,-0.94155 7.86893,-2.09233 4.40158,-1.76116 5.37338,-2.86911 6.1398,-7 0.50082,-2.69922 1.90979,-6.04532 3.13107,-7.4358 1.64737,-1.87559 1.79033,-2.67862 0.55385,-3.11111 -2.55477,-0.89363 -1.98425,-2.74693 1.15204,-3.74235 2.35695,-0.74806 2.69832,-1.6365 2.08383,-5.42318 -0.56748,-3.49699 -0.26995,-4.52856 1.30612,-4.52856 1.12255,0 2.3548,1.2 2.73835,2.66666 0.38354,1.46667 1.29156,2.66667 2.01782,2.66667 0.72627,0 0.9825,-0.88079 0.56939,-1.95729 -0.41309,-1.07652 -0.17729,-2.31194 0.52401,-2.74536 0.70511,-0.43578 1.27511,1.03521 1.27511,3.29062 0,2.24328 -0.63541,4.0787 -1.41203,4.0787 -0.77661,0 -1.0412,0.6 -0.58797,1.33333 0.45323,0.73333 2.25323,1.33333 4,1.33333 1.74677,0 3.54677,-0.6 4,-1.33333 0.45322,-0.73333 0.1152,-1.33333 -0.75124,-1.33333 -1.1739,0 -1.15235,-0.5096 0.0845,-2 0.91292,-1.1 2.78639,-2 4.16325,-2 1.37688,0 2.50342,-0.56298 2.50342,-1.25104 0,-0.68808 1.77173,-3.19086 3.9372,-5.56172 2.16545,-2.37087 4.18374,-5.55791 4.48508,-7.0823 0.30134,-1.52438 0.62961,-0.52161 0.72948,2.22839 0.132,3.63625 -0.36392,5 -1.81843,5 -1.24444,0 -2,1.25925 -2,3.33333 0,4.47756 1.62232,4.19676 5.46724,-0.94629 1.75968,-2.3538 4.84943,-6.04279 6.86609,-8.19775 2.01662,-2.15497 3.66662,-4.91446 3.66662,-6.1322 0,-1.21774 0.881,-3.37876 1.9576,-4.80225 2.6645,-3.52261 2.5195,-4.58817 -0.6242,-4.58817 -1.4666,0 -2.6666,-0.53334 -2.6666,-1.18519 0,-0.65185 1.05,-1.10185 2.3333,-1 1.5562,0.12347 2.7582,-1.25803 3.6091,-4.14815 0.7016,-2.38333 2.0516,-4.33333 3,-4.33333 0.9483,0 1.7242,-0.55384 1.7242,-1.23077 0,-0.67692 1.8462,-3.07692 4.1026,-5.33334 3.1868,-3.18685 5.2701,-4.10256 9.3333,-4.10256 4.2889,0 5.2308,0.46602 5.2308,2.58798 0,1.42338 0.6,2.9588 1.3333,3.41202 0.7643,0.47235 1.3561,-0.77444 1.3867,-2.9213 l 0.053,-3.74536 1.9892,3.66666 c 2.3454,4.3232 3.9646,4.62388 5.8572,1.08766 1.9185,-3.58467 1.7602,-4.08766 -1.2864,-4.08766 -3.6079,0 -3.3551,-1.93158 0.6666,-5.09512 3.8069,-2.99449 4.3481,-5.57154 1.1701,-5.57154 -1.7717,0 -1.8628,-0.36199 -0.5034,-2 0.9129,-1.1 2.2892,-2 3.0583,-2 1.7336,0 6.275,-4.00944 6.275,-5.53999 0,-0.61967 -1.4265,-1.12668 -3.17,-1.12668 -3.6527,0 -7.1033,-3.26166 -4.8947,-4.62665 0.7689,-0.47523 1.3981,-0.34919 1.3981,0.28011 0,0.6293 2.2091,1.94301 4.9092,2.91937 2.7001,0.97636 5.5501,2.28785 6.3333,2.91442 0.7833,0.62656 3.3741,2.7016 5.7575,4.61118 l 4.3333,3.47196 v -3.45187 c 0,-1.89852 -0.6,-3.45185 -1.3333,-3.45185 -0.7334,0 -1.3334,-0.6 -1.3334,-1.33334 0,-0.73333 1.1539,-1.33333 2.5642,-1.33333 2.5923,0 10.7692,-7.16449 10.7692,-9.43589 0,-0.67693 1.8624,-1.23077 4.1388,-1.23077 h 4.1387 l -0.9442,-10.66667 c -0.6606,-7.46272 -0.502,-10.66667 0.5279,-10.66667 0.8283,0 1.5131,-2.47824 1.5658,-5.66666 0.056,-3.37012 0.461,-4.76454 1,-3.44068 0.8346,2.04973 1.1448,2.03206 3.918,-0.22323 l 3.0118,-2.4492 -3.0118,-4.72035 c -1.6564,-2.59618 -3.7406,-4.74573 -4.6314,-4.77677 -0.8909,-0.0311 -2.2299,-1.19647 -2.9756,-2.58983 -1.0506,-1.96312 -0.8601,-2.72361 0.8465,-3.37849 1.2112,-0.46481 2.6805,-0.0748 3.265,0.86672 0.8047,1.29625 1.8017,0.94563 4.1066,-1.44425 2.1085,-2.18619 2.5317,-3.34715 1.3772,-3.77779 -1.2053,-0.4496 -1.6667,-5.01992 -1.6667,-16.51057 0,-15 0.1492,-15.8889 2.6667,-15.8889 2.5098,0 2.6794,0.96079 2.8824,16.33334 l 0.2156,16.33333 0.9685,-12.66667 c 0.5326,-6.96666 1.0355,-16.71666 1.1176,-21.66666 0.1382,-8.33106 -0.061,-9 -2.6807,-9 -2.3643,0 -2.5568,-0.32907 -1.1701,-2 0.913,-1.1 2.4864,-2 3.4966,-2 1.0102,0 1.8368,-0.6 1.8368,-1.33334 0,-0.73333 -0.6,-1.33333 -1.3334,-1.33333 -0.7333,0 -1.3333,-2.20276 -1.3333,-4.89501 0,-2.69226 -0.993,-5.99226 -2.2066,-7.33334 -2.07,-2.28724 -2.0365,-2.43832 0.5402,-2.43832 2.5566,0 2.6975,-0.57714 2.0342,-8.33333 -0.3945,-4.61212 -1.6211,-9.37526 -2.7469,-10.66666 -1.8323,-2.10172 -1.8151,-2.33334 0.1725,-2.33334 3.0336,0 2.7726,-2.26994 -0.4601,-4 -2.2045,-1.17984 -2.6666,-2.79176 -2.6666,-9.30156 0,-4.33092 -0.6486,-8.27526 -1.4414,-8.76521 -0.7927,-0.48995 -1.0813,-2.32536 -0.6413,-4.07868 0.5807,-2.31369 0.2447,-3.18788 -1.2253,-3.18788 -1.3874,0 -2.0387,-1.36483 -2.0678,-4.33333 -0.023,-2.38334 -0.8799,-5.43867 -1.9035,-6.78964 -1.0237,-1.35098 -2.2573,-4.80098 -2.7415,-7.66667 -0.4842,-2.86569 -1.3608,-5.21036 -1.948,-5.21036 -0.5873,0 -1.4896,-2.24863 -2.0052,-4.99695 -0.5156,-2.74832 -1.516,-5.35453 -2.2232,-5.7916 -0.7072,-0.43706 -1.6298,-4.1275 -2.0502,-8.201 -0.6401,-6.20194 -1.2997,-7.65021 -4.0559,-8.90605 -2.0446,-0.93157 -3.0109,-2.23104 -2.5508,-3.43015 0.4074,-1.06172 -0.039,-2.71016 -0.992,-3.66318 -0.953,-0.95302 -2.4486,-3.07039 -3.3236,-4.70526 -1.3645,-2.54966 -1.2522,-2.99493 0.7894,-3.13037 1.3092,-0.0868 2.7414,-0.11653 3.1828,-0.0659 0.4414,0.0507 0.4712,-1.5283 0.066,-3.50877 -0.5152,-2.51959 -0.8856,-2.90019 -1.2336,-1.26751 -0.6465,3.03315 -1.4814,2.94259 -5.2159,-0.56574 -3.6839,-3.46091 -3.9219,-5.0864 -0.7526,-5.14147 2.1461,-0.0373 2.1358,-0.15539 -0.1285,-1.47149 -1.7644,-1.02555 -2.8788,-1.01406 -3.9334,0.0405 -2.7342,2.73428 -3.6816,1.49489 -1.4549,-1.90345 2.6496,-4.04382 1.7412,-5.65904 -1.4102,-2.50759 -1.7966,1.79659 -2.5599,1.90903 -3.8254,0.56348 -1.2211,-1.29831 -1.2015,-1.82005 0.086,-2.29205 0.9167,-0.33612 1.6667,-1.25951 1.6667,-2.05198 0,-2.40398 -4.4384,-11.67013 -5.5899,-11.67013 -0.5922,0 -1.0768,-0.6 -1.0768,-1.33334 0,-0.73333 -1.05,-2.49033 -2.3333,-3.90442 -1.2833,-1.41411 -3.1193,-3.5273 -4.0799,-4.69596 -0.9606,-1.16868 -2.2547,-1.81086 -2.8757,-1.42707 -0.621,0.38379 -0.7905,-0.59685 -0.3767,-2.1792 0.5032,-1.92397 0.2572,-2.57099 -0.7424,-1.95321 -2.129,1.3158 -6.9253,-3.9294 -6.9253,-7.57347 0,-3.64828 -2.3177,-6.31688 -4.6943,-5.40491 -2.4311,0.93292 -4.0123,-2.26206 -1.8098,-3.65708 1.2238,-0.77517 0.056,-1.16384 -3.4959,-1.16384 -2.9333,0 -4.6896,0.4408 -3.9027,0.97958 2.4471,1.67562 3.3501,5.64625 1.284,5.64625 -1.0275,0 -2.2831,-1.35 -2.7902,-3 -0.5071,-1.65 -1.8975,-3.96949 -3.0899,-5.15443 -1.1923,-1.18494 -3.0679,-3.4664 -4.1679,-5.06992 -4.14649,-6.04457 -28.79093,-30.43753 -31.66661,-31.34352 -3.84629,-1.21179 -3.78247,-2.59867 0.29356,-6.37817 l 3.29356,-3.05396 h -3.1238 c -1.71809,0 -2.90649,0.6 -2.64091,1.33333 0.2656,0.73334 -0.0475,2.16632 -0.69574,3.18441 -0.94875,1.49 -1.91863,1.16491 -4.97236,-1.66667 -3.78103,-3.50596 -8.48764,-4.71727 -8.48764,-2.1844 0,0.73333 -0.9,1.33333 -2,1.33333 -2.4138,0 -2.68316,-3.53379 -0.33334,-4.37302 0.91667,-0.32738 1.18938,-1.10466 0.60603,-1.7273 -0.58335,-0.62264 -2.23335,-0.3997 -3.66667,0.49543 -2.15334,1.34479 -2.60602,1.27812 -2.60602,-0.38381 0,-1.10622 0.9,-2.0113 2,-2.0113 1.1,0 2,-0.38385 2,-0.85301 0,-1.62904 -4.68266,-4.39575 -7.51116,-4.43792 -1.70087,-0.0254 -3.12486,-1.11453 -3.54184,-2.70907 -0.45908,-1.75553 -1.76502,-2.6307 -3.82218,-2.5614 -1.71865,0.0579 -2.37482,0.40789 -1.45816,0.77778 0.91667,0.36988 1.66667,1.55792 1.66667,2.64009 0,1.08217 0.53201,1.63877 1.18225,1.2369 0.65024,-0.40187 1.92371,0.16272 2.82994,1.25464 1.396,1.68209 1.04544,1.98532 -2.2952,1.98532 -2.76646,0 -5.09632,-1.29291 -7.80882,-4.33333 -3.17724,-3.56135 -3.9465,-3.91765 -4.31816,-2 -0.56449,2.91269 -2.41433,3.00611 -3.98404,0.20121 -1.62382,-2.90161 -18.4967,-9.867873 -23.90084,-9.867873 -2.40449,0 -4.3718,-0.6 -4.3718,-1.333334 0,-0.733333 0.6,-1.333333 1.33334,-1.333333 0.73333,0 1.33333,-0.6 1.33333,-1.333333 0,-0.761906 -4,-1.333334 -9.33333,-1.333334 -7.4552,0 -9.85318,-0.519841 -11.91667,-2.583333 -1.42083,-1.420833 -2.77172,-2.018173 -3.00197,-1.327421 -0.94463,2.833884 -35.20905,1.199016 -39.94797,-1.90605 -2.68984,-1.762448 -5.83895,-1.976134 -18.84807,-1.278958 -8.59025,0.460364 -15.61865,1.345241 -15.61865,1.966393 0,0.621153 -5.02672,1.129369 -11.17051,1.129369 -6.95705,0 -12.99215,0.761138 -16,2.017894 -4.31192,1.801636 -4.82949,1.801636 -4.82949,0 0,-2.474448 0.0851,-2.474448 -5.83718,0 -2.82373,1.179834 -4.82949,1.45671 -4.82949,0.666666 0,-0.743174 -2.4,-1.351226 -5.33333,-1.351226 -4.8,0 -5.33334,0.333333 -5.33334,3.333333 0,3.120344 -0.43501,3.333333 -6.8081,3.333333 -5.6739,0 -7.24492,0.555326 -9.43011,3.333333 -2.95435,3.755834 -5.09512,4.316054 -5.09512,1.333334 0,-2.408623 -0.19977,-2.42581 -4.93727,-0.424716 -2.05117,0.866406 -6.27198,4.316406 -9.37958,7.666666 -4.56663,4.92322 -5.89343,5.718 -6.9186,4.1444 -1.08717,-1.66879 -1.66107,-1.59164 -4.01648,0.53998 -1.51144,1.36783 -2.74807,3.22051 -2.74807,4.11706 0,0.89655 -0.9,2.37702 -2,3.28994 -1.63801,1.35943 -2,1.26831 -2,-0.50341 0,-3.17801 -2.57705,-2.6368 -5.57154,1.17008 -1.44211,1.83333 -3.24211,3.33333 -4.00003,3.33333 -0.75791,0 -3.56673,1.65 -6.24181,3.66667 -2.6751,2.01666 -6.02135,4.30676 -7.43611,5.0891 -1.41476,0.78235 -3.21239,2.57546 -3.99473,3.9847 -0.78235,1.40923 -2.45724,3.98073 -3.722,5.71442 l -2.29955,3.15219 -1.58113,-3.47021 c -2.01712,-4.42708 -2.6407,-4.35363 -5.48643,0.64628 -2.8988,5.09313 -3.07121,10.55018 -0.33333,10.55018 1.1,0 2,0.53582 2,1.19068 0,0.65488 -0.9,1.53604 -2,1.95816 -1.21828,0.4675 -2,0.003 -2,-1.19068 0,-1.38132 -1.47292,-1.94581 -5,-1.91626 -3.75143,0.0315 -5.59822,0.86382 -7.39558,3.33333 -2.05697,2.8262 -2.10409,3.29144 -0.33333,3.29144 1.13423,0 2.06224,0.6 2.06224,1.33333 0,0.73334 -0.85715,1.33334 -1.90476,1.33334 -3.13511,0 -6.09524,3.93142 -6.09524,8.09524 0,2.90653 -0.62889,3.90476 -2.46001,3.90476 -1.35302,0 -3.57916,1.23662 -4.94699,2.74806 -2.08705,2.30618 -2.18241,2.9363 -0.593,3.9186 1.58941,0.98231 1.49405,1.61243 -0.593,3.9186 -1.36783,1.51144 -3.14397,2.76803 -3.94699,2.79243 -3.63181,0.1104 -7.46001,5.15783 -7.46001,9.83603 0,3.36558 -0.59365,4.78628 -2,4.78628 -1.1,0 -2,-0.97347 -2,-2.16326 0,-1.77173 -0.36199,-1.86284 -2,-0.50341 -1.22041,1.01285 -2,3.93499 -2,7.49659 0,3.21021 -0.6,5.83674 -1.33333,5.83674 -0.73334,0 -1.33334,2.62653 -1.33334,5.83675 0,3.5616 -0.77958,6.48373 -2,7.49658 -1.63801,1.35943 -2,1.26832 -2,-0.50341 0,-3.21931 -2.38538,-2.62556 -6.03996,1.50341 -2.70318,3.0541 -3.46002,3.33899 -4.53021,1.70528 -0.70665,-1.07876 -1.76745,-1.44661 -2.35733,-0.81745 -0.58987,0.62915 -0.3225,1.41177 0.59417,1.73916 0.91667,0.32737 1.66667,1.44524 1.66667,2.48412 0,1.03889 0.87889,1.88889 1.95309,1.88889 1.0742,0 2.59531,1.2 3.38024,2.66667 0.78493,1.46667 2.30604,2.66667 3.38024,2.66667 1.0742,0 1.95309,0.6 1.95309,1.33333 0,1.80795 -0.95976,1.69656 -7.76078,-0.90077 -4.62351,-1.76574 -6.37614,-1.90551 -8.35982,-0.66667 -5.01976,3.13488 -7.5408,0.29535 -2.8794,-3.24316 2.03567,-1.54529 1.44032,-1.77667 -4.66666,-1.81367 l -7,-0.0424 v 5.33334 c 0,2.93333 0.61143,5.33333 1.35873,5.33333 0.76276,0 1.01167,1.38283 0.56748,3.15261 -0.85885,3.42196 1.79411,5.38267 5.40712,3.99623 1.46828,-0.56344 2,0.17364 2,2.77247 0,2.15832 1.43108,4.85133 3.66667,6.89993 2.4615,2.25565 3.11886,3.58587 2,4.04716 -0.93268,0.38453 -1.66667,2.98697 -1.66667,5.90937 0,3.7531 -0.56265,5.22223 -2,5.22223 -2.99331,0 -2.41024,2.24837 0.80083,3.08808 1.67629,0.43836 2.42089,1.34717 1.85453,2.26355 -0.52045,0.8421 -2.32221,1.18577 -4.00391,0.76369 -1.6817,-0.42208 -4.91625,-0.39569 -7.18787,0.0587 -5.369,1.0738 -5.93596,6.41709 -0.81722,7.70181 2.04388,0.51299 3.63156,2.10067 4.14455,4.14455 0.45733,1.82216 1.72985,3.31302 2.82782,3.31302 2.63127,0 10.469,6.60424 8.15024,6.86755 -0.97293,0.11053 -4.55349,0.34403 -7.95678,0.51897 -6.21817,0.31967 -13.91943,3.15086 -8.81219,3.2396 1.82658,0.0317 2.33334,1.19886 2.33334,5.37388 0,2.93334 -0.6,5.33334 -1.33334,5.33334 -0.73333,0 -2.53333,1.2 -4,2.66666 -2.66666,2.66667 -2.66666,2.66667 0,5.33334 1.46667,1.46666 3.26667,2.66666 4,2.66666 0.81482,0 1.33334,6.22223 1.33334,16 0,9.77777 0.51852,16 1.33333,16 0.73333,0 1.33333,2.4 1.33333,5.33333 0,5.03704 0.22223,5.33334 4,5.33334 h 4 v 17.12668 c 0,15.60246 0.24457,17.34801 2.74807,19.61365 2.34954,2.12631 2.92325,2.20461 3.9561,0.53999 1.0086,-1.62555 1.71058,-1.42592 4.25194,1.20909 2.10846,2.18619 2.5317,3.34715 1.37722,3.77779 -2.05734,0.76737 -2.3789,21.73276 -0.33333,21.73276 0.73333,0 1.33333,2.35028 1.33333,5.22285 0,5.21936 0.004,5.22384 6.98214,6.72024 4.79053,1.02739 7.12725,1.06207 7.44445,0.11053 0.25427,-0.76281 2.14725,-1.38692 4.20665,-1.38692 2.85324,0 3.93787,-0.77109 4.55755,-3.24009 0.44727,-1.78205 1.75517,-4.18205 2.90645,-5.33333 1.9021,-1.9021 1.84104,-2.09324 -0.66866,-2.09324 -2.87963,0 -3.31319,-1.01198 -1.95259,-4.55762 1.17395,-3.05928 4.19323,-2.58506 5.27673,0.82876 0.51284,1.6158 1.75327,3.75866 2.75652,4.76191 3.65378,3.65377 0.69614,7.98536 -4.1759,6.11579 -3.16635,-1.21506 -2.363,2.64326 1,4.80278 1.65,1.05952 4.05,1.76614 5.33333,1.57024 1.60215,-0.24454 2.33333,0.53202 2.33333,2.47814 0,1.95666 -0.7225,2.71542 -2.33333,2.45042 -3.98369,-0.65537 -5.05536,1.09507 -4.55121,7.43388 0.47797,6.00976 0.56736,6.1157 5.16024,6.1157 3.39736,0 5.38996,0.91038 7.29585,3.33333 1.44211,1.83333 3.44304,3.33333 4.44653,3.33333 2.61412,0 3.96699,-2.77316 1.95846,-4.0145 -2.41444,-1.49224 -0.56575,-5.31887 2.5696,-5.31887 3.44053,0 4.5721,1.99821 2.90041,5.12179 -1.06475,1.9895 -0.66265,3.1498 1.93835,5.5933 2.54194,2.38804 3.23662,4.30815 3.08152,8.51732 l -0.20027,5.43425 -0.85173,-6 -0.85175,-6 -0.63303,6.44335 c -0.44253,4.50439 -0.10173,6.74069 1.13263,7.43147 1.15925,0.64874 -0.20823,1.63236 -3.98164,2.86396 l -5.74729,1.87586 5.10074,0.44584 c 2.80542,0.24522 7.61075,-0.0895 10.67852,-0.74378 6.27415,-1.33815 15.55407,-0.64456 15.55407,1.16252 0,0.65309 -2.4,1.18745 -5.33333,1.18745 -2.93334,0 -5.33334,0.63121 -5.33334,1.40269 0,0.77148 -1.8,2.03018 -4,2.7971 -5.10356,1.77912 -5.03913,2.8593 0.31174,5.22625 3.52065,1.55736 4.51357,2.94697 5.4118,7.57396 1.26426,6.51248 2.91309,7.29076 4.24058,2.00161 0.85855,-3.42076 1.03819,-3.50324 2.69498,-1.23745 1.57008,2.1472 1.82704,2.1778 2.22468,0.26491 0.38306,-1.84283 0.80569,-1.90091 2.8573,-0.3927 1.32427,0.97351 2.54114,2.65358 2.70416,3.7335 0.69888,4.6295 4.8881,7.45494 4.8881,3.2968 0,-1.1 0.9,-2 2,-2 1.1,0 2,-0.61934 2,-1.3763 0,-0.75697 1.35,-1.89262 3,-2.52368 2.22817,-0.85217 3.70817,-0.49809 5.7526,1.37631 1.51393,1.38801 4.06393,2.52367 5.66666,2.52367 2.17943,0 2.91407,0.79917 2.91407,3.17008 0,1.74353 0.9,3.917 2,4.82992 1.22041,1.01285 2,3.93498 2,7.49658 0,5.79671 0.0324,5.83675 4.73062,5.83675 3.48503,0 5.58514,0.96545 7.976,3.66667 2.75607,3.11385 3.45364,3.36513 4.62671,1.66666 1.17337,-1.69889 1.86781,-1.45044 4.6126,1.65027 3.07985,3.47921 3.87535,3.66664 16.976,4 12.41951,0.31601 13.97904,0.63899 16.17484,3.34973 2.80185,3.45894 4.90323,3.88751 4.90323,1 0,-2.42237 5.1422,-2.6092 8.00761,-0.29093 1.1042,0.89335 2.08344,3.15736 2.17612,5.03115 0.0937,1.8967 2.07953,5.31793 4.47973,7.71812 l 4.31124,4.31124 6.08811,-2.32507 c 4.51491,-1.72425 6.22652,-1.90983 6.62376,-0.71812 0.68781,2.06343 10.98009,2.14185 10.98009,0.0836 0,-1.0668 2.41163,-1.2712 8.04778,-0.68211 6.27436,0.6558 8.20688,0.42656 8.76976,-1.0403 1.21948,-3.1779 4.18234,-3.40039 7.76404,-0.58303 4.31962,3.39781 4.3487,5.16205 0.0851,5.16205 -2.07408,0 -3.33333,0.75556 -3.33333,2 0,1.61111 2.07408,2 10.66666,2 8.59259,0 10.66667,-0.38889 10.66667,-2 0,-1.1 -0.83581,-2 -1.85735,-2 -2.5535,0 -3.96061,-4.20328 -1.85448,-5.53965 2.32355,-1.47424 3.71186,-1.39707 3.71186,0.20639 0,0.73333 2.4,1.33333 5.33333,1.33333 4.44444,0 5.33333,-0.44444 5.33333,-2.66667 0,-2.6252 0.0435,-2.62317 2.79716,0.13054 1.88478,1.88477 3.89427,2.58742 6.16062,2.15418 1.84989,-0.35362 4.99978,0.29616 6.99976,1.44399 3.37802,1.93873 3.82532,1.90411 6.29768,-0.48752 1.46377,-1.41596 3.78452,-4.52448 5.15724,-6.90781 1.3727,-2.38334 2.96646,-4.33334 3.54169,-4.33334 0.57521,0 1.04585,3.3 1.04585,7.33334 v 7.33333 h -5.33333 -5.33333 v 5.33333 c 0,4.72676 0.36054,5.33334 3.17008,5.33334 1.74353,0 3.99353,0.99796 5,2.21768 1.60326,1.94301 1.87944,1.28245 2.22978,-5.33334 l 0.39988,-7.55105 z m -103.845,-9.1682 c -1.4319,-0.90769 -1.36696,-1.28527 0.33334,-1.93773 1.33606,-0.5127 2.1118,-0.0911 2.1118,1.14777 0,2.26627 -0.0769,2.29113 -2.44514,0.78996 z m 127.77847,-0.16513 c 0,-0.73334 0.6,-1.33334 1.33333,-1.33334 0.73333,0 1.33333,0.6 1.33333,1.33334 0,0.73333 -0.6,1.33333 -1.33333,1.33333 -0.73333,0 -1.33333,-0.6 -1.33333,-1.33333 z m 8.77416,-0.68787 c -2.47967,-1.87623 -2.4836,-2.01991 -0.12667,-4.62427 2.50273,-2.7655 8.68584,-3.72974 8.68584,-1.35453 0,0.73333 -0.9,1.33333 -2,1.33333 -1.24444,0 -2,1.25926 -2,3.33334 0,3.79624 -0.92449,4.0623 -4.55917,1.31213 z m -121.10749,-1.52851 c 0.91666,-0.36988 2.41666,-0.36988 3.33333,0 0.91667,0.36988 0.16667,0.67252 -1.66667,0.67252 -1.83333,0 -2.58333,-0.30264 -1.66666,-0.67252 z m 40.33333,-3.19565 c 0,-0.77661 0.6,-1.0412 1.33333,-0.58797 0.73333,0.45322 1.33333,1.08864 1.33333,1.41202 0,0.32339 -0.6,0.58798 -1.33333,0.58798 -0.73333,0 -1.33333,-0.63542 -1.33333,-1.41203 z m 100,-17.25464 c 1.1,-0.71088 2.6,-1.29249 3.33333,-1.29249 0.73333,0 0.43333,0.58161 -0.66667,1.29249 -1.1,0.71088 -2.6,1.29249 -3.33333,1.29249 -0.73333,0 -0.43333,-0.58161 0.66667,-1.29249 z m -260,-33.33333 c 0,-0.73334 0.6,-1.33334 1.33334,-1.33334 0.73333,0 1.33333,0.6 1.33333,1.33334 0,0.73333 -0.6,1.33333 -1.33333,1.33333 -0.73334,0 -1.33334,-0.6 -1.33334,-1.33333 z m -13.33333,-18 c 0,-1.1 0.6,-2 1.33333,-2 0.73334,0 1.33334,0.9 1.33334,2 0,1.1 -0.6,2 -1.33334,2 -0.73333,0 -1.33333,-0.9 -1.33333,-2 z m -19.25648,-0.54232 c -0.41096,-0.66495 0.45363,-0.89496 1.92131,-0.51116 3.11332,0.81414 3.50686,1.72014 0.7472,1.72014 -1.05672,0 -2.25755,-0.54404 -2.66851,-1.20898 z m -63.41019,-47.45768 c 0,-3.95128 1.43375,-4.239 4.46002,-0.89501 3.0167,3.33342 2.77825,4.22834 -1.12668,4.22834 -2.66667,0 -3.33334,-0.66666 -3.33334,-3.33333 z m 0,-12.66667 c 0,-3.85185 0.55556,-5.33333 2,-5.33333 1.44444,0 2,1.48148 2,5.33333 0,3.85186 -0.55556,5.33334 -2,5.33334 -1.44444,0 -2,-1.48148 -2,-5.33334 z m 21.33334,-7.41202 c 0,-1.14328 0.6,-1.70787 1.33333,-1.25464 0.73333,0.45322 1.33333,1.38864 1.33333,2.07869 0,0.69005 -0.6,1.25464 -1.33333,1.25464 -0.73333,0 -1.33333,-0.93541 -1.33333,-2.07869 z m -5.33334,-41.69908 c 0,-1.87867 1.50186,-2.74054 3.4637,-1.98771 2.78258,1.06779 2.2602,3.09881 -0.79703,3.09881 -1.46667,0 -2.66667,-0.5 -2.66667,-1.1111 z m -37.33333,-22.22223 c 0,-1.1 0.6,-2 1.33333,-2 0.73334,0 1.33334,0.9 1.33334,2 0,1.1 -0.6,2 -1.33334,2 -0.73333,0 -1.33333,-0.9 -1.33333,-2 z m 10.66667,-10 c 0,-0.73333 0.6,-1.33333 1.33333,-1.33333 0.73333,0 1.33333,0.6 1.33333,1.33333 0,0.73333 -0.6,1.33333 -1.33333,1.33333 -0.73333,0 -1.33333,-0.6 -1.33333,-1.33333 z m 0,-44.1111 c 0,-3.2494 3.11569,-2.7901 3.76442,0.55493 0.25518,1.31568 -0.42501,2.22284 -1.66666,2.22284 -1.23684,0 -2.09776,-1.14 -2.09776,-2.77777 z m 17,-60.77194 c 0.91666,-0.36988 2.41666,-0.36988 3.33333,0 0.91667,0.36988 0.16667,0.67252 -1.66667,0.67252 -1.83333,0 -2.58333,-0.30264 -1.66666,-0.67252 z m 441.7604,-32.03826 c 0.052,-1.32662 0.6093,-3.61203 1.2396,-5.07869 0.9659,-2.24784 1.1606,-1.99844 1.2396,1.58797 0.052,2.34005 -0.5063,4.62546 -1.2396,5.07869 -0.7334,0.45323 -1.2912,-0.26136 -1.2396,-1.58797 z m -2.0368,-5.65323 c -0.4219,-0.68266 -0.1573,-1.61808 0.588,-2.07869 0.7453,-0.46061 1.355,0.0979 1.355,1.2412 0,2.34204 -0.8,2.68688 -1.943,0.83749 z m -23.057,-26.08657 c -2.4769,-2.81331 -2.0201,-4.515 1,-3.72523 1.4759,0.38596 2.6667,1.8187 2.6667,3.20851 0,2.95955 -1.3486,3.14959 -3.6667,0.51672 z m -49.66661,-43.544 c 0,-2.32712 0.33067,-2.51365 2,-1.12823 1.1,0.91292 2,1.8222 2,2.02061 0,0.19842 -0.9,0.70612 -2,1.12823 -1.38483,0.53141 -2,-0.0901 -2,-2.02061 z m -12.65323,-11.81664 c 0.46062,-0.7453 1.39603,-1.00989 2.0787,-0.58798 1.84938,1.14299 1.50454,1.94306 -0.8375,1.94306 -1.14328,0 -1.70181,-0.60979 -1.2412,-1.35508 z M 870.67922,93.43396 c 0,-0.733333 0.6,-1.333333 1.33334,-1.333333 0.73333,0 1.33333,0.6 1.33333,1.333333 0,0.733333 -0.6,1.333333 -1.33333,1.333333 -0.73334,0 -1.33334,-0.6 -1.33334,-1.333333 z m 97.36852,484.99999 c 0.95832,-3.03068 0.76063,-3.66667 -1.13978,-3.66667 -1.90459,0 -2.20234,0.97257 -1.73482,5.66667 0.31042,3.11666 0.82331,4.76666 1.13978,3.66666 0.31646,-1.1 1.09714,-3.65 1.73482,-5.66666 z m -187.06295,-3.1389 c -0.44306,-0.44305 -1.59307,-0.49041 -2.55556,-0.1052 -1.06364,0.42563 -0.74771,0.74158 0.80556,0.80555 1.40554,0.0579 2.19305,-0.25724 1.75,-0.70029 z m 139.02777,-2.52777 c 0,-1.1 -0.9,-2 -2,-2 -1.1,0 -2,0.9 -2,2 0,1.1 0.9,2 2,2 1.1,0 2,-0.9 2,-2 z m 54.99999,-2.92971 c 1.48708,-0.83426 1.2109,-5.73696 -0.32318,-5.73696 -1.69887,0 -8.01015,5.46222 -8.01015,6.93252 0,1.0145 5.90365,0.16752 8.33333,-1.19556 z m -11.70102,-5.79254 c -0.36907,-0.59718 0.53768,-1.46939 2.015,-1.93827 2.92659,-0.92887 3.48903,-2.68581 1.29405,-4.04239 -2.09754,-1.29636 -7.94136,3.0763 -7.94136,5.94215 0,1.84993 0.69819,2.32853 2.65167,1.81768 1.45843,-0.38139 2.34971,-1.18201 1.98064,-1.77917 z m 60.77767,-53.27775 c 1.5819,0 1.6601,-4.92664 0.094,-5.89484 -1.3297,-0.82181 -2.9141,7.27305 -2.5892,13.22817 0.1493,2.73552 0.3796,2.20864 0.7287,-1.66666 0.2807,-3.11667 1.0758,-5.66667 1.767,-5.66667 z M 638.67923,496.10061 c 0,-0.73333 -0.9,-1.33333 -2,-1.33333 -1.1,0 -2,0.6 -2,1.33333 0,0.73334 0.9,1.33334 2,1.33334 1.1,0 2,-0.6 2,-1.33334 z m 428.66667,-5.33333 c 0.4532,-0.73333 0.1886,-1.33333 -0.588,-1.33333 -0.7766,0 -1.412,0.6 -1.412,1.33333 0,0.73333 0.2646,1.33333 0.588,1.33333 0.3233,0 0.9588,-0.6 1.412,-1.33333 z M 574.28687,385.10062 c -0.3178,-1.65 -0.57783,-0.3 -0.57783,3 0,3.3 0.26003,4.65 0.57783,3 0.31781,-1.65 0.31781,-4.35 0,-6 z m -10.2743,-35.66667 c 0,-0.73333 -0.26459,-1.33333 -0.58798,-1.33333 -0.32338,0 -0.9588,0.6 -1.41202,1.33333 -0.45323,0.73333 -0.18864,1.33333 0.58797,1.33333 0.77661,0 1.41203,-0.6 1.41203,-1.33333 z m 0,-13.33333 c 0,-6.51852 -0.0889,-6.66667 -4,-6.66667 -3.77778,0 -4,0.2963 -4,5.33334 0,4.39038 0.45756,5.33333 2.58797,5.33333 1.42339,0 2.9588,0.6 3.41203,1.33333 1.55385,2.51417 2,1.32444 2,-5.33333 z m 523.57743,-60.25 c -0.4256,-1.06364 -0.7415,-0.74771 -0.8055,0.80556 -0.058,1.40555 0.2572,2.19305 0.7003,1.75 0.443,-0.44307 0.4904,-1.59307 0.1052,-2.55556 z m -8.9108,-21.75 c 0,-1.1 -0.2358,-2 -0.524,-2 -0.2882,0 -0.8694,0.9 -1.2915,2 -0.4221,1.1 -0.1863,2 0.524,2 0.7103,0 1.2915,-0.9 1.2915,-2 z m -0.8732,-12.05751 c -0.4343,-1.13162 -1.0755,-1.77154 -1.425,-1.42204 -0.3495,0.34951 -0.24,1.27539 0.2434,2.05751 1.3147,2.12728 2.0832,1.71401 1.1816,-0.63547 z M 596.01256,218.10062 c 0,-1.44444 -1.48148,-2 -5.33333,-2 -3.85185,0 -5.33333,0.55556 -5.33333,2 0,1.44444 1.48148,2 5.33333,2 3.85185,0 5.33333,-0.55556 5.33333,-2 z m 449.99994,-23.33333 c 0.4533,-0.73333 0.1887,-1.33333 -0.5879,-1.33333 -0.7766,0 -1.4121,0.6 -1.4121,1.33333 0,0.73333 0.2646,1.33333 0.588,1.33333 0.3234,0 0.9588,-0.6 1.412,-1.33333 z m -32.6666,-32.07869 c 0,-0.69006 -0.6,-1.25464 -1.3334,-1.25464 -0.7333,0 -1.3333,0.93541 -1.3333,2.07869 0,1.14328 0.6,1.70787 1.3333,1.25464 0.7334,-0.45323 1.3334,-1.38864 1.3334,-2.07869 z m -0.6667,-3.92131 2.6667,-1.14591 -2.6667,-0.25161 c -1.4667,-0.13837 -3.1167,-0.18055 -3.6667,-0.0937 -0.55,0.0869 -1,-0.56208 -1,-1.44208 0,-1.21464 -0.3987,-1.20127 -1.6555,0.0555 -1.3185,1.31848 -1.2506,1.91152 0.3334,2.91292 2.3247,1.46972 2.4891,1.46875 5.9888,-0.0351 z m -6,-11.17008 c 0,-0.27687 -1.05,-1.32687 -2.3333,-2.33333 -2.1148,-1.6585 -2.1619,-1.61134 -0.5034,0.50341 1.7418,2.221 2.8367,2.92731 2.8367,1.82992 z m -19.99998,-11.49659 c 0,-0.73333 -0.63541,-1.33333 -1.41203,-1.33333 -0.77661,0 -1.0412,0.6 -0.58797,1.33333 0.45323,0.73334 1.08864,1.33334 1.41203,1.33334 0.32338,0 0.58797,-0.6 0.58797,-1.33334 z m -20,-22.66666 c -1.1,-0.71088 -2.6,-1.2925 -3.33333,-1.2925 -0.73333,0 -0.43333,0.58162 0.66667,1.2925 1.1,0.71087 2.6,1.2925 3.33333,1.2925 0.73333,0 0.43333,-0.58163 -0.66667,-1.2925 z m -33.69444,-11.47222 c -0.44305,-0.44306 -1.59306,-0.49043 -2.55556,-0.10527 -1.06364,0.42563 -0.7477,0.74158 0.80556,0.80556 1.40555,0.0579 2.19306,-0.25724 1.75,-0.7003 z m -4.97222,-3.351826 c 0,-0.733333 -0.6,-0.962513 -1.33334,-0.509288 -0.73333,0.453226 -1.33333,1.424046 -1.33333,2.157374 0,0.73334 0.6,0.96252 1.33333,0.50929 0.73334,-0.45322 1.33334,-1.424042 1.33334,-2.157376 z m -11.02778,-4.648177 c -0.44305,-0.443054 -1.59306,-0.490424 -2.55556,-0.105266 -1.06364,0.425634 -0.7477,0.741577 0.80556,0.805556 1.40555,0.05789 2.19306,-0.257238 1.75,-0.700294 z m -50.30556,-7.768376 c 0,-1.048996 1.35,-2.143432 3,-2.432078 2.78474,-0.487155 2.81956,-0.604712 0.48544,-1.638264 -1.46244,-0.647571 -3.41502,-0.546459 -4.66666,0.241656 -2.93019,1.845036 -3.55191,5.735952 -0.91654,5.735952 1.15376,0 2.09776,-0.85827 2.09776,-1.907266 z m -84.66666,-3.425752 c -3.66667,-0.537194 -7.23667,-0.457026 -7.93333,0.17815 -0.72587,0.661796 2.12048,1.078806 6.66666,0.976717 l 7.93334,-0.178151 z m 67.66666,0.39204 c -1.65,-0.317804 -4.35,-0.317804 -6,0 -1.65,0.317804 -0.3,0.577826 3,0.577826 3.3,0 4.65,-0.260022 3,-0.577826 z m 38.33334,-3.059022 c 0,-0.733333 -0.26459,-1.333333 -0.58798,-1.333333 -0.32338,0 -0.9588,0.6 -1.41202,1.333333 -0.45323,0.733333 -0.18864,1.333333 0.58797,1.333333 0.77661,0 1.41203,-0.6 1.41203,-1.333333 z m -24.36111,-8.805556 c -0.44305,-0.443055 -1.59307,-0.490424 -2.55556,-0.105267 -1.06364,0.425635 -0.74771,0.741578 0.80556,0.805556 1.40555,0.05789 2.19305,-0.257237 1.75,-0.700293 z m -44,-10.666666 c -0.44305,-0.443055 -1.59306,-0.490424 -2.55556,-0.105267 -1.06364,0.425635 -0.7477,0.741577 0.80556,0.805556 1.40555,0.05789 2.19306,-0.257237 1.75,-0.700293 z"
     id="path4568"
     inkscape:connector-curvature="0" />
</svg>
