<?xml version="1.0" encoding="UTF-8" standalone="no"?>
<svg xmlns="http://www.w3.org/2000/svg" 
   xmlns:dc="http://purl.org/dc/elements/1.1/"
   xmlns:cc="http://creativecommons.org/ns#"
   xmlns:rdf="http://www.w3.org/1999/02/22-rdf-syntax-ns#"
   xmlns:svg="http://www.w3.org/2000/svg"
   viewBox="0 0 207.2 170.4">
  <metadata
     id="metadata76">
    <rdf:RDF>
      <cc:Work
         rdf:about="">
        <dc:format>image/svg+xml</dc:format>
        <dc:type
           rdf:resource="http://purl.org/dc/dcmitype/StillImage" />
        <dc:title></dc:title>
      </cc:Work>
    </rdf:RDF>
  </metadata>
  <defs
     id="defs74" />
  <g
     id="g4"
     stroke-width="1.6"
     stroke="#000"
     fill="none">
    <path
       id="path6"
       d="M1.3 78.4C3.3 65 9 52 16.5 41c7-10.4 16.4-19.8 27.2-26.3 12-7 26-10.5 40-12.6 13-1.8 26.7-1.6 39.8.6 12.3 2.2 24.7 5.8 35.4 12 11 6.8 21 16 28.7 26.4 6.5 9 10.4 19.7 13.6 30.3 3 9.8 5.2 20 5 30.3 0 8.6-1.2 17.6-5 25.3-4.5 9-12 17-20.2 23-10 7.5-22 12-34.2 15.3-14 3.6-29 5-43.5 4-19.3-1.5-39-5.5-56.5-14-12.2-6-23.6-14.7-32-25.4-5.7-7.7-9-17-11.5-26.4-2-8-3.3-17-2-25.2z" />
    <path
       id="path8"
       d="M63.4 161.8L79 161l-15.6-20 8.6-3-5.5-13.7 4-11.6 12-5.5 5.2 2" />
    <path
       id="path10"
       d="M66.5 125l16.6-.7 16.8-2.5 20.7-14-7-6.2-2-8.6" />
    <path
       id="path12"
       d="M113.4 101.6l-17.6 1v9M96.3 103l-2-5M120 106.7l14 1.5 9.7 14.6 11.7-5.5 9-10.6 9.6-6 4-4.6s-3-8.6-2.4-15c.4-6.6 3.4-11.5 6.5-13.7 3.3-2.3 5.7-2 8.2-1 2.5 1 5 3 6.8 5.5 2 2.3 3 5.5 4.3 8.6 1.3 3 1.3 6.6 1 10-.3 3.6-1.2 7.4-3 10.7-1.8 3.4-4.5 8-7.6 8.7-3 .8-5.2-1-7-2.5-2-1.7-2.8-3.3-4-5-1.2-2-2.6-6-2.6-6M76.8 158.2l15-1.7-7.4-6.8-.3-8.6-4.6-4.2M84 140.8l3.7-6-4.7-3M87.3 134.7l5-3.2M86 138.6l6.3 3.6" />
    <path
       id="path14"
       d="M91.6 156.5l18.6-4.3-8.6-6.8-.4-5M114 139.3l.6 10.6 6.6-2.4 5-8.3-6.8-2.8M125.8 139.5l4.7-4" />
    <path
       id="path16"
       d="M114.2 150.3l9.2 4 16-4 8.4-6 4.5-3.2-.4-9.2" />
    <path
       id="path18"
       d="M140 149.8l6.6 6.3-4.7 4.4 12.8-2.5-4-9 9-5.4 2 8.2" />
    <path
       id="path20"
       d="M142.7 160l-12.2 3.6-6.4 3.6M129.4 164l-11-3 2.5 3h-8.3l-3.6-3.6 3.7-1.4-4-6.8M100 155l5.2 7.6-1.8 1.4M94.7 156l4 9-5.7 1-7.8-2.8M100.5 121l8 8.3 8.8-3.2v5.8l-5 1.8M117.7 126.8h9.6L124 131h-3.5" />
    <path
       id="path22"
       d="M126.5 127l8 2.3 1.4 6.5 6.7 2.5-3 5.7" />
    <path
       id="path24"
       d="M127.7 127l12-1.6-1 6.8" />
    <path
       id="path26"
       d="M138 129l13.6 2.5-2.2-5.4M159.6 144l5.6-10 5.3-8.2 5.4-6.8 4.5-4 1.4-11" />
    <path
       id="path28"
       d="M179.4 116v7.3l-5.3 7.5 1.2 7 6.4-1.7" />
    <path
       id="path30"
       d="M188.4 109.6l-2.5 16.2-11.2 26-4 4.6M191.3 110l.3 16-2.5 4.4-8.4 20M197.6 108.5l-2.4 23.7.7 3.6" />
    <path
       id="path32"
       d="M197 105l2.8 14.7-1.4 9.3v3M199.8 100l3 5 3 6M134.8 109l40.4-14.7 2.6-.4M176.4 90.5l-8-4.7-18.6-2.2L138 86l-4.6 22.3M136.7 94.5l17.8 7.4" />
    <path
       id="path34"
       d="M143.4 85l-14-4.2-17 .3 8.7 7.3 1.7 8.5 5.7-4.6" />
    <path
       id="path36"
       d="M112.7 81.5l-15.4-5.7L81 79.3 63.3 90l-8.2 12.6-6 15.7.2 9 17.2-3.3" />
    <path
       id="path38"
       d="M49.3 127.2l-12.7 4.3-8-1-2 6M54.4 126l1.5 10.5-1.2 11.8-3.6 4.3L56 159" />
    <path
       id="path40"
       d="M28 133l-10.3-7.6 1.7-5-6-3.6H8l3-14.2M19.4 121.3l10.4-4M29.7 113.8l-.3 3.6 6-2 4 2.5v-8.7" />
    <path
       id="path42"
       d="M29.8 108l3.2-.8 1.4 2-3.2 5.5-4-2M14.4 117.6V109l7.5-2.5-4.3-13.2M21.2 102.6L32 96.8l8.5-.3 9.7-4 3.5.8M8 89l10-13.6 7.5 3-.3 6" />
    <path
       id="path44"
       d="M22.7 76.7l8.2-7.4L41 63.6l4.3 8L44 82l2.2 2-3.5 4-1.6-2-3 1.5" />
    <path
       id="path46"
       d="M28.7 81.8h7l2.6 7.8h-6M44.6 82l13-.2 3.6 3.3M69 94l15.4 3.6 5.4.7" />
    <path
       id="path48"
       d="M81.6 97.2l.7-5 4-6.8-2-7M121 116l7.7-.6 8 5 2.4-4.3M176.2 76l-9-6-13-.7-3.7 1" />
    <path
       id="path50"
       d="M175.4 81.2l-30.6-.8-17.5-9.3-23 .3L101 68l3.3-4.4 9.4-8.2 9 5 15.3 2.2 6.7 3.2 13 1.4.3 2" />
    <path
       id="path52"
       d="M114 55.8l8.7-3.6 14.2.4 11 4 4.7-1.5L162 62l4 4.7 9.2 7.8 1.5 1" />
    <path
       id="path54"
       d="M177 74.2l-2.6-13.8 1-6-11.7-17.6-6.4-4.6-4-6.4-10.6-4.7-8.6-3-7-3.7-3.3-3.2-5.7-4.5-14.6-3-12.5 2M99.5 4L85.5 2" />
    <path
       id="path56"
       d="M175 59l-10.2-11.4-8.6-11-7.8-8.3h-5l-3-8M156.5 57.8l6.5-1 12 6.6M182.4 67.2L178 48l-6-5.4-4-6-9-3.2M166.5 35.8l-.3-7.5-6.8-7.2-7-5.6-4.8-6" />
    <path
       id="path58"
       d="M118 6.5l10.4.7 13.2 4.3 14 9.6 11.3 4.8 6 6.4 2.2-1 7 7.8 1.5 8.2 1 13.2 2 5M192.7 67.2l1.7-9.6-2-9.2M202 94.5l4.6 2.3M198 72.5l2.5-3.2M201 79.7l2-1.4M163.4 45.7l-14.3-9-11-4.5 5.7 9.3 3.2-1.8 3.5 7.5-4 8.6" />
    <path
       id="path60"
       d="M142 38.3l-18.6-.4-4 6.7.7 3.5-6.6 7M120.5 42.6l-5.3-9-13.6-3.2H94M103.7 46.8h10.8l-14-9.2M22.3 33.5l12-4.2 7.3-1.7 8.6-3L63 22l15.4-1 14 1.4 15-3 13.5-.6 7-1.4 7.5 6.4 7.2 3.6" />
    <path
       id="path62"
       d="M115.5 19l6.4 6 16.2 7.3M81.6 25l8.6 1.5-3 3.2M89.8 26.5l8.2-3.2M95.5 30.8L94 35.4l-11.3-.7-9 4.3 3.6 5.3 7 4 9.4-2.5 5 4 4-4.4 1-5.3" />
    <path
       id="path64"
       d="M81.3 46.7l10-6 .3-5.6M81.2 49.3l-7.8 8 7.8-1.5 14-.4L107 61" />
    <path
       id="path66"
       d="M74.3 56.7l-8 3-3 4.6-5.6-1-2.5-8.2-6.5 4M54.8 55l.7-6.7 6.4-4.7-7.2-6.8-10.4 3.6" />
    <path
       id="path68"
       d="M54.7 37l8-4.4 4.2 3.2-5.5 8 12.5-5M66.7 35.7l13.5-5.3M49 27.2l-7 9.3-10 9.3v4.6l7.8 6 5 .8 1.8-9.6L44 45M46.6 48l9.3.2M31.6 49L27 48l-4.7 5M27 48l-1-3-6.6 4-2.5-4 1.2-6.4" />
    <path
       id="path70"
       d="M32.3 49.7l-4 5.4-5.6 8.6L18 75l-5.3-4.6L8.4 78l-5 11-2 5.7M101 68.4l-13 2.4-13.3-14M66.2 74.7v14M45 74.3L59 69M107.3 19.3l-6.8-4.6-8.6-2-9.7 2.4-2.7 5.7M71.6 21.5l-2.5-5-8.8 1.4-3 5.3M26.4 28.6l15.2-9 15.7-4.2 17-4 3-4.2 4.3-2M74.4 11.5l17.2-3.2 16.4 1 16.3 2.6M52.5 110.7l18 2" />
  </g>
</svg>
